<svg height="320" viewBox="0 0 394.02176 320" width="394.02176" xmlns="http://www.w3.org/2000/svg"><g transform="matrix(1.5282806 0 0 -1.5282806 -376.30594 395.21422)"><g fill="#1a162c"><path d="m416.67348 83.3648-1.056-.6089c-.108-.0629-.297-.0547-.422.0171l-.995.575c-.125.0719-.138.1809-.03.243l1.055.6102c.109.0617.298.0539.423-.018l.995-.5742c.125-.0719.138-.1809.03-.2442"/><path d="m419.26148 84.859-1.056-.609c-.108-.0629-.297-.0551-.422.0172l-.995.575c-.125.0719-.138.1808-.03.243l1.055.6097c.109.0621.298.0551.423-.0179l.995-.5739c.125-.0722.138-.1812.03-.2441"/><path d="m421.84948 86.3531-1.056-.609c-.108-.0632-.297-.055-.422.0168l-.995.575c-.125.0723-.138.1813-.03.2442l1.055.609c.109.0629.298.055.423-.0172l.995-.575c.125-.0719.138-.1809.03-.2438"/><path d="m424.43748 87.848-1.056-.6101c-.108-.0617-.297-.0547-.422.018l-.995.5742c-.125.0719-.138.1808-.03.2437l1.055.6094c.109.0629.298.0547.423-.0172l.995-.575c.124-.0719.138-.1808.03-.243"/><path d="m427.02548 89.3422-1.056-.6102c-.108-.0621-.297-.0539-.422.018l-.995.5738c-.125.0723-.139.1813-.03.2442l1.055.609c.109.0628.298.055.423-.0168l.995-.575c.124-.0723.138-.1813.03-.243"/><path d="m429.61348 90.8359-1.056-.6097c-.108-.0621-.297-.0543-.422.0179l-.995.5739c-.125.0718-.139.182-.03.2441l1.055.6098c.108.0621.298.0543.422-.018l.995-.5738c.125-.0731.139-.1821.031-.2442"/><path d="m432.20148 92.3301-1.056-.609c-.108-.0629-.297-.0551-.422.0168l-.995.5742c-.125.0731-.139.182-.03.2438l1.055.6101c.108.0621.297.0539.422-.018l.995-.5742c.125-.0718.139-.1816.031-.2437"/><path d="m421.71748 83.441-1.055-.609c-.109-.0629-.298-.055-.423.0168l-.995.575c-.124.0723-.138.1813-.03.2434l1.056.6098c.108.0621.297.0539.422-.018l.995-.5738c.125-.0723.138-.1821.03-.2442"/><path d="m424.30548 84.9352-1.055-.609c-.109-.0633-.298-.0551-.423.0168l-.995.575c-.125.0718-.138.1808-.03.2429l1.056.6102c.108.0617.297.0551.422-.018l.995-.5742c.125-.0719.138-.1809.03-.2437"/><path d="m426.89348 86.4289-1.055-.609c-.109-.0629-.298-.0551-.423.0172l-.995.575c-.125.0719-.138.1809-.03.2438l1.056.6089c.108.0633.297.0551.422-.0168l.995-.575c.125-.0718.138-.1808.03-.2441"/><path d="m432.06948 89.418-1.056-.6098c-.108-.0621-.297-.0543-.422.018l-.995.5738c-.125.0719-.138.1809-.03.2441l1.056.609c.108.0629.297.0551.422-.0172l.995-.575c.125-.0718.138-.1808.03-.2429"/><path d="m434.65748 90.9121-1.056-.6101c-.108-.0622-.297-.054-.422.0179l-.995.5742c-.125.0719-.138.1821-.03.2438l1.056.6101c.108.0622.297.054.422-.0179l.995-.5742c.125-.0731.138-.1821.03-.2438"/><path d="m411.77548 86.2422-1.055-.6102c-.109-.0621-.298-.0539-.423.018l-.995.5738c-.124.0731-.138.1821-.03.2442l1.056.6101c.108.0617.297.0539.422-.0179l.995-.5743c.125-.0718.139-.182.03-.2437"/><path d="m414.36348 87.7359-1.055-.6089c-.109-.0629-.298-.0551-.423.0171l-.995.575c-.125.0719-.138.1809-.03.243l1.056.6098c.108.0621.297.0543.422-.018l.995-.5738c.125-.0719.138-.1813.03-.2442"/><path d="m416.95148 89.2301-1.055-.609c-.109-.0629-.298-.0551-.423.0168l-.995.575c-.125.0723-.138.1812-.03.2441l1.056.609c.108.0621.297.0551.422-.018l.995-.5742c.125-.0718.138-.1808.03-.2437"/><path d="m419.53948 90.7238-1.055-.609c-.109-.0628-.298-.0546-.423.0172l-.995.575c-.125.0719-.138.1809-.03.2442l1.056.609c.108.0628.297.0546.422-.0172l.995-.575c.125-.0719.138-.1809.03-.2442"/><path d="m422.12748 92.2191-1.056-.6101c-.108-.0621-.297-.0551-.422.018l-.995.5742c-.125.0718-.138.1808-.03.2437l1.056.609c.108.0633.297.0551.422-.0168l.995-.575c.125-.0723.138-.1812.03-.243"/><path d="m424.71548 93.7129-1.056-.6098c-.108-.0621-.297-.0543-.422.018l-.995.5738c-.125.0723-.138.1821-.03.2442l1.056.6089c.108.0629.297.0551.422-.0171l.995-.575c.125-.0719.138-.1809.03-.243"/><path d="m427.30348 95.207-1.056-.6101c-.108-.0617-.297-.0539-.422.0179l-.995.5743c-.125.073-.138.182-.03.2441l1.056.6098c.108.0621.297.0539.422-.018l.995-.5738c.125-.0723.138-.1821.03-.2442"/><path d="m414.23248 84.8238-1.056-.6097c-.108-.0621-.297-.0539-.422.0179l-.995.5739c-.125.0722-.139.182-.03.2441l1.055.6102c.108.0617.297.0539.422-.018l.995-.5742c.125-.0731.139-.1821.031-.2442"/><path d="m416.82048 86.318-1.056-.6102c-.108-.0617-.297-.0539-.422.0184l-.995.5738c-.125.073-.139.182-.031.2441l1.056.6098c.108.0621.297.0539.422-.018l.995-.5738c.125-.0723.139-.182.031-.2441"/><path d="m419.40848 87.8121-1.056-.609c-.108-.0633-.297-.0551-.422.0168l-.995.575c-.125.0723-.139.1813-.031.243l1.056.6101c.108.0622.297.054.422-.0179l.995-.5742c.125-.0719.139-.1809.031-.2438"/><path d="m421.99648 89.3059-1.056-.609c-.108-.0629-.297-.0547-.422.0172l-.995.575c-.125.0718-.139.1808-.031.2441l1.056.609c.108.0617.297.0547.422-.0184l.995-.5738c.125-.0719.139-.1809.031-.2441"/><path d="m424.58348 90.8-1.055-.609c-.108-.0629-.297-.0551-.422.0168l-.995.5754c-.125.0719-.139.1809-.031.2438l1.056.6089c.108.0629.297.0551.422-.0168l.995-.575c.125-.0722.139-.1812.03-.2441"/><path d="m427.17148 92.2949-1.055-.6097c-.108-.0622-.297-.0551-.422.0179l-.995.5739c-.125.0718-.139.1808-.031.2441l1.056.609c.108.0629.297.0551.422-.0172l.995-.575c.125-.0719.139-.1809.03-.243"/><path d="m429.75948 93.7891-1.055-.6102c-.108-.0617-.297-.0539-.422.018l-.995.5742c-.125.0719-.139.182-.031.2437l1.056.609c.108.0633.297.0551.422-.0168l.995-.575c.125-.0718.139-.1808.03-.2429"/><path d="m466.26148 117.613-1.056-.61c-.108-.062-.297-.054-.422.018l-.995.574c-.125.072-.138.182-.03.244l1.056.609c.108.063.297.055.422-.017l.995-.574c.125-.073.138-.182.03-.244"/><path d="m468.84948 119.107-1.056-.61c-.108-.062-.297-.054-.422.018l-.995.574c-.125.073-.138.182-.03.244l1.056.61c.108.062.297.054.422-.018l.995-.574c.125-.072.138-.182.03-.244"/><path d="m471.43748 120.601-1.056-.609c-.108-.063-.297-.055-.422.017l-.995.575c-.125.072-.138.181-.03.243l1.056.61c.108.062.297.054.422-.018l.995-.574c.125-.072.138-.181.03-.244"/><path d="m474.02548 122.095-1.056-.609c-.108-.063-.297-.055-.422.017l-.995.575c-.125.072-.138.181-.03.244l1.055.609c.109.062.298.055.423-.018l.995-.574c.125-.072.138-.181.03-.244"/><path d="m476.61348 123.589-1.056-.609c-.108-.063-.297-.055-.422.017l-.995.575c-.125.072-.138.181-.03.244l1.055.609c.109.063.298.055.423-.017l.995-.575c.125-.072.138-.181.03-.244"/><path d="m468.71748 116.195-1.055-.61c-.108-.062-.297-.054-.422.018l-.995.574c-.125.072-.139.181-.031.244l1.056.609c.108.063.297.055.422-.017l.995-.575c.125-.072.139-.181.03-.243"/><path d="m471.30548 117.689-1.055-.61c-.108-.062-.297-.054-.422.018l-.995.574c-.125.072-.139.182-.031.244l1.056.609c.108.063.297.055.422-.017l.995-.574c.125-.073.139-.182.03-.244"/><path d="m476.48148 120.677-1.055-.609c-.109-.063-.298-.055-.422.017l-.995.575c-.125.072-.139.181-.031.243l1.056.61c.108.062.297.054.422-.018l.995-.574c.125-.072.139-.181.03-.244"/><path d="m479.06948 122.171-1.055-.609c-.109-.063-.298-.055-.423.017l-.995.575c-.124.072-.138.181-.03.243l1.056.61c.108.062.297.055.422-.018l.995-.574c.125-.072.138-.181.03-.244"/><path d="m444.31648 88.0289-1.056-.609c-.108-.0629-.297-.0551-.422.0172l-.995.575c-.125.0719-.139.1809-.031.2438l1.056.6089c.108.0633.297.0551.422-.0168l.995-.575c.125-.0718.139-.1808.031-.2441"/><path d="m446.77248 86.6109-1.056-.6089c-.108-.0629-.297-.0551-.422.0171l-.995.575c-.125.0719-.138.1809-.03.243l1.055.6098c.109.0621.298.0551.423-.018l.995-.5738c.125-.0719.138-.1813.03-.2442"/><path d="m444.18448 85.1172-1.056-.609c-.108-.0633-.297-.0551-.422.0168l-.995.575c-.125.0719-.138.1809-.03.243l1.055.6101c.109.0617.298.0539.423-.0179l.995-.5743c.125-.0718.138-.182.03-.2437"/><path d="m449.22848 85.193-1.055-.609c-.109-.0629-.298-.0551-.423.0172l-.995.5738c-.125.073-.138.182-.03.2441l1.056.6098c.108.0621.297.0539.422-.018l.995-.5738c.125-.0723.138-.182.03-.2441"/><path d="m446.64048 83.6988-1.055-.6097c-.109-.0621-.298-.0539-.423.0179l-.995.5739c-.124.0722-.138.182-.03.2441l1.056.6102c.108.0617.297.0539.422-.018l.995-.5742c.125-.0731.138-.1821.03-.2442"/><path d="m451.82848 83.6922-1.056-.6094c-.108-.0629-.297-.0547-.422.0172l-.995.575c-.125.0719-.139.1809-.031.243l1.056.6101c.108.0617.297.0547.422-.0179l.995-.5743c.125-.0718.139-.1808.031-.2437"/><path d="m449.24048 82.198-1.056-.6089c-.108-.0629-.297-.0551-.422.0168l-.995.575c-.125.0722-.139.1812-.03.2429l1.055.6102c.108.0621.297.0539.422-.018l.995-.5738c.125-.0723.139-.1813.031-.2442"/><path d="m454.28448 82.2738-1.056-.609c-.108-.0628-.297-.0546-.422.0172l-.995.575c-.125.0719-.138.1809-.03.243l1.055.6102c.109.0617.298.0539.423-.018l.995-.5742c.125-.0719.138-.1809.03-.2442"/><path d="m451.69648 80.7801-1.056-.6102c-.108-.0617-.297-.0539-.422.018l-.995.5742c-.125.0731-.138.182-.03.2438l1.055.6101c.109.0621.298.0539.423-.018l.995-.5742c.125-.0718.138-.1816.03-.2437"/><path d="m456.74048 80.8559-1.055-.6098c-.109-.0621-.298-.0539-.423.018l-.995.5738c-.124.073-.138.182-.03.2441l1.056.6102c.108.0617.297.0539.422-.0184l.995-.5738c.125-.0719.138-.182.03-.2441"/><path d="m454.15248 79.3621-1.055-.6101c-.109-.0622-.298-.054-.423.0179l-.994.5742c-.125.0719-.139.1821-.031.2438l1.056.609c.108.0633.297.0551.422-.0168l.995-.575c.125-.0719.139-.1813.03-.243"/><path d="m459.34048 79.3551-1.056-.609c-.108-.0629-.297-.0551-.422.0168l-.995.575c-.125.0723-.139.1812-.03.243l1.055.6101c.108.0621.297.0551.422-.018l.995-.5742c.125-.0718.139-.1808.031-.2437"/><path d="m456.75248 77.8609-1.056-.6089c-.108-.0629-.297-.0551-.422.0171l-.995.575c-.125.0719-.139.1809-.03.243l1.055.6098c.108.0621.297.0543.422-.018l.995-.5738c.125-.0719.139-.1821.031-.2442"/><path d="m461.79648 77.9371-1.056-.609c-.108-.0633-.297-.0551-.422.0168l-.995.5742c-.125.0731-.138.1821-.03.2438l1.055.6101c.109.0622.298.054.423-.0179l.995-.5742c.125-.0719.138-.1821.03-.2438"/><path d="m459.20848 76.443-1.056-.6102c-.108-.0617-.297-.0539-.422.0184l-.995.5738c-.125.0719-.138.182-.03.2441l1.056.6098c.108.0621.297.0539.422-.018l.995-.5738c.125-.073.138-.182.03-.2441"/><path d="m464.25248 76.5191-1.055-.6101c-.109-.0621-.298-.0539-.422.018l-.995.5742c-.125.0718-.139.182-.031.2437l1.056.6102c.108.0621.297.0539.422-.018l.995-.5742c.125-.0731.139-.182.03-.2438"/><path d="m461.66448 75.025-1.055-.6102c-.108-.0617-.298-.0539-.422.0184l-.995.5738c-.125.0719-.139.1809-.031.2442l1.056.609c.108.0628.297.0546.422-.0172l.995-.575c.125-.0719.139-.1809.03-.243"/><path d="m466.85248 75.018-1.056-.609c-.108-.0629-.297-.0551-.422.0172l-.995.575c-.125.0718-.139.1808-.03.2429l1.055.6098c.108.0621.297.0543.422-.018l.995-.5738c.125-.0723.139-.1812.031-.2441"/><path d="m464.26448 73.5238-1.056-.6097c-.108-.0621-.297-.0539-.422.0179l-.995.5739c-.125.073-.139.182-.03.2441l1.055.6102c.108.0617.297.0539.422-.018l.995-.5742c.125-.0719.139-.1821.031-.2442"/><path d="m437.80448 104.224-1.056-.61c-.108-.062-.297-.054-.422.018l-.995.574c-.125.072-.139.181-.03.244l1.055.609c.108.063.297.055.422-.017l.995-.575c.125-.072.139-.181.031-.243"/><path d="m435.21648 102.729-1.056-.609c-.108-.062-.297-.055-.422.017l-.995.575c-.125.072-.139.181-.03.244l1.055.609c.108.063.297.055.422-.017l.995-.575c.125-.072.139-.181.031-.244"/><path d="m440.26048 102.805-1.056-.609c-.108-.063-.297-.055-.422.017l-.995.575c-.125.072-.138.181-.03.244l1.055.609c.109.063.298.055.423-.017l.995-.575c.125-.072.138-.181.03-.244"/><path d="m437.67248 101.311-1.056-.609c-.108-.063-.297-.055-.422.017l-.995.575c-.125.072-.138.181-.03.244l1.056.609c.108.062.297.055.422-.018l.995-.574c.125-.072.138-.181.03-.244"/><path d="m442.71648 101.387-1.055-.609c-.109-.063-.298-.055-.423.017l-.995.575c-.124.072-.138.181-.03.244l1.056.609c.108.062.297.055.422-.018l.995-.574c.125-.072.138-.181.03-.244"/><path d="m440.12848 99.893-1.055-.609c-.109-.0629-.298-.0551-.422.0172l-.995.575c-.125.0718-.139.1808-.031.2428l1.056.61c.108.062.297.054.422-.018l.995-.574c.125-.072.139-.1811.03-.244"/><path d="m445.31648 99.8871-1.056-.6101c-.108-.0622-.297-.0551-.422.0179l-.995.5742c-.125.0719-.139.1809-.03.2439l1.055.609c.108.063.297.055.422-.017l.995-.575c.125-.072.139-.1812.031-.2429"/><path d="m442.72848 98.3922-1.056-.609c-.108-.0633-.297-.0551-.422.0168l-.995.575c-.125.0719-.139.1809-.03.2441l1.055.609c.108.0629.297.0551.422-.0172l.995-.575c.125-.0718.139-.1808.031-.2437"/><path d="m447.77248 98.468-1.056-.609c-.108-.0629-.297-.0551-.422.0172l-.995.575c-.125.0718-.138.1808-.03.2437l1.055.609c.109.0633.298.0551.423-.0168l.995-.575c.125-.0723.138-.1812.03-.2441"/><path d="m445.18448 96.9738-1.056-.609c-.108-.0628-.297-.0546-.422.0172l-.995.575c-.125.0719-.138.1809-.03.243l1.056.6102c.108.0617.297.0546.422-.018l.995-.5742c.125-.0719.138-.1809.03-.2442"/><path d="m450.22848 97.05-1.055-.609c-.109-.0629-.298-.0551-.422.0168l-.995.5754c-.125.0719-.139.1809-.031.243l1.056.6097c.108.0621.297.0551.422-.0179l.995-.5739c.125-.0722.139-.1812.03-.2441"/><path d="m447.64048 95.5559-1.055-.609c-.108-.0629-.297-.0547-.422.0172l-.995.575c-.125.0718-.139.1808-.031.2429l1.056.6102c.108.0617.297.0539.422-.0184l.995-.5738c.125-.0719.139-.1809.03-.2441"/><path d="m452.82848 95.5488-1.056-.609c-.108-.0617-.297-.0546-.422.0172l-.995.575c-.125.0719-.139.1809-.03.2442l1.055.609c.108.0628.297.0546.422-.0172l.995-.575c.125-.0719.139-.1809.031-.2442"/><path d="m450.24048 94.0551-1.056-.609c-.108-.0629-.297-.0551-.422.0168l-.995.575c-.125.0723-.139.1812-.03.2441l1.055.609c.108.0621.297.0551.422-.0172l.995-.575c.125-.0718.139-.1808.031-.2437"/><path d="m455.28448 94.1309-1.056-.609c-.108-.0629-.297-.0547-.422.0172l-.995.575c-.125.0718-.138.1808-.03.2441l1.056.609c.108.0617.297.0547.422-.0184l.995-.5738c.125-.0719.138-.1809.03-.2441"/><path d="m452.69648 92.6371-1.056-.609c-.108-.0633-.297-.0551-.422.0168l-.995.575c-.125.0723-.138.1813-.03.243l1.056.6101c.108.0622.297.054.422-.0179l.995-.5742c.125-.0719.138-.1809.03-.2438"/><path d="m457.74048 92.7129-1.055-.609c-.108-.0629-.297-.0551-.422.0172l-.995.575c-.125.0719-.139.1809-.031.243l1.056.6097c.108.0621.297.0543.422-.0179l.995-.5739c.125-.0718.139-.1808.03-.2441"/><path d="m455.15248 91.2191-1.055-.6101c-.108-.0621-.297-.0539-.422.018l-.995.5742c-.125.0726-.139.182-.031.2437l1.056.6102c.108.0621.297.0539.422-.018l.995-.5742c.125-.0719.139-.182.03-.2438"/><path d="m460.34048 91.2121-1.056-.609c-.108-.0633-.297-.0551-.422.0168l-.995.575c-.125.0723-.139.1813-.03.2442l1.055.6089c.108.0629.297.0551.422-.0171l.995-.575c.125-.0719.139-.1809.031-.2438"/><path d="m457.75248 89.718-1.056-.609c-.108-.0629-.297-.0551-.422.0172l-.995.575c-.125.0718-.139.1808-.03.2429l1.055.6098c.109.0621.298.0551.422-.018l.995-.5738c.125-.0723.139-.1812.031-.2441"/><path d="m432.74248 101.308-1.055-.609c-.109-.063-.298-.055-.423.017l-.995.574c-.125.073-.138.182-.03.244l1.056.61c.108.062.297.054.422-.018l.995-.574c.125-.072.138-.182.03-.244"/><path d="m430.15448 99.8141-1.055-.6102c-.109-.0617-.298-.0539-.423.018l-.995.5742c-.125.0719-.138.182-.03.2439l1.056.61c.108.062.297.054.422-.018l.995-.574c.125-.0728.138-.1818.03-.2439"/><path d="m437.65548 98.4719-1.056-.6098c-.108-.0621-.297-.0539-.422.018l-.995.5738c-.125.0723-.138.1813-.03.2441l1.055.609c.109.0629.298.0551.423-.0172l.995-.575c.125-.0718.138-.1808.03-.2429"/><path d="m440.25448 96.9711-1.055-.6102c-.109-.0621-.298-.0539-.423.018l-.995.5742c-.125.0731-.138.1821-.03.2438l1.056.6101c.108.0621.297.0539.422-.0179l.995-.5743c.125-.0718.138-.1816.03-.2437"/><path d="m442.71148 95.5531-1.056-.6101c-.108-.0621-.297-.0539-.422.0179l-.995.5743c-.125.0718-.139.182-.031.2437l1.056.609c.108.0633.297.0551.422-.0168l.995-.575c.125-.0723.139-.1813.031-.243"/><path d="m445.16748 94.1352-1.056-.6102c-.108-.0621-.297-.0551-.422.018l-.995.5742c-.125.0719-.138.1808-.03.2437l1.055.609c.109.0633.298.0551.423-.0168l.995-.575c.125-.0722.138-.1812.03-.2429"/><path d="m442.57948 92.6398-1.056-.6089c-.108-.0629-.297-.0547-.422.0171l-.995.575c-.125.0719-.138.1809-.03.2442l1.055.609c.109.0629.298.0547.423-.0172l.995-.575c.125-.0719.138-.1809.03-.2442"/><path d="m447.76648 92.634-1.055-.6102c-.109-.0617-.298-.0539-.423.0184l-.995.5738c-.124.0719-.138.182-.03.2442l1.056.6097c.108.0621.297.0539.422-.0179l.995-.5739c.125-.073.138-.182.03-.2441"/><path d="m445.17848 91.1398-1.055-.6097c-.109-.0621-.298-.0539-.422.0179l-.995.5739c-.125.0722-.139.1812-.031.2441l1.056.609c.108.0629.297.0551.422-.0172l.995-.5746c.125-.0723.139-.1812.03-.2434"/><path d="m450.22348 91.216-1.056-.6101c-.108-.0618-.297-.0539-.422.0179l-.995.5742c-.125.0719-.139.1809-.03.2442l1.055.609c.108.0629.297.0547.422-.0172l.995-.575c.125-.0719.139-.1809.031-.243"/><path d="m447.63548 89.7219-1.056-.6098c-.108-.0621-.297-.0551-.422.018l-.995.5738c-.125.0723-.139.1813-.03.2441l1.055.609c.108.0629.297.0551.422-.0172l.995-.575c.125-.0718.139-.1808.031-.2429"/><path d="m452.67948 89.798-1.056-.6101c-.108-.0617-.297-.0547-.422.018l-.995.5742c-.125.0719-.138.1808-.03.2437l1.055.6094c.109.0629.298.0547.423-.0172l.995-.575c.125-.0719.138-.1808.03-.243"/><path d="m450.09148 88.3031-1.056-.609c-.108-.0632-.297-.055-.422.0168l-.995.575c-.125.0723-.138.1813-.03.2442l1.056.609c.108.0629.297.055.422-.0172l.995-.575c.125-.0719.138-.1809.03-.2438"/><path d="m455.27848 88.2969-1.055-.6098c-.109-.0621-.298-.0539-.422.018l-.995.5738c-.125.0723-.139.182-.031.2441l1.056.609c.108.0629.297.0551.422-.0172l.995-.5738c.125-.073.139-.182.03-.2441"/><path d="m452.69048 86.8031-1.055-.6101c-.108-.0621-.297-.0539-.422.0179l-.995.5743c-.125.0718-.139.1808-.031.2437l1.056.609c.108.0633.297.0551.422-.0168l.995-.575c.125-.0723.139-.1813.03-.243"/><path d="m469.44048 76.5121-1.056-.609c-.108-.0633-.297-.0551-.422.0168l-.995.575c-.125.0723-.139.1813-.03.243l1.055.6101c.108.0622.297.0551.422-.0179l.995-.5742c.125-.0719.139-.1809.031-.2438"/><path d="m472.02848 78.0059-1.056-.609c-.108-.0629-.297-.0547-.422.0172l-.995.575c-.125.0718-.139.1808-.031.2441l1.056.609c.108.0629.297.0547.422-.0172l.995-.575c.125-.0719.139-.1809.031-.2441"/><path d="m482.37948 83.9832-1.055-.6094c-.108-.0629-.297-.0547-.422.0172l-.995.575c-.125.0719-.139.1809-.031.243l1.056.6101c.108.0618.297.0539.422-.0179l.995-.5742c.125-.0719.139-.1809.03-.2438"/><path d="m484.96748 85.477-1.055-.609c-.108-.0629-.298-.0551-.422.0172l-.995.575c-.125.0718-.139.1808-.031.2429l1.056.6098c.108.0621.297.0551.422-.018l.995-.5738c.125-.0723.139-.1813.03-.2441"/><path d="m487.55548 86.9711-1.055-.609c-.109-.0633-.298-.0551-.422.0168l-.995.575c-.125.0723-.139.1813-.031.2441l1.056.609c.108.0629.297.0551.422-.0172l.995-.575c.125-.0718.139-.1808.03-.2437"/><path d="m469.30848 73.6-1.056-.6102c-.108-.0617-.297-.0539-.422.0184l-.995.5738c-.125.0731-.138.1821-.03.2442l1.056.6097c.108.0621.297.0539.422-.0179l.995-.5739c.125-.0722.138-.182.03-.2441"/><path d="m471.89648 75.0941-1.056-.6089c-.108-.0633-.297-.0551-.422.0168l-.995.575c-.125.0718-.138.1812-.03.2429l1.055.6102c.109.0621.298.0539.423-.018l.995-.5742c.125-.0719.138-.1809.03-.2438"/><path d="m487.42448 84.059-1.056-.609c-.108-.0629-.297-.0551-.422.0172l-.995.575c-.125.0719-.139.1808-.03.243l1.055.6097c.108.0621.297.0539.422-.0179l.995-.5739c.125-.0722.139-.1812.031-.2441"/><path d="m464.36048 79.4449-1.055-.6097c-.109-.0622-.298-.0543-.423.0179l-.995.5739c-.125.073-.138.182-.03.2441l1.056.6098c.108.0621.297.0543.422-.018l.995-.5738c.125-.0719.138-.1821.03-.2442"/><path d="m466.94848 80.9391-1.056-.609c-.108-.0629-.297-.0551-.422.0168l-.995.575c-.125.0722-.138.1812-.03.2429l1.056.6102c.108.0621.297.0539.422-.018l.995-.5738c.125-.0723.138-.1812.03-.2441"/><path d="m469.53648 82.4332-1.056-.6094c-.108-.0629-.297-.0547-.422.0172l-.995.575c-.125.0719-.138.1809-.03.243l1.056.6101c.108.0618.297.0547.422-.0179l.995-.5742c.125-.0719.138-.1809.03-.2438"/><path d="m472.12448 83.927-1.056-.609c-.108-.0629-.297-.0551-.422.0172l-.995.575c-.125.0718-.138.1808-.03.2437l1.056.609c.108.0633.297.0551.422-.0168l.995-.575c.125-.0723.138-.1813.03-.2441"/><path d="m474.71248 85.4219-1.056-.6098c-.108-.0621-.297-.0551-.422.018l-.995.5738c-.125.0723-.138.1813-.03.2441l1.055.609c.109.0629.298.0551.423-.0172l.995-.575c.125-.0718.138-.1808.03-.2429"/><path d="m477.30048 86.916-1.056-.6101c-.108-.0618-.297-.0539-.422.0179l-.995.5742c-.125.0719-.138.1809-.03.2442l1.055.609c.109.0629.298.0547.423-.0172l.995-.575c.125-.0719.138-.1809.03-.243"/><path d="m479.88848 88.4102-1.056-.6102c-.108-.0621-.297-.0539-.422.018l-.995.5742c-.125.0719-.138.1816-.03.2437l1.055.6102c.109.0621.298.0539.423-.018l.995-.5742c.125-.073.138-.182.03-.2437"/><path d="m482.47648 89.9039-1.056-.609c-.108-.0629-.297-.0551-.422.0172l-.995.5738c-.125.0731-.138.1821-.03.2442l1.055.6097c.109.0622.298.0543.423-.0179l.995-.5739c.124-.0718.138-.182.03-.2441"/><path d="m466.81648 78.027-1.055-.6098c-.108-.0621-.297-.0543-.422.018l-.995.5738c-.125.0719-.139.1808-.031.2441l1.056.609c.108.0629.297.0551.422-.0172l.995-.575c.125-.0719.139-.1808.03-.2429"/><path d="m469.40448 79.5211-1.055-.6102c-.108-.0621-.297-.0539-.422.018l-.995.5742c-.125.0731-.139.1821-.031.2438l1.056.6101c.108.0621.297.0539.422-.0179l.995-.5743c.125-.0726.139-.182.03-.2437"/><path d="m471.99248 81.0148-1.055-.6089c-.108-.0629-.297-.0547-.422.0171l-.995.575c-.125.0719-.139.1809-.031.243l1.056.6102c.108.0617.297.0539.422-.0184l.995-.5738c.125-.0719.139-.1809.03-.2442"/><path d="m477.16848 84.0031-1.055-.609c-.109-.0632-.298-.055-.422.0168l-.995.575c-.125.0723-.139.1813-.031.2442l1.056.609c.108.0629.297.055.422-.0172l.995-.575c.125-.0719.139-.1809.03-.2438"/><path d="m479.75648 85.498-1.055-.6101c-.109-.0617-.298-.0551-.423.018l-.995.5742c-.124.0719-.138.1808-.03.2437l1.056.609c.108.0633.297.0551.422-.0168l.995-.575c.125-.0719.138-.1808.03-.243"/><path d="m482.34448 86.9922-1.055-.6102c-.109-.0621-.298-.0539-.423.018l-.995.5738c-.125.0723-.138.1813-.03.2442l1.056.609c.108.0628.297.055.422-.0168l.995-.575c.125-.0723.138-.1813.03-.243"/><path d="m484.93248 88.4859-1.055-.6097c-.109-.0621-.298-.0543-.423.0179l-.995.5739c-.125.0718-.138.182-.03.2441l1.056.6098c.108.0621.297.0543.422-.018l.995-.5738c.125-.0731.138-.1821.03-.2442"/><path d="m459.40148 82.2738-1.056-.609c-.108-.0628-.297-.0546-.422.0172l-.995.575c-.125.0719-.138.1809-.03.243l1.055.6102c.109.0617.298.0539.423-.018l.995-.5742c.125-.0719.138-.1809.03-.2442"/><path d="m461.98948 83.768-1.056-.609c-.108-.0629-.297-.0551-.422.0172l-.995.575c-.125.0718-.138.1808-.03.2429l1.055.6098c.109.0621.298.0551.423-.018l.995-.5738c.124-.0723.138-.1812.03-.2441"/><path d="m464.57748 85.2621-1.056-.609c-.108-.0633-.297-.0551-.422.0168l-.995.575c-.125.0723-.139.1813-.03.2442l1.055.6089c.109.0629.298.0551.422-.0171l.995-.575c.125-.0719.139-.1809.031-.2438"/><path d="m467.16548 86.757-1.056-.6101c-.108-.0617-.297-.0547-.422.0179l-.995.5743c-.125.0718-.139.1808-.03.2441l1.055.609c.108.0629.297.0547.422-.0172l.995-.575c.125-.0719.139-.1809.031-.243"/><path d="m469.75348 88.2512-1.056-.6102c-.108-.0621-.297-.0539-.422.018l-.995.5742c-.125.0719-.139.1809-.03.2438l1.055.6089c.108.0629.297.0551.422-.0168l.995-.575c.125-.0722.139-.1812.031-.2429"/><path d="m472.34148 89.7449-1.056-.6097c-.108-.0622-.297-.0543-.422.0179l-.995.5739c-.125.073-.139.182-.03.2441l1.055.6098c.108.0621.297.0543.422-.018l.995-.5738c.125-.0731.139-.1821.031-.2442"/><path d="m474.92948 91.2391-1.056-.609c-.108-.0629-.297-.0551-.422.0168l-.995.575c-.125.0722-.139.1812-.03.2429l1.055.6102c.108.0621.297.0539.422-.018l.995-.5738c.125-.0723.139-.1812.031-.2441"/><path d="m477.51748 92.7332-1.056-.6094c-.108-.0629-.297-.0547-.422.0172l-.995.575c-.125.0719-.139.1809-.031.243l1.056.6101c.108.0618.297.0547.422-.0179l.995-.5742c.125-.0719.139-.1809.031-.2438"/><path d="m461.85748 80.8559-1.055-.6098c-.109-.0621-.298-.0539-.423.018l-.995.5738c-.125.073-.138.182-.03.2441l1.056.6102c.108.0617.297.0539.422-.0184l.995-.5738c.125-.0719.138-.182.03-.2441"/><path d="m464.44548 82.35-1.055-.609c-.109-.0629-.298-.0551-.423.0172l-.995.5746c-.125.0723-.138.1813-.03.2434l1.056.6097c.108.0621.297.0539.422-.0179l.995-.5739c.125-.0722.138-.1812.03-.2441"/><path d="m467.03348 83.8441-1.055-.6089c-.109-.0633-.298-.0551-.423.0168l-.995.575c-.125.0718-.138.1812-.03.2429l1.056.6102c.108.0621.297.0551.422-.018l.995-.5742c.125-.0719.138-.1809.03-.2438"/><path d="m469.62148 85.3379-1.056-.609c-.108-.0629-.297-.0551-.422.0172l-.995.575c-.125.0719-.138.1809-.03.2437l1.056.609c.108.0633.297.0551.422-.0168l.995-.575c.125-.0718.138-.1808.03-.2441"/><path d="m472.20948 86.8328-1.056-.6098c-.108-.0621-.297-.055-.422.018l-.995.5738c-.125.0723-.138.1813-.03.2442l1.056.609c.108.0629.297.055.422-.0168l.995-.575c.125-.0723.138-.1813.03-.2434"/><path d="m474.79748 88.327-1.056-.6098c-.108-.0621-.297-.0543-.422.018l-.995.5738c-.125.0719-.138.1808-.03.2441l1.056.609c.108.0629.297.0551.422-.0172l.995-.575c.125-.0719.138-.1808.03-.2429"/><path d="m477.38548 89.8211-1.056-.6102c-.108-.0621-.297-.0539-.422.018l-.995.5742c-.125.0731-.138.1821-.03.2438l1.055.6101c.109.0621.298.0539.423-.0179l.995-.5743c.125-.0726.138-.1816.03-.2437"/><path d="m479.97348 91.3148-1.056-.6089c-.108-.0629-.297-.0547-.422.0171l-.995.575c-.125.0719-.138.1809-.03.243l1.055.6102c.109.0617.298.0539.423-.018l.995-.5742c.125-.0719.138-.1809.03-.2442"/><path d="m265.93848 146.667-1.056-.609c-.108-.063-.297-.055-.422.017l-.995.575c-.125.072-.138.181-.03.243l1.056.61c.108.062.297.055.422-.018l.995-.574c.125-.072.138-.181.03-.244"/><path d="m268.39448 145.249-1.055-.609c-.108-.063-.297-.055-.422.017l-.995.575c-.125.072-.139.181-.031.243l1.056.61c.108.062.297.054.422-.018l.995-.574c.125-.072.139-.181.03-.244"/><path d="m265.80648 143.755-1.055-.61c-.108-.062-.297-.054-.422.018l-.995.574c-.125.073-.139.182-.031.244l1.056.61c.108.062.297.054.422-.018l.995-.574c.125-.073.139-.182.03-.244"/><path d="m270.99448 143.748-1.056-.609c-.108-.063-.297-.055-.422.017l-.995.575c-.125.072-.139.181-.03.244l1.055.609c.108.062.298.055.422-.017l.995-.575c.125-.072.139-.181.031-.244"/><path d="m268.40648 142.254-1.056-.609c-.108-.063-.297-.055-.422.017l-.995.575c-.125.072-.139.181-.03.243l1.055.61c.109.062.298.054.422-.018l.995-.574c.125-.072.139-.181.031-.244"/><path d="m273.45048 142.33-1.056-.609c-.108-.063-.297-.055-.422.017l-.995.575c-.125.072-.138.181-.03.243l1.056.61c.108.062.297.054.422-.018l.995-.574c.125-.072.138-.181.03-.244"/><path d="m270.86248 140.836-1.056-.609c-.108-.063-.297-.055-.422.017l-.995.574c-.125.073-.138.182-.03.244l1.056.61c.108.062.297.054.422-.018l.995-.574c.125-.072.138-.182.03-.244"/><path d="m275.90648 140.912-1.055-.609c-.108-.063-.297-.055-.422.017l-.995.574c-.125.073-.139.182-.031.244l1.056.61c.108.062.297.054.422-.018l.995-.574c.125-.072.139-.182.03-.244"/><path d="m273.31848 139.418-1.055-.61c-.108-.062-.297-.054-.422.018l-.995.574c-.125.072-.139.182-.031.244l1.056.61c.108.062.297.054.422-.018l.995-.574c.125-.073.139-.182.03-.244"/><path d="m278.50648 139.411-1.056-.609c-.108-.063-.297-.055-.422.017l-.995.575c-.125.072-.139.181-.03.243l1.055.61c.109.062.298.055.422-.018l.995-.574c.125-.072.139-.181.031-.244"/><path d="m275.91848 137.917-1.056-.609c-.108-.063-.297-.055-.422.017l-.995.575c-.125.072-.138.181-.03.243l1.055.61c.109.062.298.054.423-.018l.995-.574c.124-.072.138-.181.03-.244"/><path d="m280.96248 137.993-1.056-.609c-.108-.063-.297-.055-.422.017l-.995.575c-.125.072-.138.181-.03.243l1.056.61c.108.062.297.054.422-.018l.995-.574c.125-.072.138-.181.03-.244"/><path d="m278.37448 136.499-1.055-.61c-.109-.062-.298-.054-.423.018l-.995.574c-.125.073-.138.182-.03.244l1.056.61c.108.062.297.054.422-.018l.995-.574c.125-.072.138-.182.03-.244"/><path d="m283.41848 136.575-1.055-.61c-.108-.062-.297-.054-.422.018l-.995.574c-.125.073-.139.182-.031.244l1.056.61c.108.062.297.054.422-.018l.995-.574c.125-.073.139-.182.03-.244"/><path d="m280.83148 135.081-1.056-.61c-.108-.062-.297-.054-.422.018l-.995.574c-.125.072-.139.181-.031.244l1.056.609c.108.063.297.055.422-.017l.995-.575c.125-.072.139-.181.031-.243"/><path d="m286.01848 135.074-1.056-.609c-.108-.063-.297-.055-.422.017l-.995.575c-.125.072-.138.181-.03.243l1.055.61c.109.062.298.054.423-.018l.995-.574c.124-.072.138-.181.03-.244"/><path d="m283.43048 133.58-1.056-.609c-.108-.063-.297-.055-.422.017l-.995.574c-.125.073-.138.182-.03.244l1.055.61c.109.062.298.054.423-.018l.995-.574c.125-.072.138-.182.03-.244"/><path d="m288.47448 133.656-1.055-.609c-.109-.063-.298-.055-.423.017l-.995.574c-.125.073-.138.182-.03.244l1.056.61c.108.062.297.054.422-.018l.995-.574c.125-.072.138-.182.03-.244"/><path d="m285.88648 132.162-1.055-.61c-.109-.062-.298-.054-.423.018l-.995.574c-.125.072-.138.182-.03.244l1.056.61c.108.062.297.054.422-.018l.995-.574c.125-.073.138-.182.03-.244"/><path d="m290.93148 132.238-1.056-.61c-.108-.062-.297-.054-.422.018l-.995.574c-.125.072-.139.182-.031.244l1.056.61c.108.062.297.054.422-.018l.995-.574c.125-.073.139-.182.031-.244"/><path d="m288.34348 130.744-1.056-.61c-.108-.062-.297-.054-.422.018l-.995.574c-.125.072-.139.181-.031.244l1.056.609c.108.063.297.055.422-.017l.995-.575c.125-.072.139-.181.031-.243"/><path d="m293.53048 130.737-1.056-.609c-.108-.063-.297-.055-.422.017l-.995.575c-.125.072-.138.181-.03.243l1.055.61c.109.062.298.054.423-.018l.995-.574c.125-.072.138-.181.03-.244"/><path d="m290.94248 129.243-1.056-.61c-.108-.062-.297-.054-.422.018l-.995.574c-.125.073-.138.182-.03.244l1.055.61c.109.062.298.054.423-.018l.995-.574c.125-.072.138-.182.03-.244"/><path d="m295.98648 129.319-1.055-.61c-.109-.062-.298-.054-.423.018l-.995.574c-.125.073-.138.182-.03.244l1.056.61c.108.062.297.054.422-.018l.995-.574c.125-.072.138-.182.03-.244"/><path d="m293.39848 127.825-1.055-.61c-.109-.062-.298-.054-.423.018l-.995.574c-.124.072-.138.182-.03.244l1.056.609c.108.063.297.055.422-.017l.995-.575c.125-.072.138-.181.03-.243"/><path d="m298.44348 127.901-1.056-.61c-.108-.062-.297-.054-.422.018l-.995.574c-.125.072-.139.181-.031.244l1.056.609c.108.063.297.055.422-.017l.995-.575c.125-.072.139-.181.031-.243"/><path d="m295.85548 126.407-1.056-.61c-.108-.062-.297-.055-.422.018l-.995.574c-.125.072-.139.181-.031.244l1.056.609c.108.063.297.055.422-.017l.995-.575c.125-.072.139-.181.031-.243"/><path d="m301.04248 126.4-1.056-.609c-.108-.063-.297-.055-.422.017l-.995.574c-.125.073-.138.182-.03.244l1.055.61c.109.062.298.054.423-.018l.995-.574c.125-.072.138-.182.03-.244"/><path d="m298.45448 124.906-1.056-.61c-.108-.062-.297-.054-.422.018l-.995.574c-.125.072-.138.182-.03.244l1.055.61c.109.062.298.054.423-.018l.995-.574c.125-.073.138-.182.03-.244"/><path d="m303.49848 124.982-1.055-.61c-.109-.062-.298-.054-.423.018l-.995.574c-.125.072-.138.182-.03.244l1.056.61c.108.062.297.054.422-.018l.995-.574c.125-.073.138-.182.03-.244"/><path d="m300.91048 123.488-1.055-.61c-.109-.062-.298-.054-.423.018l-.995.574c-.124.072-.138.181-.03.244l1.056.609c.108.063.297.055.422-.017l.995-.575c.125-.072.138-.181.03-.243"/><path d="m305.95548 123.564-1.056-.61c-.108-.062-.297-.054-.422.018l-.995.574c-.125.072-.139.181-.031.244l1.056.609c.108.063.297.055.422-.017l.995-.575c.125-.072.139-.181.031-.243"/><path d="m303.36748 122.07-1.056-.61c-.108-.062-.297-.055-.422.018l-.995.574c-.125.072-.139.181-.03.244l1.055.609c.108.063.297.055.422-.017l.995-.575c.125-.072.139-.181.031-.243"/><path d="m308.55448 122.063-1.056-.61c-.108-.062-.297-.054-.422.018l-.995.574c-.125.073-.138.182-.03.244l1.055.61c.109.062.298.054.423-.018l.995-.574c.125-.072.138-.182.03-.244"/><path d="m305.96648 120.569-1.056-.61c-.108-.062-.297-.054-.422.018l-.995.574c-.125.072-.138.182-.03.244l1.055.609c.109.063.298.055.423-.017l.995-.575c.125-.072.138-.181.03-.243"/><path d="m311.01048 120.645-1.055-.61c-.109-.062-.298-.054-.423.018l-.995.574c-.124.072-.138.182-.03.244l1.056.609c.108.063.297.055.422-.017l.995-.575c.125-.072.138-.181.03-.243"/><path d="m308.42248 119.151-1.055-.61c-.109-.062-.298-.055-.422.018l-.995.574c-.125.072-.139.181-.031.244l1.056.609c.108.063.297.055.422-.017l.995-.575c.125-.072.139-.181.03-.243"/><path d="m313.46748 119.227-1.056-.61c-.108-.062-.297-.055-.422.018l-.995.574c-.125.072-.139.181-.031.244l1.056.609c.108.063.297.055.422-.017l.995-.575c.125-.072.139-.181.031-.243"/><path d="m310.87948 117.732-1.056-.609c-.108-.063-.297-.055-.422.017l-.995.575c-.125.072-.139.181-.03.244l1.055.609c.108.063.297.055.422-.017l.995-.575c.125-.072.139-.181.031-.244"/><path d="m316.06648 117.726-1.056-.61c-.108-.062-.297-.054-.422.018l-.995.574c-.125.072-.138.182-.03.244l1.055.61c.109.062.298.054.423-.018l.995-.574c.125-.073.138-.182.03-.244"/><path d="m313.47848 116.232-1.056-.61c-.108-.062-.297-.054-.422.018l-.995.574c-.125.072-.138.181-.03.244l1.056.609c.108.063.297.055.422-.017l.995-.575c.125-.072.138-.181.03-.243"/><path d="m318.52248 116.308-1.055-.61c-.109-.062-.298-.054-.422.018l-.995.574c-.125.072-.139.181-.031.244l1.056.609c.108.063.297.055.422-.017l.995-.575c.125-.072.139-.181.03-.243"/><path d="m315.93448 114.814-1.055-.61c-.108-.062-.297-.055-.422.018l-.995.574c-.125.072-.139.181-.031.244l1.056.609c.108.063.297.055.422-.017l.995-.575c.125-.072.139-.181.03-.243"/><path d="m320.97948 114.889-1.056-.609c-.108-.062-.297-.055-.422.018l-.995.574c-.125.072-.139.181-.03.244l1.055.609c.108.063.297.055.422-.017l.995-.575c.125-.072.139-.181.031-.244"/><path d="m318.39148 113.395-1.056-.609c-.108-.063-.297-.055-.422.017l-.995.575c-.125.072-.139.181-.03.244l1.055.609c.108.063.297.055.422-.017l.995-.575c.125-.072.139-.181.031-.244"/><path d="m323.57848 113.389-1.056-.61c-.108-.062-.297-.054-.422.018l-.995.574c-.125.072-.138.182-.03.244l1.056.609c.108.063.297.055.422-.017l.995-.574c.125-.073.138-.182.03-.244"/><path d="m320.99048 111.895-1.056-.61c-.108-.062-.297-.055-.422.018l-.995.574c-.125.072-.138.181-.03.244l1.056.609c.108.063.297.055.422-.017l.995-.575c.125-.072.138-.181.03-.243"/><path d="m326.03448 111.971-1.055-.61c-.108-.062-.297-.055-.422.018l-.995.574c-.125.072-.139.181-.031.244l1.056.609c.108.063.297.055.422-.017l.995-.575c.125-.072.139-.181.03-.243"/><path d="m323.44648 110.476-1.055-.609c-.108-.063-.297-.055-.422.017l-.995.575c-.125.072-.139.181-.031.244l1.056.609c.108.063.297.055.422-.017l.995-.575c.125-.072.139-.181.03-.244"/><path d="m328.58248 110.5-1.056-.61c-.108-.062-.297-.054-.422.018l-.995.574c-.125.072-.138.182-.03.244l1.055.609c.109.063.298.055.423-.017l.995-.574c.125-.073.138-.182.03-.244"/><path d="m325.99448 109.006-1.056-.61c-.108-.062-.297-.054-.422.018l-.995.574c-.125.072-.138.181-.03.244l1.055.609c.109.063.298.055.423-.017l.995-.575c.125-.072.138-.181.03-.243"/><path d="m331.03848 109.082-1.055-.61c-.109-.062-.298-.054-.423.018l-.995.574c-.125.072-.138.181-.03.244l1.056.609c.108.063.297.055.422-.017l.995-.575c.125-.072.138-.181.03-.243"/><path d="m328.45048 107.587-1.055-.609c-.109-.062-.298-.055-.423.017l-.995.575c-.124.072-.138.181-.03.244l1.056.609c.108.063.297.055.422-.017l.995-.575c.125-.072.138-.181.03-.244"/><path d="m333.63848 107.581-1.056-.61c-.108-.062-.297-.054-.422.018l-.995.574c-.125.073-.139.182-.031.244l1.056.61c.108.062.297.054.422-.018l.995-.574c.125-.073.139-.182.031-.244"/><path d="m331.05048 106.087-1.056-.61c-.108-.062-.297-.054-.422.018l-.995.574c-.125.072-.139.181-.03.244l1.055.609c.108.063.297.055.422-.017l.995-.575c.125-.072.139-.181.031-.243"/><path d="m336.09448 106.163-1.056-.61c-.108-.062-.297-.054-.422.018l-.995.574c-.125.072-.138.181-.03.244l1.055.609c.109.063.298.055.423-.017l.995-.575c.125-.072.138-.181.03-.243"/><path d="m333.50648 104.669-1.056-.61c-.108-.062-.297-.055-.422.018l-.995.574c-.125.072-.138.181-.03.244l1.055.609c.109.063.298.055.423-.017l.995-.575c.125-.072.138-.181.03-.243"/><path d="m338.55048 104.745-1.055-.61c-.109-.062-.298-.055-.423.018l-.995.574c-.124.072-.138.181-.03.244l1.056.609c.108.063.297.055.422-.017l.995-.575c.125-.072.138-.181.03-.243"/><path d="m335.96248 103.25-1.055-.609c-.109-.063-.298-.055-.423.017l-.995.575c-.124.072-.138.181-.03.244l1.056.609c.108.063.297.055.422-.017l.995-.575c.125-.072.138-.181.03-.244"/><path d="m341.15048 103.244-1.056-.61c-.108-.062-.297-.054-.422.018l-.995.574c-.125.072-.139.182-.03.244l1.055.609c.108.063.297.055.422-.017l.995-.574c.125-.073.139-.182.031-.244"/><path d="m338.56248 101.75-1.056-.61c-.108-.062-.297-.054-.422.018l-.995.574c-.125.072-.139.181-.03.244l1.055.609c.108.063.297.055.422-.017l.995-.575c.125-.072.139-.181.031-.243"/><path d="m343.60648 101.826-1.056-.61c-.108-.062-.297-.054-.422.018l-.995.574c-.125.072-.138.181-.03.244l1.055.609c.109.063.298.055.423-.017l.995-.575c.125-.072.138-.181.03-.243"/><path d="m341.01848 100.331-1.056-.6091c-.108-.0617-.297-.0547-.422.0179l-.995.5742c-.125.072-.138.181-.03.244l1.055.609c.109.063.298.055.423-.017l.995-.575c.125-.072.138-.181.03-.244"/><path d="m346.06248 100.407-1.055-.609c-.109-.0621-.298-.055-.423.0168l-.995.5752c-.124.072-.138.181-.03.244l1.056.609c.108.063.297.055.422-.017l.995-.575c.125-.072.138-.181.03-.244"/><path d="m343.47448 98.9129-1.055-.609c-.109-.0629-.298-.0551-.422.0172l-.995.575c-.125.0719-.139.1809-.031.2437l1.056.609c.108.0621.297.0551.422-.0168l.995-.575c.125-.0718.139-.1808.03-.2441"/><path d="m348.66248 98.907-1.056-.6101c-.108-.0617-.297-.0539-.422.0179l-.995.5743c-.125.0718-.139.1808-.03.2441l1.055.609c.108.0629.297.0547.422-.0172l.995-.575c.125-.0719.139-.1809.031-.243"/><path d="m346.07448 97.4129-1.056-.6098c-.108-.0621-.297-.0551-.422.018l-.995.5738c-.125.0723-.139.1813-.03.2442l1.055.6089c.108.0629.297.0551.422-.0171l.995-.575c.125-.0719.139-.1809.031-.243"/><path d="m351.11848 97.4891-1.056-.6102c-.108-.0617-.297-.0551-.422.018l-.995.5742c-.125.0719-.138.1809-.03.2437l1.055.609c.109.0633.298.0551.423-.0168l.995-.575c.125-.0718.138-.1808.03-.2429"/><path d="m348.53048 95.9941-1.056-.6089c-.108-.0633-.297-.0551-.422.0168l-.995.575c-.125.0718-.138.1812-.03.2441l1.056.609c.108.0629.297.0551.422-.0172l.995-.575c.125-.0719.138-.1809.03-.2438"/><path d="m353.57448 96.0699-1.055-.609c-.109-.0629-.298-.055-.422.0172l-.995.575c-.125.0719-.139.1809-.031.2438l1.056.609c.108.0632.297.055.422-.0168l.995-.575c.125-.0719.139-.1809.03-.2442"/><path d="m350.98648 94.5762-1.055-.609c-.108-.0633-.297-.0551-.422.0168l-.995.575c-.125.0719-.139.1808-.031.243l1.056.6101c.108.0617.297.0551.422-.018l.995-.5742c.125-.0719.139-.1808.03-.2437"/><path d="m356.17448 94.5699-1.056-.6097c-.108-.0622-.297-.0543-.422.0179l-.995.5739c-.125.0718-.139.1812-.03.2441l1.055.609c.108.0629.297.0551.422-.0172l.995-.575c.125-.0719.139-.1809.031-.243"/><path d="m353.58648 93.075-1.056-.609c-.108-.0621-.297-.0551-.422.018l-.995.5742c-.125.0719-.139.1809-.03.2438l1.055.6089c.108.0629.297.0551.422-.0168l.995-.575c.125-.0722.139-.1812.031-.2441"/><path d="m358.63048 93.1512-1.056-.609c-.108-.0621-.297-.0551-.422.018l-.995.5738c-.125.0719-.138.1808-.03.2441l1.056.609c.108.0629.297.0551.422-.0172l.995-.575c.125-.0719.138-.1808.03-.2437"/><path d="m356.04248 91.657-1.056-.609c-.108-.0628-.297-.055-.422.0168l-.995.575c-.125.0723-.138.1813-.03.2442l1.056.609c.108.0621.297.055.422-.0168l.995-.575c.125-.0723.138-.1813.03-.2442"/><path d="m361.08648 91.7332-1.055-.6094c-.108-.0629-.297-.0547-.422.0172l-.995.575c-.125.0719-.139.1809-.031.2442l1.056.6089c.108.0618.297.0547.422-.0171l.995-.575c.125-.0719.139-.1809.03-.2438"/><path d="m358.49848 90.2391-1.055-.609c-.108-.0629-.297-.0551-.422.0168l-.995.575c-.125.0722-.139.1812-.031.2429l1.056.6102c.108.0621.297.0551.422-.018l.995-.5738c.125-.0723.139-.1812.03-.2441"/><path d="m363.68648 90.2332-1.056-.6102c-.108-.0621-.297-.055-.422.018l-.995.5738c-.125.0723-.139.1813-.03.2442l1.055.609c.108.0629.297.055.422-.0168l.995-.575c.125-.0723.139-.1813.031-.243"/><path d="m361.09848 88.7379-1.056-.609c-.108-.0629-.297-.0551-.422.0172l-.995.575c-.125.0719-.139.1809-.03.2437l1.055.609c.109.0633.298.0551.422-.0168l.995-.575c.125-.0718.139-.1808.031-.2441"/><path d="m366.14248 88.8141-1.056-.609c-.108-.0629-.297-.0551-.422.0168l-.995.575c-.125.0722-.138.1812-.03.2441l1.056.609c.108.0629.297.0551.422-.0168l.995-.575c.125-.0723.138-.1812.03-.2441"/><path d="m363.55448 87.3199-1.056-.609c-.108-.0629-.297-.055-.422.0172l-.995.575c-.125.0719-.138.1809-.03.243l1.056.6098c.108.0621.297.055.422-.018l.995-.5738c.125-.0719.138-.1809.03-.2442"/><path d="m368.59848 87.3961-1.055-.609c-.108-.0633-.297-.0551-.422.0168l-.995.575c-.125.0723-.139.1813-.031.243l1.056.6101c.108.0621.297.0551.422-.0179l.995-.5743c.125-.0718.139-.1808.03-.2437"/><path d="m366.01048 85.902-1.055-.609c-.108-.0629-.297-.0551-.422.0172l-.995.575c-.125.0718-.139.1808-.031.2429l1.056.6098c.108.0621.297.0543.422-.018l.995-.5738c.125-.0723.139-.1813.03-.2441"/><path d="m371.19848 85.8949-1.056-.609c-.108-.0621-.297-.055-.422.018l-.995.5742c-.125.0719-.139.1809-.03.2438l1.055.609c.108.0632.298.055.422-.0168l.995-.575c.125-.0719.139-.1813.031-.2442"/><path d="m368.61048 84.4012-1.056-.609c-.108-.0633-.297-.0551-.422.0168l-.995.575c-.125.0719-.138.1808-.03.2441l1.055.609c.109.0617.298.0551.422-.0172l.995-.575c.125-.0719.139-.1808.031-.2437"/><path d="m373.65448 84.477-1.056-.609c-.108-.0629-.297-.0551-.422.0172l-.995.575c-.125.0718-.138.1808-.03.2437l1.056.609c.108.0633.297.0551.422-.0168l.995-.575c.125-.0723.138-.1813.03-.2441"/><path d="m371.06648 82.9832-1.055-.6094c-.109-.0629-.298-.0547-.423.0172l-.995.575c-.125.0719-.138.1809-.03.243l1.056.6101c.108.0618.297.0547.422-.0179l.995-.5742c.125-.0719.138-.1809.03-.2438"/><path d="m376.11048 83.059-1.055-.609c-.108-.0629-.297-.0551-.422.0172l-.995.575c-.125.0719-.139.1808-.031.243l1.056.6097c.108.0621.297.0539.422-.0179l.995-.5739c.125-.0722.139-.1812.03-.2441"/><path d="m373.52248 81.5648-1.055-.6089c-.108-.0629-.297-.0547-.422.0171l-.995.5739c-.125.073-.139.182-.031.2441l1.056.6102c.108.0617.297.0539.422-.018l.995-.5742c.125-.0719.139-.182.03-.2442"/><path d="m378.71048 81.5582-1.056-.6094c-.108-.0629-.297-.0547-.422.0172l-.995.575c-.125.0719-.139.1809-.03.2442l1.055.6089c.109.0629.298.0547.423-.0171l.995-.575c.124-.0719.138-.1809.03-.2438"/><path d="m376.12248 80.0641-1.056-.609c-.108-.0629-.297-.0551-.422.0168l-.995.575c-.125.0722-.138.1812-.03.2429l1.055.6102c.109.0621.298.0551.423-.018l.995-.5738c.124-.0723.138-.1812.03-.2441"/><path d="m381.16648 80.1398-1.055-.6089c-.109-.0629-.298-.0547-.423.0171l-.995.575c-.125.0719-.138.1809-.03.243l1.056.6102c.108.0617.297.0547.422-.0184l.995-.5738c.125-.0719.138-.1809.03-.2442"/><path d="m378.57848 78.6461-1.055-.609c-.109-.0633-.298-.0551-.423.0168l-.995.575c-.125.0723-.138.1813-.03.243l1.056.6101c.108.0621.297.0539.422-.0179l.995-.5743c.125-.0718.138-.1808.03-.2437"/><path d="m383.62248 78.7219-1.055-.609c-.108-.0629-.297-.0547-.422.0172l-.995.575c-.125.0719-.139.1808-.031.2429l1.056.6102c.108.0617.297.0539.422-.0184l.995-.5738c.125-.0719.139-.1808.03-.2441"/><path d="m381.03548 77.2281-1.056-.6101c-.108-.0621-.297-.0539-.422.0179l-.995.5743c-.125.073-.139.182-.031.2437l1.056.6102c.108.0621.297.0539.422-.018l.995-.5742c.125-.0719.139-.1821.031-.2438"/><path d="m386.22248 77.2211-1.056-.609c-.108-.0633-.297-.0551-.422.0168l-.995.575c-.125.0723-.138.1813-.03.2441l1.055.609c.109.0629.298.0551.423-.0172l.995-.575c.124-.0718.138-.1808.03-.2437"/><path d="m383.63448 75.727-1.056-.609c-.108-.0629-.297-.0551-.422.0172l-.995.575c-.125.0718-.138.1808-.03.2429l1.055.6098c.109.0621.298.0551.423-.018l.995-.5738c.125-.0723.138-.1813.03-.2441"/><path d="m388.81048 78.7148-1.056-.6089c-.108-.0618-.297-.0547-.422.0179l-.995.5742c-.125.0719-.139.1809-.03.2442l1.055.609c.109.0629.298.0547.423-.0172l.995-.575c.124-.0719.138-.1809.03-.2442"/><path d="m391.39848 80.2102-1.056-.6102c-.108-.0621-.297-.0539-.422.018l-.995.5742c-.125.0719-.139.1808-.03.2437l1.055.609c.108.0633.297.0551.422-.0168l.995-.575c.125-.0722.139-.1812.031-.2429"/><path d="m393.98648 81.7039-1.056-.6098c-.108-.0621-.297-.0543-.422.018l-.995.5738c-.125.0723-.139.1821-.03.2442l1.055.6097c.108.0622.297.0543.422-.0179l.995-.5739c.125-.073.139-.182.031-.2441"/><path d="m396.57448 83.198-1.056-.6101c-.108-.0617-.297-.0539-.422.018l-.995.5742c-.125.073-.139.182-.03.2437l1.055.6102c.108.0621.297.0539.422-.018l.995-.5738c.125-.0723.139-.182.031-.2442"/><path d="m399.16248 84.6922-1.056-.6094c-.108-.0629-.297-.0547-.422.0172l-.995.575c-.125.0719-.139.1809-.03.243l1.055.6101c.108.0617.297.0539.422-.0179l.995-.5743c.125-.0718.139-.1808.031-.2437"/><path d="m401.75048 86.1859-1.056-.6089c-.108-.0629-.297-.0551-.422.0171l-.995.575c-.125.0719-.139.1809-.031.2438l1.056.609c.108.0621.297.0551.422-.018l.995-.5738c.125-.0719.139-.1813.031-.2442"/><path d="m404.33848 87.6801-1.056-.609c-.108-.0629-.297-.0551-.422.0168l-.995.575c-.125.0723-.139.1812-.031.2441l1.056.609c.108.0629.297.0551.422-.0172l.995-.575c.125-.0718.139-.1808.031-.2437"/><path d="m406.92648 89.175-1.056-.6102c-.108-.0617-.297-.0546-.422.018l-.995.5742c-.125.0719-.139.1809-.031.2442l1.056.609c.108.0628.297.0546.422-.0172l.995-.575c.125-.0719.139-.1809.031-.243"/><path d="m409.51348 90.6691-1.055-.6101c-.108-.0621-.297-.0539-.422.018l-.995.5742c-.125.0718-.139.1816-.031.2437l1.056.609c.108.0633.297.0551.422-.0168l.995-.575c.125-.0723.139-.1812.03-.243"/><path d="m412.10148 92.1629-1.055-.6098c-.108-.0621-.297-.0543-.422.018l-.995.5738c-.125.0731-.139.1821-.031.2442l1.056.6097c.108.0621.297.0543.422-.0179l.995-.5739c.125-.0718.139-.182.03-.2441"/><path d="m414.68948 93.657-1.055-.609c-.108-.0628-.297-.055-.422.0168l-.995.575c-.125.0723-.139.1813-.031.2434l1.056.6098c.108.0621.297.0539.422-.018l.995-.5738c.125-.0723.139-.1813.03-.2442"/><path d="m417.27748 95.1512-1.055-.609c-.109-.0633-.298-.0551-.422.0168l-.995.575c-.125.0719-.139.1808-.031.243l1.056.6101c.108.0617.297.0551.422-.018l.995-.5742c.125-.0719.139-.1808.03-.2437"/><path d="m419.86548 96.6449-1.055-.609c-.109-.0629-.298-.055-.422.0172l-.995.575c-.125.0719-.139.1809-.031.2438l1.056.609c.108.0632.297.055.422-.0168l.995-.575c.125-.0719.139-.1813.03-.2442"/><path d="m422.45348 98.1398-1.055-.6097c-.109-.0621-.298-.0551-.423.0179l-.995.5739c-.125.0722-.138.1812-.03.2441l1.056.609c.108.0629.297.0551.422-.0172l.995-.5746c.125-.0723.138-.1812.03-.2434"/><path d="m425.04148 99.634-1.055-.6102c-.109-.0617-.298-.0539-.423.0184l-.995.5738c-.125.0719-.138.1809-.03.2442l1.056.6088c.108.063.297.055.422-.017l.995-.575c.125-.0719.138-.1809.03-.243"/><path d="m388.67848 75.8031-1.055-.609c-.109-.0632-.298-.055-.423.0168l-.995.575c-.125.0723-.138.1813-.03.243l1.056.6102c.108.0621.297.055.422-.018l.995-.5742c.125-.0719.138-.1809.03-.2438"/><path d="m386.09048 74.309-1.055-.609c-.109-.0629-.298-.0551-.423.0172l-.995.575c-.125.0719-.138.1808-.03.243l1.056.6097c.108.0621.297.0539.422-.0179l.995-.5739c.125-.0722.138-.182.03-.2441"/><path d="m391.26648 77.2969-1.055-.609c-.109-.0629-.298-.0547-.423.0172l-.995.575c-.125.0719-.138.1808-.03.2437l1.056.6094c.108.0617.297.0547.422-.0172l.995-.575c.125-.0719.138-.1808.03-.2441"/><path d="m393.85448 78.791-1.056-.609c-.108-.0621-.297-.055-.422.018l-.995.5738c-.125.0723-.138.1813-.03.2442l1.056.609c.108.0628.297.055.422-.0168l.995-.575c.125-.0723.138-.1813.03-.2442"/><path d="m396.44248 80.2859-1.056-.6097c-.108-.0621-.297-.0543-.422.0179l-.995.5739c-.125.0718-.138.1808-.03.2441l1.056.609c.108.0629.297.0551.422-.0172l.995-.575c.125-.0719.138-.1809.03-.243"/><path d="m399.03048 81.7801-1.056-.6102c-.108-.0617-.297-.0539-.422.018l-.995.5742c-.125.0719-.138.182-.03.2438l1.056.6089c.108.0633.297.0551.422-.0168l.995-.5742c.125-.0726.138-.1816.03-.2437"/><path d="m401.61848 83.2738-1.056-.6097c-.108-.0621-.297-.0539-.422.0179l-.995.5739c-.125.073-.138.182-.03.2441l1.055.6102c.109.0617.298.0539.423-.018l.995-.5742c.125-.0719.138-.1821.03-.2442"/><path d="m404.20648 84.768-1.056-.609c-.108-.0629-.297-.0551-.422.0172l-.995.575c-.125.0718-.138.1808-.03.2429l1.055.6098c.109.0621.298.0543.423-.018l.995-.5738c.125-.0723.138-.1812.03-.2441"/><path d="m406.79448 86.2621-1.056-.609c-.108-.0633-.297-.0551-.422.0168l-.995.575c-.125.0723-.138.1813-.03.2442l1.055.6089c.109.0622.298.0551.423-.0179l.995-.5742c.125-.0719.138-.1809.03-.2438"/><path d="m409.38248 87.7559-1.056-.609c-.108-.0629-.297-.0547-.422.0172l-.995.575c-.125.0718-.138.1808-.03.2441l1.055.609c.109.0629.298.0547.423-.0172l.995-.575c.124-.0719.138-.1809.03-.2441"/><path d="m411.97048 89.2512-1.056-.6102c-.108-.0621-.297-.0551-.422.018l-.995.5742c-.125.0719-.139.1809-.03.2438l1.055.6089c.109.0629.298.0551.422-.0168l.995-.575c.125-.0722.139-.1812.031-.2429"/><path d="m414.55848 90.7449-1.056-.6097c-.108-.0622-.297-.0543-.422.0179l-.995.5739c-.125.0718-.139.182-.03.2441l1.055.609c.109.0629.297.0551.422-.0172l.995-.575c.125-.0719.139-.1809.031-.243"/><path d="m417.14648 92.2391-1.056-.6102c-.108-.0617-.297-.0539-.422.018l-.995.5742c-.125.073-.139.182-.03.2437l1.055.6102c.108.0621.297.0539.422-.018l.995-.5738c.125-.0723.139-.182.031-.2441"/><path d="m419.73448 93.7332-1.056-.6094c-.108-.0629-.297-.0547-.422.0172l-.995.575c-.125.0719-.139.1809-.03.243l1.055.6101c.108.0618.297.0539.422-.0179l.995-.5742c.125-.0719.139-.1809.031-.2438"/><path d="m422.32248 95.227-1.056-.609c-.108-.0629-.297-.0551-.422.0172l-.995.575c-.125.0718-.139.1808-.03.2429l1.055.6098c.108.0621.297.0551.422-.018l.995-.5738c.125-.0723.139-.1813.031-.2441"/><path d="m424.91048 96.7211-1.056-.609c-.108-.0633-.297-.0551-.422.0168l-.995.575c-.125.0723-.139.1813-.031.2441l1.056.609c.108.0629.297.0551.422-.0172l.995-.575c.125-.0718.139-.1808.031-.2437"/><path d="m427.49848 98.216-1.056-.6101c-.108-.0618-.297-.0547-.422.0179l-.995.5742c-.125.0719-.139.1809-.031.2442l1.056.609c.108.0629.297.0547.422-.0172l.995-.575c.125-.0719.139-.1809.031-.243"/><path d="m430.20648 102.616-1.056-.61c-.108-.062-.297-.055-.422.018l-.995.574c-.125.072-.138.181-.03.244l1.055.609c.109.063.298.055.423-.017l.995-.575c.125-.072.138-.181.03-.243"/><path d="m427.61848 101.121-1.056-.609c-.108-.063-.297-.055-.422.017l-.995.575c-.125.072-.138.181-.03.244l1.055.609c.109.063.298.055.423-.017l.995-.575c.125-.072.138-.181.03-.244"/><path d="m432.79448 104.11-1.056-.61c-.108-.062-.297-.054-.422.018l-.995.574c-.125.072-.138.181-.03.244l1.055.609c.109.063.298.055.423-.017l.995-.575c.124-.072.138-.181.03-.243"/><path d="m435.38248 105.604-1.056-.61c-.108-.062-.297-.054-.422.018l-.995.574c-.125.072-.139.182-.03.244l1.055.61c.109.062.298.054.422-.018l.995-.574c.125-.073.139-.182.031-.244"/><path d="m437.97048 107.098-1.056-.609c-.108-.063-.297-.055-.422.017l-.995.574c-.125.073-.139.182-.03.244l1.055.61c.108.062.297.054.422-.018l.995-.574c.125-.072.139-.182.031-.244"/><path d="m440.55848 108.592-1.056-.609c-.108-.063-.297-.055-.422.017l-.995.575c-.125.072-.139.181-.03.243l1.055.61c.108.062.297.054.422-.018l.995-.574c.125-.072.139-.181.031-.244"/><path d="m443.14648 110.086-1.056-.609c-.108-.063-.297-.055-.422.017l-.995.575c-.125.072-.139.181-.03.244l1.055.609c.108.062.297.055.422-.017l.995-.575c.125-.072.139-.181.031-.244"/><path d="m445.73448 111.58-1.056-.609c-.108-.062-.297-.055-.422.017l-.995.575c-.125.072-.139.181-.031.244l1.056.609c.108.063.297.055.422-.017l.995-.575c.125-.072.139-.181.031-.244"/><path d="m448.32248 113.075-1.056-.61c-.108-.062-.297-.054-.422.018l-.995.574c-.125.072-.139.181-.031.244l1.056.609c.108.063.297.055.422-.017l.995-.575c.125-.072.139-.181.031-.243"/><path d="m450.91048 114.569-1.056-.61c-.108-.062-.297-.054-.422.018l-.995.574c-.125.072-.139.182-.031.244l1.056.609c.108.063.297.055.422-.017l.995-.574c.125-.073.139-.182.031-.244"/><path d="m453.49748 116.063-1.055-.61c-.108-.062-.297-.054-.422.018l-.995.574c-.125.073-.139.182-.031.244l1.056.61c.108.062.297.054.422-.018l.995-.574c.125-.072.139-.182.03-.244"/><path d="m456.08548 117.557-1.055-.609c-.108-.063-.297-.055-.422.017l-.995.575c-.125.072-.139.181-.031.243l1.056.61c.108.062.297.054.422-.018l.995-.574c.125-.072.139-.181.03-.244"/><path d="m458.67348 119.051-1.055-.609c-.108-.063-.297-.055-.422.017l-.995.575c-.125.072-.139.181-.031.243l1.056.61c.108.062.297.055.422-.018l.995-.574c.125-.072.139-.181.03-.244"/><path d="m461.26148 120.545-1.055-.609c-.108-.063-.297-.055-.422.017l-.995.575c-.125.072-.139.181-.031.244l1.056.609c.108.063.297.055.422-.017l.995-.575c.125-.072.139-.181.03-.244"/><path d="m463.84948 122.04-1.055-.61c-.109-.062-.298-.055-.422.018l-.995.574c-.125.072-.139.181-.031.244l1.056.609c.108.063.297.055.422-.017l.995-.575c.125-.072.139-.181.03-.243"/><path d="m466.43748 123.534-1.055-.61c-.109-.062-.298-.054-.423.018l-.995.574c-.124.072-.138.181-.03.244l1.056.609c.108.063.297.055.422-.017l.995-.575c.125-.072.138-.181.03-.243"/><path d="m469.02548 125.028-1.055-.61c-.109-.062-.298-.054-.423.018l-.995.574c-.125.073-.138.182-.03.244l1.056.61c.108.062.297.054.422-.018l.995-.574c.125-.073.138-.182.03-.244"/><path d="m440.42648 105.68-1.056-.61c-.108-.062-.297-.054-.422.018l-.995.574c-.125.072-.138.182-.03.244l1.056.61c.108.062.297.054.422-.018l.995-.574c.125-.073.138-.182.03-.244"/><path d="m443.01448 107.174-1.056-.609c-.108-.063-.297-.055-.422.017l-.995.574c-.125.073-.138.182-.03.244l1.056.61c.108.062.297.054.422-.018l.995-.574c.125-.072.138-.182.03-.244"/><path d="m445.60248 108.668-1.056-.609c-.108-.063-.297-.055-.422.017l-.995.575c-.125.072-.138.181-.03.243l1.056.61c.108.062.297.054.422-.018l.995-.574c.125-.072.138-.181.03-.244"/><path d="m448.19048 110.162-1.056-.609c-.108-.063-.297-.055-.422.017l-.995.575c-.125.072-.138.181-.03.244l1.055.609c.109.062.298.055.423-.018l.995-.574c.125-.072.138-.181.03-.244"/><path d="m450.77848 111.656-1.056-.609c-.108-.062-.297-.055-.422.017l-.995.575c-.125.072-.138.181-.03.244l1.055.609c.109.063.298.055.423-.017l.995-.575c.125-.072.138-.181.03-.244"/><path d="m453.36648 113.151-1.056-.61c-.108-.062-.297-.054-.422.018l-.995.574c-.125.072-.138.181-.03.244l1.055.609c.109.063.298.055.423-.017l.995-.575c.125-.072.138-.181.03-.243"/><path d="m455.95448 114.645-1.056-.61c-.108-.062-.297-.054-.422.018l-.995.574c-.125.072-.139.182-.03.244l1.055.609c.109.063.298.055.423-.017l.995-.574c.124-.073.138-.182.03-.244"/><path d="m458.54248 116.139-1.056-.61c-.108-.062-.297-.054-.422.018l-.995.574c-.125.073-.139.182-.03.244l1.055.61c.109.062.298.054.422-.018l.995-.574c.125-.072.139-.182.031-.244"/><path d="m461.13048 117.633-1.056-.609c-.108-.063-.297-.055-.422.017l-.995.575c-.125.072-.139.181-.03.243l1.055.61c.108.062.297.054.422-.018l.995-.574c.125-.072.139-.181.031-.244"/><path d="m463.71848 119.127-1.056-.609c-.108-.063-.297-.055-.422.017l-.995.575c-.125.072-.139.181-.03.243l1.055.61c.108.062.297.055.422-.018l.995-.574c.125-.072.139-.181.031-.244"/><path d="m466.30648 120.621-1.056-.609c-.108-.063-.297-.055-.422.017l-.995.575c-.125.072-.139.181-.03.244l1.055.609c.108.063.297.055.422-.017l.995-.575c.125-.072.139-.181.031-.244"/><path d="m468.89448 122.116-1.056-.61c-.108-.062-.297-.055-.422.018l-.995.574c-.125.072-.139.181-.031.244l1.056.609c.108.063.297.055.422-.017l.995-.575c.125-.072.139-.181.031-.243"/><path d="m471.48248 123.61-1.056-.61c-.108-.062-.297-.054-.422.018l-.995.574c-.125.072-.139.181-.031.244l1.056.609c.108.063.297.055.422-.017l.995-.575c.125-.072.139-.181.031-.243"/><path d="m471.61348 126.522-1.055-.609c-.109-.063-.298-.055-.423.017l-.995.575c-.125.072-.138.181-.03.243l1.056.61c.108.062.297.054.422-.018l.995-.574c.125-.072.138-.181.03-.244"/><path d="m474.20148 128.016-1.055-.609c-.109-.063-.298-.055-.423.017l-.995.575c-.125.072-.138.181-.03.243l1.056.61c.108.062.297.055.422-.018l.995-.574c.125-.072.138-.181.03-.244"/><path d="m476.78948 129.51-1.056-.609c-.108-.063-.297-.055-.422.017l-.995.575c-.125.072-.138.181-.03.244l1.056.609c.108.063.297.055.422-.017l.995-.575c.125-.072.138-.181.03-.244"/><path d="m479.37748 131.005-1.056-.61c-.108-.062-.297-.055-.422.018l-.995.574c-.125.072-.138.181-.03.244l1.056.609c.108.063.297.055.422-.017l.995-.575c.125-.072.138-.181.03-.243"/><path d="m474.07048 125.104-1.056-.61c-.108-.062-.297-.054-.422.018l-.995.574c-.125.073-.139.182-.031.244l1.056.61c.108.062.297.054.422-.018l.995-.574c.125-.073.139-.182.031-.244"/><path d="m476.65748 126.598-1.055-.609c-.108-.063-.297-.055-.422.017l-.995.575c-.125.072-.139.181-.031.243l1.056.61c.108.062.297.054.422-.018l.995-.574c.125-.072.139-.181.03-.244"/><path d="m479.24548 128.092-1.055-.609c-.108-.063-.297-.055-.422.017l-.995.575c-.125.072-.139.181-.031.243l1.056.61c.108.062.297.055.422-.018l.995-.574c.125-.072.139-.181.03-.244"/><path d="m461.71648 158.203 12.645 1.643 2.141-3.012 1.232-11.013-.958-7.769-2.415-4.082-2.947-1.643-8.74 7.393z"/></g><path d="m387.55048 85.641 86.811 50.121-122.57 70.766-86.812-50.121c-1.353-.781-1.184-2.145.379-3.047l116.913-67.4998c1.562-.9024 3.925-1 5.279-.2192" fill="#fff"/><path d="m473.29648 135.762-86.013-49.66c-1.183-.6821-3.357-.5821-4.746.2191l-116.913 67.4999c-.642.371-1.026.843-1.026 1.263 0 .404.352.692.647.862l86.545 49.967zm-88.045-51.1831c.953 0 1.867.1981 2.565.6012l87.61 50.5819-123.636 71.381-.266-.153-86.812-50.121c-.76-.44-1.179-1.073-1.179-1.785 0-.817.568-1.614 1.558-2.186l116.913-67.4992c.941-.5437 2.121-.8199 3.247-.8199" fill="#1a162c"/><path d="m270.86648 157.291-.064 19.148 27.323-2.942 55.463 32.042 81.072-46.744 35.251-3.433c3.011-8.213.567-17.219.567-17.219l-81.873-47.3c-1.353-.7809-3.716-.6828-5.279.2191l-111.232 64.1289c-1.036.598-1.228 2.1-1.228 2.1" fill="#00afe6"/><path d="m470.01648 138.491-81.677-47.1871c-1.183-.6828-3.357-.582-4.747.218l-111.232 64.1301c-.722.418-.931 1.492-.963 1.68l-.06 18.514 26.904-2.897 55.347 31.975 80.905-46.648 35.03-3.411c2.508-7.195.822-15.007.493-16.374zm-83.709-48.7109c.953 0 1.866.1988 2.565.6019l82.063 47.41.057.212c.102.374 2.453 9.265-.581 17.541l-.115.315-35.47 3.454-81.238 46.84-.266-.154-55.313-31.955-27.741 2.987.069-19.809c.009-.072.241-1.771 1.491-2.493l111.232-64.13c.941-.543 2.12-.8199 3.247-.8199" fill="#1a162c"/><path d="m385.36448 90.3871c-.729.1059-1.442.3309-2.038.675l-111.232 64.1289c-1.036.598-1.228 2.1-1.228 2.1l-.064 19.148 27.323-2.942 18.081 10.445h69.158z" fill="#1a162c"/><path d="m265.35748 153.36 116.913-67.4998c1.562-.9024 3.926-1 5.279-.2192l84.344 48.694c1.197.691 2.071 1.834 2.392 3.179.769 3.229 1.727 9.813-.392 17.951-.249.956-1.344 1.419-2.199.925l-84.285-48.661c-1.353-.781-3.716-.683-5.279.219l-116.913 67.5c-1.562.902-2.318 6.005-.964 6.787l.035.019c-.686-.788-.362-1.845.929-2.591l116.913-67.5c1.563-.902 3.926-1 5.279-.219l79.755 46.047 6.87 4.074s5.069-3.348 5.069-15.259-2.997-13.319-4.742-15.259l-86.812-50.1208c-1.353-.7813-3.717-.6832-5.279.2187l-116.913 67.5001c-1.086.627-2.182 5.531-1.122 6.557.165-.449-.171-1.381 1.122-2.342" fill="#00afe6"/><path d="m474.02348 131.966-86.741-50.0789c-1.183-.6832-3.357-.5832-4.746.2188l-116.912 67.5001c-.34.196-1.001 1.684-1.223 3.48-.022.179-.038.344-.048.499.17-.216.394-.436.686-.653l.052-.034 116.912-67.4992c1.738-1.0039 4.289-1.0988 5.812-.2187l84.344 48.6939c1.331.768 2.295 2.05 2.644 3.517.776 3.255 1.756 9.948-.394 18.208-.162.62-.594 1.117-1.186 1.365-.588.246-1.244.205-1.796-.113l-84.284-48.66c-1.183-.683-3.358-.582-4.747.218l-116.913 67.5c-.7.405-1.341 2.246-1.396 3.952.234-.24.524-.463.864-.659l116.912-67.5c1.737-1.004 4.291-1.099 5.813-.219l79.754 46.046 6.559 3.89c.988-.869 4.582-4.714 4.582-14.613 0-10.302-2.272-12.559-3.931-14.207-.216-.215-.423-.421-.617-.633zm-88.773-51.6019c.953 0 1.867.198 2.565.6007l86.886 50.1632.057.063c.197.219.41.431.633.652 1.792 1.781 4.245 4.218 4.245 14.963 0 12.059-5.092 15.56-5.309 15.704l-.278.183-7.157-4.244-79.749-46.044c-1.183-.683-3.358-.581-4.747.219l-116.913 67.5c-.573.332-.939.743-1.004 1.129-.037.228.033.447.211.651l1.952 2.24-2.609-1.423c-.847-.487-1.015-1.692-1.015-2.621-.001-1.66.6-4.343 1.933-5.113l116.912-67.5c1.736-1.002 4.289-1.098 5.813-.218l84.284 48.659c.261.152.572.171.853.053.282-.118.488-.355.565-.65 2.092-8.037 1.141-14.535.389-17.694-.282-1.183-1.062-2.219-2.141-2.841l-84.344-48.694c-1.183-.6821-3.357-.5821-4.746.2191l-116.885 67.4839c-.753.57-.79 1.074-.822 1.519-.014.195-.028.38-.094.562l-.284.768-.587-.569c-.67-.65-.652-2.06-.52-3.13.175-1.412.785-3.716 1.747-4.272l116.912-67.499c.941-.543 2.121-.8199 3.247-.8199" fill="#1a162c"/><path d="m385.36448 107.207c-1.017.011-2.08.256-2.916.738l-116.913 67.5c-1.562.902-2.318 6.005-.965 6.786l.036.019c-.686-.787-.363-1.844.929-2.59l116.913-67.5c.836-.482 1.899-.727 2.916-.738z" fill="#1a162c"/><path d="m382.58848 81.6422-116.913 67.4988c-1.086.627-2.253 4.45-1.194 5.476.166-.45.558-.893 1.194-1.261l116.913-67.499c.797-.4609 1.802-.709 2.776-.7398v-4.2152c-.974.032-1.979.2789-2.776.7402" fill="#1a162c"/><path d="m383.90748 106.964.245.782c-1.233.385-2.424.907-3.54 1.551l-108.569 62.683-.409-.709 108.568-62.683c1.168-.674 2.415-1.221 3.705-1.624" fill="#00afe6"/><path d="m383.95748 102.184.145.469c-1.241.387-2.443.913-3.572 1.566l-96.693 55.825-.247-.425 96.694-55.826c1.161-.671 2.396-1.212 3.673-1.609" fill="#00afe6"/><path d="m383.95748 98.259.145.4691c-1.241.3867-2.443.9141-3.572 1.5659l-100.939 58.277-.246-.425 100.939-58.278c1.161-.67 2.396-1.211 3.673-1.609" fill="#00afe6"/><path d="m383.95648 94.4172.147.4687c-1.244.3891-2.446.9161-3.573 1.5661l-104.568 60.373-.246-.426 104.568-60.372c1.158-.6688 2.393-1.2098 3.672-1.6098" fill="#00afe6"/><path d="m384.90948 102.111c1.188 0 2.36.314 3.389.908l82.673 47.783-.307.532-82.673-47.783c-.935-.54-2.001-.826-3.082-.826z" fill="#1a162c"/><path d="m384.90948 98.1859c1.188 0 2.36.3153 3.389.909l83.931 48.5671-.308.531-83.93-48.5668c-.935-.5403-2.001-.825-3.082-.825z" fill="#1a162c"/><path d="m384.90948 94.3449c1.188 0 2.36.3141 3.389.909l83.931 48.5661-.308.531-83.93-48.5658c-.935-.5403-2.001-.8262-3.082-.8262z" fill="#1a162c"/><path d="m387.22248 111.944 86.712 50.064c.044.025.044.089 0 .115l-119.639 69.074c-1.753 1.012-3.912 1.012-5.664 0l-83.98-48.486c-1.353-.781-1.183-2.146.379-3.048l116.913-67.5c1.562-.902 3.926-1 5.279-.219" fill="#fff"/><path d="m386.95648 112.405c-1.183-.681-3.358-.583-4.747.22l-116.913 67.499c-.642.371-1.026.843-1.026 1.263 0 .404.353.692.648.863l83.98 48.485c1.582.914 3.548.914 5.13 0l118.941-68.67zm-2.032-1.523c.953 0 1.867.198 2.564.601l86.978 50.217.034.365c0 .214-.115.413-.3.519l-119.639 69.074c-1.911 1.103-4.286 1.103-6.196 0l-83.98-48.486c-.761-.439-1.18-1.073-1.18-1.785 0-.817.569-1.614 1.558-2.185l116.913-67.5c.941-.543 2.122-.82 3.248-.82" fill="#1a162c"/><path d="m375.05248 121.499-93.821 54.169c5.177 2.989 5.177 7.835 0 10.824l61.233 35.353c5.177-2.989 13.571-2.989 18.748 0l93.792-54.151c-5.177-2.989-5.177-7.835 0-10.824l-61.425-35.464c-5.114 2.94-13.343 2.968-18.527.093" fill="#00afe6"/><g fill="#1a162c"><path d="m453.97148 156.888-60.396-34.869c-5.217 2.844-13.212 2.884-18.514.09l-92.797 53.577c2.189 1.484 3.382 3.375 3.382 5.394 0 2.018-1.193 3.909-3.382 5.394l60.204 34.758c5.244-2.867 13.497-2.867 18.741 0l92.762-53.557c-2.189-1.484-3.382-3.375-3.382-5.393s1.193-3.91 3.382-5.394zm-60.391-36.097.266.154 62.223 35.925-.798.461c-2.333 1.346-3.617 3.105-3.617 4.951s1.284 3.604 3.617 4.951l.798.461-94.857 54.766-.266-.154c-5.021-2.9-13.193-2.9-18.216 0l-.266.154-.267-.154-62.031-35.814.798-.461c2.333-1.347 3.617-3.105 3.617-4.951 0-1.847-1.284-3.605-3.617-4.951l-.798-.462 94.881-54.78.264.147c5.009 2.778 13.086 2.737 18.003-.09z"/><path d="m284.71848 179.256c.716-1.691.421-3.492-.886-5.09l-2.601 1.502c1.778 1.026 2.93 2.274 3.487 3.588"/><path d="m284.54448 177.866c.117-1.02-.17-2.039-.851-3.005l-1.43.826c.949.647 1.719 1.383 2.281 2.179zm-.586-4.387.286.35c1.424 1.74 1.767 3.742.964 5.635l-.491 1.158-.49-1.158c-.531-1.256-1.659-2.41-3.263-3.335l-.798-.462z"/><path d="m451.51748 160.458c.556-1.314 1.709-2.562 3.487-3.588l-2.601-1.502c-1.307 1.598-1.603 3.399-.886 5.09"/><path d="m453.97248 156.889-1.429-.825c-.682.966-.969 1.983-.853 3.003.564-.795 1.333-1.531 2.282-2.178zm-1.695-2.208 3.793 2.189-.799.461c-1.603.925-2.732 2.078-3.264 3.335l-.49 1.159-.491-1.159c-.802-1.894-.459-3.895.965-5.635z"/><path d="m452.40348 165.549-91.191 52.649c-5.177-2.989-13.571-2.989-18.748 0l-58.632-33.851c-.634.775-1.491 1.504-2.601 2.145l61.233 35.353c5.177-2.989 13.571-2.989 18.748 0l93.792-54.151c-1.11-.641-1.967-1.37-2.601-2.145"/><path d="m453.97248 167.675c-.642-.44-1.206-.923-1.684-1.445l-91.076 52.583-.266-.153c-5.021-2.9-13.193-2.9-18.216 0l-.266.153-58.518-33.785c-.478.522-1.041 1.005-1.684 1.444l60.206 34.76c5.241-2.867 13.497-2.867 18.74 0zm-1.443-2.813.286.35c.621.759 1.447 1.439 2.455 2.021l.8.461-94.858 54.766-.266-.154c-5.024-2.899-13.196-2.899-18.216 0l-.266.154-.267-.154-62.031-35.814.798-.461c1.008-.582 1.834-1.262 2.456-2.021l.286-.351.392.226 58.37 33.7c5.244-2.865 13.497-2.866 18.74 0z"/></g><path d="m360.81148 218.63h.82v2.563h-.82z" fill="#00afe6"/><path d="m286.39948 186.693h.819v2.564h-.819z" fill="#00afe6"/><path d="m449.25048 167.859h.82v2.563h-.82z" fill="#00afe6"/><path d="m342.08348 218.63h.82v2.563h-.82z" fill="#00afe6"/><path d="m439.28348 128.123 14.217-8.084c4.097-2.33 7.248-6.024 8.891-10.442 2.243-6.029 6.559-11.0638 12.174-14.2029l8.537-4.8261c.644-.3602.393-1.341-.345-1.3469l-14.214-.1199c-.391-.0032-.725-.2821-.799-.666l-1.792-9.377c-.091-.4773-.62-.7293-1.047-.4992l-8.723 4.534c-5.916 3.1808-10.439 8.4449-12.692 14.773l-.284.7969c-1.675 4.7041-5.043 8.6161-9.446 10.9711l-13.918 7.445z" fill="#1a162c"/><path d="m439.28348 127.51 13.953-7.934c3.987-2.267 7.061-5.876 8.656-10.164 2.285-6.142 6.693-11.285 12.412-14.4831l8.536-4.8238c.106-.0602.108-.1481.092-.2121-.016-.0629-.061-.1391-.18-.1399l-14.214-.1191c-.642-.0059-1.196-.468-1.317-1.0988l-1.792-9.377c-.016-.0801-.072-.1184-.103-.1332-.032-.016-.097-.0352-.169.0039l-8.729 4.5371c-5.804 3.1199-10.223 8.2641-12.436 14.4781l-.284.7969c-1.723 4.84-5.167 8.839-9.697 11.263l-13.066 6.99zm25.96-49.5702c.183 0 .367.0411.541.1231.363.173.616.4992.691.8949l1.792 9.3774c.026.1339.143.232.28.2328l14.214.1191c.577.0059 1.06.3848 1.203.943.143.5578-.099 1.1219-.603 1.4031l-8.534 4.825c-5.502 3.075-9.74 8.0198-11.936 13.9248-1.683 4.522-4.925 8.329-9.128 10.72l-14.48 8.233-20.544-11.671 14.77-7.901c4.296-2.298 7.562-6.09 9.196-10.68l.283-.7961c2.302-6.4649 6.898-11.8141 12.942-15.0629l8.729-4.5379c.182-.098.383-.1473.584-.1473" fill="#1a162c"/><path d="m439.83848 128.767 14.217-8.083c4.098-2.33 7.248-6.025 8.892-10.443 2.243-6.029 6.558-11.0629 12.173-14.2019l8.537-4.8262c.645-.3609.394-1.3418-.345-1.3481l-14.214-.1187c-.391-.0039-.725-.2832-.798-.6672l-1.793-9.3758c-.091-.4781-.619-.7293-1.047-.4992l-8.723 4.534c-5.915 3.1801-10.439 8.4453-12.691 14.7723l-.284.7968c-1.675 4.704-5.043 8.616-9.446 10.972l-13.919 7.445z" fill="#fff"/><path d="m439.83848 128.154 13.954-7.934c3.986-2.266 7.06-5.875 8.656-10.164 2.285-6.142 6.693-11.2849 12.412-14.4822l8.535-4.825c.106-.059.108-.1468.092-.2097-.016-.0641-.06-.1403-.18-.1411l-14.213-.1199c-.643-.0051-1.197-.4672-1.318-1.098l-1.792-9.3781c-.015-.0801-.071-.118-.103-.1329-.033-.0152-.097-.0351-.169.0039l-8.729 4.5379c-5.804 3.12-10.223 8.2629-12.436 14.4782l-.283.7968c-1.723 4.8401-5.167 8.8391-9.697 11.2631l-13.067 6.989zm25.96-49.57c.183 0 .367.041.54.123.365.1731.617.4989.692.895l1.793 9.3781c.025.134.143.232.28.232l14.214.1199c.576.0059 1.059.384 1.202.9418.143.559-.099 1.1231-.601 1.4043l-8.536 4.8239c-5.501 3.0761-9.739 8.021-11.936 13.925-1.682 4.523-4.924 8.33-9.128 10.72l-14.48 8.233-20.543-11.671 14.769-7.9c4.296-2.298 7.562-6.091 9.196-10.6801l.284-.7969c2.302-6.4648 6.898-11.814 12.941-15.0629l8.729-4.5382c.183-.0977.383-.1469.584-.1469" fill="#1a162c"/><path d="m467.25148 96.1148 2.11 1.2614-.547.9136-2.109-1.2617zm-4.219-2.5238 2.11 1.2621-.547.9129-2.109-1.2609zm-4.219-2.5238 2.11 1.2617-.547.9141-2.109-1.2621zm-4.218-2.5242 2.11 1.2621-.548.914-2.109-1.2632z" fill="#1a162c"/><path d="m434.31648 110.34-8.136 4.29 19.114 11.035.959-.484 7.802-4.436c4.098-2.33 7.248-6.024 8.892-10.442l-19.185-10.935c-1.675 4.705-5.043 8.616-9.446 10.972" fill="#00afe6"/><path d="m462.28548 110.539-18.243-10.397c-1.787 4.571-5.132 8.344-9.475 10.667l-.003.002-7.282 3.84 18.029 10.409.702-.354 7.779-4.424c3.855-2.193 6.857-5.641 8.493-9.743zm-18.811-11.948 20.13 11.473-.158.425c-1.682 4.521-4.924 8.328-9.128 10.719l-7.801 4.436-1.24.626-20.199-11.661 8.988-4.74c4.295-2.298 7.56-6.091 9.194-10.6792z" fill="#1a162c"/><path d="m404.39248 116.987 2.31-1.121c2.558-1.455 4.526-3.762 5.552-6.52 1.4-3.765 4.095-6.908 7.601-8.868l11.443-6.3971c.402-.225.245-.8379-.216-.8411l-8.875-.075c-.244-.0019-.453-.1757-.498-.416l-1.119-5.8547c-.057-.298-.387-.455-.655-.3113l-11.558 6.2141c-3.694 1.9863-6.518 5.273-7.925 9.2241l-.177.497c-1.046 2.938-3.149 5.38-5.898 6.851l-1.656.815z" fill="#1a162c"/><path d="m430.76448 93.7691-8.561-.0711c-.497-.0058-.925-.3621-1.017-.85l-1.098-5.7421-11.459 6.1601c-3.585 1.9281-6.31 5.1-7.675 8.934l-.177.497c-1.093 3.069-3.277 5.606-6.149 7.142l-.782.385 10.569 6.16 2.054-.998c2.417-1.375 4.306-3.592 5.286-6.226 1.443-3.88 4.227-7.128 7.84-9.147zm-10.615-7.7722c.144 0 .288.032.421.0953.282.1328.484.3969.543.7027l1.119 5.8539 8.855.0582c.452.0039.831.3012.943.7391s-.078.8801-.472 1.1l-11.443 6.3969c-3.393 1.895-6.007 4.945-7.362 8.589-1.067 2.867-3.123 5.281-5.788 6.797l-2.596 1.262-12.774-7.446 2.547-1.254c2.622-1.403 4.628-3.732 5.631-6.551l.177-.497c1.454-4.0828 4.357-7.4621 8.175-9.5149l11.559-6.214c.144-.077.304-.1172.465-.1172" fill="#1a162c"/><path d="m404.81948 117.033 2.31-1.121c2.559-1.455 4.526-3.762 5.552-6.521 1.401-3.764 4.095-6.908 7.601-8.868l11.443-6.396c.402-.225.246-.8379-.215-.8418l-8.876-.0743c-.244-.0031-.452-.1769-.498-.416l-1.119-5.8551c-.057-.2976-.387-.4546-.654-.3117l-11.559 6.2149c-3.694 1.9859-6.518 5.273-7.925 9.224l-.177.497c-1.046 2.937-3.149 5.38-5.898 6.851l-1.656.815z" fill="#fff"/><path d="m431.19148 93.8148-8.561-.0707c-.497-.0062-.924-.3632-1.017-.85l-1.098-5.7421-11.459 6.1601c-3.585 1.927-6.31 5.1-7.675 8.9329l-.177.497c-1.093 3.07-3.277 5.606-6.148 7.142l-.783.385 10.569 6.161 2.054-.998c2.418-1.376 4.306-3.592 5.286-6.226 1.444-3.88 4.227-7.129 7.84-9.147zm-10.615-7.7718c.145 0 .289.0308.421.0941.282.134.485.3969.543.7039l1.119 5.8539 8.855.0571c.452.0039.831.3011.943.739s-.078.8801-.472 1.1012l-11.443 6.3958c-3.392 1.896-6.007 4.946-7.361 8.589-1.068 2.868-3.123 5.282-5.789 6.798l-2.596 1.261-12.774-7.445 2.547-1.254c2.622-1.403 4.628-3.733 5.632-6.552l.176-.497c1.454-4.0829 4.357-7.4618 8.175-9.5142l11.559-6.2136c.144-.0782.305-.1172.465-.1172" fill="#1a162c"/><path d="m406.93548 94.032 12.127 7.243.004.001c.394-.267.798-.519 1.216-.753l11.443-6.396c.402-.225.246-.8379-.215-.8418l-8.876-.0743c-.244-.0031-.452-.1769-.498-.416l-1.119-5.8551c-.057-.2976-.387-.4546-.654-.3117l-11.559 6.2149c-.655.3519-1.272.7582-1.869 1.189" fill="#00afe6"/><path d="m431.19148 93.8148-8.561-.0707c-.497-.0062-.924-.3632-1.017-.85l-1.098-5.7421-11.459 6.1601c-.369.1981-.741.4219-1.138.6859l11.131 6.649c.327-.212.653-.409.973-.588zm-10.615-7.7718c.145 0 .289.0308.421.0941.282.134.485.3969.543.7039l1.119 5.8539 8.855.0571c.452.0039.831.3011.943.739s-.078.8801-.472 1.1012l-11.443 6.3958c-.385.216-.781.46-1.177.728l-.135.092h-.311l-.13-.076-12.822-7.659.657-.473c.704-.5078 1.317-.898 1.928-1.2262l11.559-6.2136c.144-.0782.305-.1172.465-.1172" fill="#1a162c"/><path d="m419.05648 95.702 2.11 1.2609-.548.9141-2.109-1.2622zm-4.219-2.5239 2.109 1.2617-.547.9141-2.109-1.2617z" fill="#1a162c"/><path d="m457.90548 143.716 2.31-1.121c2.558-1.455 4.526-3.762 5.552-6.52 1.4-3.765 4.095-6.908 7.601-8.868l2.199-1.218c.402-.225.245-.837-.216-.841l-8.875-.075c-.244-.002-.453-.176-.499-.416l.403-4.991c-.057-.298-.387-.455-.654-.312l-2.315 1.035c-3.693 1.986-6.518 5.273-7.924 9.224l-.178.498c-1.046 2.937-3.148 5.379-5.898 6.85l-1.656.815z" fill="#1a162c"/><path d="m475.02948 125.678-8.558-.072c-.495-.003-.923-.36-1.017-.849l-.013-.07.386-4.794-2.198.982c-3.55 1.91-6.276 5.083-7.641 8.917l-.177.497c-1.092 3.069-3.276 5.605-6.149 7.142l-.783.385 9.049 5.297 2.054-.997c2.418-1.376 4.306-3.593 5.285-6.226 1.444-3.88 4.228-7.129 7.841-9.148zm-9.099-6.912c.144 0 .293.032.43.097.281.134.485.397.543.703l.013.071-.396 4.92 8.835.058c.452.004.831.3.943.738.113.438-.077.88-.471 1.101l-2.201 1.219c-3.39 1.895-6.005 4.945-7.36 8.588-1.067 2.868-3.123 5.282-5.788 6.797l-2.596 1.262-11.25-6.584 2.544-1.253c2.622-1.403 4.628-3.732 5.632-6.551l.177-.497c1.454-4.083 4.356-7.463 8.174-9.515l2.35-1.052c.122-.067.269-.102.421-.102" fill="#1a162c"/><path d="m458.40348 143.716 2.31-1.121c2.559-1.455 4.526-3.762 5.552-6.52 1.401-3.765 4.095-6.908 7.601-8.868l2.199-1.218c.402-.225.246-.837-.215-.841l-8.876-.075c-.244-.002-.453-.176-.498-.416l.402-4.991c-.057-.298-.387-.455-.654-.312l-2.314 1.035c-3.694 1.986-6.518 5.273-7.925 9.224l-.177.498c-1.046 2.937-3.149 5.379-5.898 6.85l-1.656.815z" fill="#fff"/><path d="m475.52748 125.678-8.557-.072c-.496-.003-.925-.361-1.018-.85l-.013-.07.387-4.793-2.199.982c-3.55 1.91-6.275 5.083-7.64 8.917l-.177.497c-1.093 3.069-3.277 5.605-6.149 7.142l-.784.385 9.049 5.297 2.054-.997c2.418-1.376 4.306-3.593 5.286-6.226 1.443-3.88 4.228-7.129 7.841-9.148zm-9.099-6.912c.144 0 .293.032.43.097.282.134.485.397.543.703l.014.071-.397 4.921 8.836.057c.451.004.83.3.943.738.112.438-.077.88-.472 1.101l-2.201 1.219c-3.39 1.895-6.004 4.945-7.359 8.588-1.067 2.868-3.123 5.282-5.788 6.797l-2.597 1.262-11.25-6.584 2.544-1.253c2.622-1.403 4.628-3.732 5.632-6.551l.178-.497c1.453-4.083 4.356-7.463 8.174-9.515l2.349-1.052c.122-.067.269-.102.421-.102" fill="#1a162c"/><path d="m460.71348 142.595c2.559-1.455 4.526-3.762 5.552-6.52.219-.587.479-1.152.758-1.707l-.007-.012-10.42-6.226c-.226.483-.431.977-.611 1.483l-.177.498c-1.046 2.937-3.149 5.379-5.898 6.85l-1.656.815 10.149 5.94z" fill="#00afe6"/><path d="m466.33248 134.567-9.494-5.672c-.128.3-.245.6-.351.897l-.177.497c-1.093 3.069-3.277 5.605-6.149 7.142l-.784.385 9.049 5.297 2.039-.989c2.441-1.393 4.323-3.607 5.301-6.234.156-.42.34-.849.566-1.323zm-9.97-7.197 11.055 6.605.199.374-.117.259c-.312.619-.546 1.145-.734 1.653-1.067 2.868-3.123 5.282-5.788 6.797l-.031.016-2.566 1.246-11.25-6.584 2.544-1.253c2.622-1.403 4.628-3.732 5.632-6.551l.178-.497c.18-.508.392-1.022.629-1.531z" fill="#1a162c"/><path d="m461.28048 135.889 2.109 1.262-.546.913-2.11-1.261zm-4.219-2.524 2.11 1.262-.547.914-2.109-1.262z" fill="#1a162c"/><path d="m307.61748 145.682s-3.38-1.649-2.971-4.811l-8.224 4.585s.669 3.422 3.859 4.373z" fill="#1a162c"/><path d="m306.56848 145.663c-.921-.652-2.31-1.943-2.474-3.874l-7.053 3.932c.253.824 1.062 2.79 3.181 3.53zm-1.257-5.772-.136 1.049c-.355 2.737 2.553 4.203 2.677 4.263l.904.446-8.41 4.755-.217-.064c-3.459-1.032-4.2-4.629-4.23-4.781l-.074-.38z" fill="#00afe6"/><path d="m337.32248 133.466s-5.527-1.123-7.112-7.854l-14.344 8.282s.044 5.611 6.334 8.472z" fill="#1a162c"/><path d="m336.03548 133.605c-1.719-.705-4.835-2.58-6.164-7.182l-13.454 7.768c.109 1.147.838 5.215 5.755 7.574zm-5.471-8.812.164.697c1.49 6.326 6.648 7.444 6.699 7.454l1.361.276-16.556 9.745-.253-.114c-6.523-2.968-6.644-8.71-6.646-8.953l-.003-.31z" fill="#00afe6"/><path d="m315.75148 146.025s-2.517-.121-3.357-2.893l-7.476 4.242s.636 2.434 3.216 3.191z" fill="#00afe6"/><path d="m314.39348 146.214c-.775-.336-1.709-1-2.282-2.309l-6.541 3.711c.264.619.959 1.83 2.497 2.368zm-1.683-3.874.193.637c.716 2.362 2.789 2.511 2.877 2.516l1.728.103-9.302 5.545-.222-.065c-2.837-.832-3.553-3.457-3.582-3.568l-.103-.396z" fill="#00afe6"/><path d="m319.41148 143.906s-2.517-.122-3.357-2.894l-7.475 4.242s.635 2.435 3.215 3.191z" fill="#1a162c"/><path d="m318.05448 144.094c-.775-.336-1.709-1-2.282-2.309l-6.541 3.711c.264.62.959 1.83 2.497 2.369zm-1.683-3.874.193.638c.715 2.361 2.789 2.511 2.877 2.515l1.728.104-9.302 5.544-.222-.065c-2.837-.831-3.553-3.457-3.582-3.568l-.103-.396z" fill="#00afe6"/><path d="m297.63248 156.498s-3.222.129-4.792-3.545c-1.571-3.674-6.699-4.105-6.699-4.105l-5.953 3.434s5.279 1.404 6.47 4.609c1.19 3.205 4.845 3.145 4.845 3.145z" fill="#1a162c"/><path d="m296.08748 156.775c-1.18-.379-2.756-1.315-3.737-3.613-1.276-2.984-5.249-3.655-6.095-3.765l-4.768 2.751c1.699.632 4.749 2.078 5.67 4.557.935 2.517 3.579 2.772 4.208 2.796zm-10.067-8.472.166.014c.222.019 5.467.503 7.143 4.427 1.407 3.294 4.265 3.222 4.282 3.222l2.158-.086-8.12 4.686-.137.003c-.027-.002-4.045.028-5.353-3.492-1.08-2.907-6.058-4.267-6.108-4.28l-1.245-.333z" fill="#00afe6"/><path d="m364.44148 112.941s-3.113-2.118-2.704-5.279l-16.404 9.638s.669 3.422 3.859 4.373z" fill="#1a162c"/><path d="m363.49948 112.867c-.827-.742-2.172-2.242-2.319-4.26l-15.23 8.949c.249.819 1.056 2.795 3.181 3.538zm-1.094-6.215-.14 1.078c-.363 2.804 2.447 4.752 2.475 4.771l.705.479-16.187 9.268-.218-.064c-3.459-1.031-4.2-4.629-4.23-4.781l-.072-.371z" fill="#00afe6"/><g transform="matrix(-2.1258915 0 0 2.1258915 1251.8139 -161.96899)"><path d="m403.87648 159.659 3.277.298c.005 0 .011.002.016.005l5.856 3.381c.682.394 1.82.375 2.541-.041l1.203-.695.396.229c.683.394 1.82.375 2.542-.041l1.203-.695.396.229c.51.295 1.276.359 1.932.197.006-.001.012-.001.018.001l4.288 1.27-.102.483c-.909.546.387.76.561.806l4.121 1.116c.025.007.049-.012.049-.037v-3.425c0-.255-.159-.506-.488-.696l-2.232-1.289c-.016-.009-.023-.027-.018-.045l.268-.866c.005-.015.017-.026.033-.027l1.184-.146c.019-.002.034-.015.034-.035-.001-.346-.006-3.477-.014-3.53l-.001-.005c-.071-.428-.6-.785-1.363-.866-1.076-.114-2.118-.3-3.105-.555l-2.339-.603c-2.224-.573-4.592-.959-7.037-1.148-2.31-.178-4.423-.776-6.039-1.708l-.234-.135-5.592 3.229c-.867.5-1.346 1.165-1.385 1.853l-.005 3.452c0 .02.016.037.036.039" fill="#00afe6"/><g fill="#1a162c"><path d="m430.40948 156.194c-.073-.168-.355-.372-.889-.429-1.099-.117-2.169-.308-3.182-.569l-2.339-.603c-2.194-.565-4.531-.947-6.945-1.133-2.388-.184-4.541-.792-6.231-1.759l-5.327 3.075c-.692.4-1.09.905-1.119 1.422l-.004 2.971 2.946.268.117.064 5.855 3.38c.515.298 1.455.279 2.009-.04l1.469-.849.663.383c.515.298 1.455.278 2.008-.041l1.469-.849.663.383c.378.218.996.275 1.539.141l.144-.035.161.044 4.75 1.407-.231 1.099c.034.008.07.016.11.025l.095.023 3.5.947v-2.779c0-.049-.058-.14-.221-.235l-2.604-1.503.112-.454.371-1.197 1.123-.155c-.004-1.738-.008-2.746-.012-3.002zm-19.586-5.723.5.288c1.535.887 3.6 1.469 5.813 1.639 2.476.191 4.874.583 7.129 1.163l2.338.603c.963.248 1.982.43 3.029.541.999.107 1.718.621 1.832 1.31.012.07.016.096.022 3.391l.002.7-.502.094-.868.106-.058.185 1.892 1.092c.478.277.753.698.753 1.156v3.689l-.434.351-.288-.063-4.12-1.116c-.441-.099-1.169-.261-1.265-.853-.036-.223.028-.43.191-.618l-3.56-1.055c-.778.159-1.605.054-2.19-.283l-.13-.076-.936.541c-.882.509-2.233.527-3.074.041l-.13-.075-.936.541c-.884.509-2.233.527-3.075.041l-5.763-3.328-3.652-.326-.035-.53.004-3.453c.052-.917.638-1.728 1.651-2.313z"/><path d="m410.81648 151.298c0-.094-.102-.152-.184-.105l-5.407 3.122c-.866.5-1.346 1.165-1.385 1.853l-.004 3.452c0 .02.015.037.035.039l.101.009h6.721c.068 0 .123-.055.123-.122z"/><path d="m410.28348 159.135v-7.126l-4.792 2.767c-.692.4-1.09.905-1.118 1.422l-.004 2.939zm.411-8.491c.113 0 .226.029.327.088.202.117.327.334.327.567v8.247c0 .361-.294.654-.655.654l-6.871-.011-.484-.044-.035-.525.005-3.453c.052-.917.637-1.728 1.65-2.313l5.408-3.123c.101-.058.214-.087.328-.087"/></g><path d="m416.76948 166.1.396.228c.683.394 1.82.376 2.542-.04l1.203-.695.396.229c.682.394 1.82.375 2.541-.041l1.203-.695 3.708 2.141c.682.394 1.82.376 2.542-.041l.314-.182c.722-.416.754-1.073.071-1.467l-9.09-5.248c-.029-.017.001-.046.041-.04l1.652.23c1.189.166 2.395.291 3.611.374l.908.062c.979.067 1.912-.341 2.081-.912l.04-.135c.161-.544-.431-1.043-1.352-1.14-1.076-.115-2.118-.301-3.105-.555l-2.339-.603c-2.224-.573-4.592-.96-7.037-1.148-2.31-.178-4.423-.776-6.039-1.709l-.234-.135-5.592 3.229c-1.198.692-1.669 1.699-1.237 2.644l.076.165c.427.934 1.263 1.778 2.43 2.452l6.526 3.767c.682.394 1.82.376 2.541-.041z" fill="#fff"/><g fill="#1a162c"><path d="m429.02048 160.39c.727 0 1.289-.308 1.357-.538l.04-.135c.006-.019.012-.041-.02-.091-.099-.148-.408-.319-.877-.369-1.099-.116-2.169-.308-3.182-.568l-2.339-.603c-2.192-.566-4.528-.947-6.945-1.133-2.389-.184-4.542-.793-6.231-1.76l-5.327 3.075c-.949.548-1.329 1.281-1.019 1.962l.076.165c.38.83 1.145 1.595 2.213 2.211l6.525 3.768c.517.298 1.456.279 2.009-.041l1.469-.848.663.382c.515.299 1.455.279 2.008-.041l1.469-.848.663.382c.515.298 1.453.279 2.008-.041l1.47-.848 3.975 2.295c.515.298 1.454.279 2.008-.041l.315-.182c.234-.135.296-.262.296-.31 0-.051-.07-.145-.224-.235l-9.473-5.468.278-.85.485.041 1.651.231c1.177.163 2.38.288 3.574.37l.908.062c.06.004.119.006.177.006zm-18.197-6.427.5.289c1.534.886 3.599 1.468 5.813 1.639 2.478.191 4.877.582 7.129 1.163l2.338.603c.963.248 1.982.43 3.029.541.747.079 1.349.384 1.65.837.2.3.256.649.156.985l-.039.134c-.245.823-1.375 1.378-2.629 1.292l-.908-.062c-.919-.063-1.844-.151-2.758-.262l6.848 3.954c.481.278.757.7.757 1.157.001.479-.302.928-.828 1.232l-.315.182c-.883.509-2.233.527-3.074.041l-3.442-1.987-.937.541c-.881.509-2.232.527-3.074.041l-.13-.075-.936.541c-.883.509-2.234.527-3.074.04l-.13-.074-.936.541c-.882.508-2.233.526-3.075.041l-6.525-3.768c-1.26-.728-2.176-1.659-2.649-2.691l-.076-.165c-.545-1.196.025-2.501 1.455-3.327z"/><path d="m422.35148 162.913 2.966 1.712-.533.922-2.966-1.712z"/><path d="m421.42248 158.996 1.878 1.085-.533.922-1.878-1.084z"/><path d="m418.90248 163.819 2.274 1.313-.533.922-2.274-1.313z"/><path d="m415.20748 164.582 1.829 1.057-.533.922-1.829-1.056z"/><path d="m429.93648 161.342h1.065v3.493h-1.065z"/><path d="m424.05348 154.204h1.066v3.493h-1.066z"/><path d="m413.04148 152.216h1.066v3.492h-1.066z"/><path d="m428.54148 155.152h1.065v3.493h-1.065z"/></g></g></g><g fill="#fff"><g transform="matrix(1.1952726 0 0 1.1952726 -411.89054 53.615559)"><path d="m391.98053 6.737035c-.65681 0-1.19137-.534558-1.19137-1.19137 0-.656811.53456-1.19137 1.19137-1.19137.65801 0 1.19257.534559 1.19257 1.19137 0 .656812-.53456 1.19137-1.19257 1.19137zm0-3.369156c-1.20096 0-2.17779.976827-2.17779 2.177786s.97683 2.178985 2.17779 2.178985 2.17898-.978026 2.17898-2.178985-.97802-2.177786-2.17898-2.177786"/><path d="m398.80993 7.80016h-.98521v5.341988h.98521z"/><path d="m400.98892 9.977946h-5.34319v.986416h5.34319z"/></g><g transform="matrix(-1.1952726 0 0 -1.1952726 766.30114 94.111619)"><path d="m391.98053 6.737035c-.65681 0-1.19137-.534558-1.19137-1.19137 0-.656811.53456-1.19137 1.19137-1.19137.65801 0 1.19257.534559 1.19257 1.19137 0 .656812-.53456 1.19137-1.19257 1.19137zm0-3.369156c-1.20096 0-2.17779.976827-2.17779 2.177786s.97683 2.178985 2.17779 2.178985 2.17898-.978026 2.17898-2.178985-.97802-2.177786-2.17898-2.177786"/><path d="m398.80993 7.80016h-.98521v5.341988h.98521z"/><path d="m400.98892 9.977946h-5.34319v.986416h5.34319z"/></g><path d="m18.297003 137.16769c.785067 0 1.424012-.63894 1.424012-1.42402 0-.78506-.638945-1.424-1.424012-1.424-.786501 0-1.425445.63894-1.425445 1.424 0 .78508.638944 1.42402 1.425445 1.42402zm0-4.02706c1.435475 0 2.603053 1.16757 2.603053 2.60304 0 1.43548-1.167578 2.60449-2.603053 2.60449s-2.604475-1.16901-2.604475-2.60449c0-1.43547 1.169-2.60304 2.604475-2.60304" stroke-width="1.19527"/><g transform="matrix(1.1952726 0 0 1.1952726 -92.814101 -41.373657)"><path d="m258.323 80.748323h.98521v5.341988h-.98521z"/><path d="m256.14401 82.926109h5.34319v.986416h-5.34319z"/></g><g transform="matrix(1.1952726 0 0 1.1952726 -184.90527 -53.480685)"><path d="m258.323 80.748323h.98521v5.341988h-.98521z"/><path d="m256.14401 82.926109h5.34319v.986416h-5.34319z"/></g></g></svg>