<svg height="200" viewBox="0 0 110 200.00001" width="110" xmlns="http://www.w3.org/2000/svg"><g transform="matrix(1.3333333 0 0 -1.3333333 -441.4499 225.53321)"><g transform="matrix(.75000002 0 0 -.75000002 76.895145 208.15452)"><g fill="#1a162c"><path d="m425.49585 180.56004-2.32854 1.3433c-.23808.13937-.65617.12195-.93103-.0387l-2.19497-1.26588c-.27679-.15873-.30583-.40067-.0677-.5381l2.32853-1.34525c.24002-.13743.65618-.12.93297.0387l2.19497 1.26782c.27486.15872.30583.40067.0658.5381"/><path d="m430.91555 183.68798-2.32854 1.34524c-.24001.13743-.65617.12001-.93296-.0387l-2.19498-1.26782c-.27486-.15872-.30389-.40067-.0659-.5381l2.32854-1.34331c.23807-.13936.65617-.12194.93102.0387l2.19498 1.26589c.27679.16065.30582.40067.0677.5381"/><path d="m425.2055 186.98431-2.32853 1.34525c-.23808.13743-.65618.12001-.93103-.0387l-2.19498-1.26782c-.27679-.15872-.30582-.40067-.0677-.53811l2.32854-1.3433c.24001-.13937.65617-.12194.93296.0387l2.19498 1.2659c.27485.15872.30582.40067.0659.53809"/><path d="m436.64881 186.9998-2.32853 1.34331c-.23808.13743-.65618.12001-.93103-.0387l-2.19498-1.26782c-.27485-.15872-.30582-.39874-.0677-.53616l2.33048-1.34526c.23807-.13742.65423-.12.93102.0387l2.19498 1.26782c.27485.15872.30582.39873.0659.5381"/><path d="m430.94071 190.29613-2.32854 1.34332c-.24001.13743-.65617.12-.93296-.0387l-2.19498-1.26782c-.27485-.15872-.30389-.39873-.0659-.53615l2.32854-1.34525c.23807-.13744.65617-.12001.93102.0387l2.19498 1.26782c.27679.15872.30583.39873.0677.53809"/><path d="m442.35886 183.70346-2.32854 1.34331c-.24001.13743-.65617.12195-.93103-.0387l-2.19497-1.26589c-.2768-.16065-.30583-.40067-.0677-.5381l2.32853-1.34524c.23808-.13743.65617-.12.93103.0387l2.19498 1.26782c.27679.15872.30582.39874.0677.5381"/><path d="m448.06696 180.40712-2.32853 1.34331c-.23809.13937-.65424.12194-.93103-.0387l-2.19498-1.26589c-.27486-.16065-.30583-.40067-.0659-.53809l2.32854-1.34525c.23808-.13743.65423-.12001.93103.0387l2.19497 1.26783c.27486.15872.30583.39873.0659.53809"/><path d="m442.06851 190.12774-2.32854 1.34524c-.24001.13743-.65617.12002-.93102-.0387l-2.19498-1.26782c-.27679-.15872-.30582-.40067-.0677-.5381l2.32854-1.34526c.23807-.13742.65617-.12.93102.0387l2.19498 1.26782c.27679.15872.30583.40067.0677.5381"/><path d="m447.77662 186.8314-2.32854 1.34525c-.23808.13742-.65424.12001-.93103-.0387l-2.19497-1.26783c-.27486-.15872-.30583-.40067-.0659-.5381l2.32853-1.34524c.23808-.13743.65424-.12001.93103.0387l2.19498 1.26783c.27485.15871.30582.40067.0658.53809"/><path d="m345.12558 233.35759-2.32854 1.34524c-.23808.13743-.65617.12001-.93103-.0387l-2.19497-1.26782c-.2768-.15872-.30584-.39874-.0677-.5381l2.32853-1.34331c.24002-.13743.65617-.12001.93297.0387l2.19497 1.26782c.27486.15872.30389.39874.0658.53617"/><path d="m350.86078 236.66941-2.32854 1.34331c-.24002.13936-.65617.12194-.93296-.0387l-2.19498-1.26589c-.27486-.16066-.30583-.40067-.0658-.5381l2.32853-1.34525c.23808-.13742.65617-.12.93103.0387l2.19498 1.26782c.27679.15872.30582.40067.0677.5381"/><path d="m345.15074 239.96575-2.32854 1.34331c-.23807.13743-.65617.12194-.93102-.0387l-2.19498-1.26588c-.27679-.16066-.30583-.40067-.0677-.5381l2.32854-1.34525c.24001-.13743.65617-.12001.93296.0387l2.19498 1.26782c.27485.15872.30388.39873.0658.5381"/><path d="m356.27854 239.79735-2.32853 1.34525c-.23808.13743-.65618.12-.93103-.0387l-2.19498-1.26782c-.27679-.15872-.30582-.40067-.0677-.5381l2.32854-1.34331c.24001-.13936.65617-.12194.93296.0387l2.19498 1.26589c.27485.15872.30582.40067.0659.5381"/><path d="m350.57044 243.09369-2.32854 1.34525c-.24001.13742-.65617.12-.93296-.0387l-2.19498-1.26782c-.27485-.15872-.30582-.40067-.0659-.5381l2.32854-1.34331c.23807-.13936.65617-.12194.93102.0368l2.19498 1.26782c.27679.15872.30583.40067.0677.5381"/><path d="m361.69824 242.92529-2.32854 1.34525c-.24001.13743-.65617.12001-.93296-.0387l-2.19304-1.26784c-.27679-.15872-.30582-.39873-.0677-.53616l2.32854-1.34525c.23807-.13743.65617-.12001.93102.0387l2.19498 1.26782c.27679.15872.30583.39873.0677.53616"/><path d="m355.9882 246.22163-2.32854 1.34525c-.23807.13742-.65617.12-.93102-.0387l-2.19498-1.26782c-.27679-.15872-.30583-.39873-.0677-.5381l2.32853-1.34331c.24002-.13743.65618-.12001.93297.0387l2.19497 1.26783c.27486.15872.30583.39873.0659.53616"/><path d="m367.43151 246.23711-2.32854 1.34332c-.23807.13936-.65617.12194-.93103-.0387l-2.19497-1.26589c-.27486-.15872-.30583-.40067-.0677-.53809l2.33047-1.34525c.23808-.13743.65424-.12001.93103.0387l2.19497 1.26783c.27486.15872.30583.40067.0659.53809"/><path d="m361.7234 249.53345-2.32853 1.34331c-.24002.13937-.65618.12195-.93297-.0387l-2.19497-1.26589c-.27486-.15872-.30389-.40067-.0659-.5381l2.32853-1.34524c.23808-.13743.65618-.12001.93103.0387l2.19498 1.26782c.27679.15872.30582.40067.0677.5381"/><path d="m373.14155 242.94078-2.32854 1.34524c-.24001.13743-.65617.12001-.93102-.0387l-2.19498-1.26782c-.27679-.15872-.30582-.40067-.0677-.5381l2.32854-1.34525c.23807-.13743.65617-.12001.93102.0387l2.19498 1.26783c.27679.15872.30583.40067.0677.5381"/><path d="m378.84966 239.64444-2.32854 1.34524c-.23809.13743-.65424.12001-.93103-.0387l-2.19497-1.26782c-.27487-.15872-.30584-.40067-.0659-.5381l2.32853-1.34331c.23808-.13937.65423-.12195.93103.0368l2.19498 1.26783c.27485.15872.30582.40067.0658.5381"/><path d="m384.55969 236.3481-2.32853 1.34525c-.23808.13742-.65617.12-.93102-.0387l-2.19499-1.26782c-.27679-.15872-.30582-.40067-.0677-.5381l2.32853-1.34331c.24002-.13937.65617-.12194.93102.0387l2.19499 1.26589c.27679.16066.30582.40067.0677.5381"/><path d="m372.85121 249.36505-2.32854 1.34525c-.24001.13743-.65617.12001-.93103-.0387l-2.19497-1.26783c-.27679-.15872-.30583-.40067-.0677-.53809l2.32853-1.34332c.23808-.13936.65617-.12194.93103.0387l2.19498 1.26589c.27679.16065.30582.40067.0677.53809"/><path d="m378.55931 246.06872-2.32853 1.34524c-.23808.13743-.65424.12001-.93103-.0387l-2.19498-1.26782c-.27485-.15872-.30582-.39874-.0658-.5381l2.32854-1.34331c.23808-.13743.65424-.12001.93103.0387l2.19497 1.26589c.27486.16065.30583.40067.0658.5381"/><path d="m384.26936 242.77238-2.32854 1.34524c-.23808.13743-.65617.12001-.93103-.0387l-2.19497-1.26782c-.2768-.15872-.30583-.39874-.0677-.5381l2.32853-1.34331c.24001-.13743.65617-.12001.93103.0387l2.19498 1.26589c.27679.16065.30582.40067.0677.5381"/><path d="m390.33748 233.13499-2.33047 1.34525c-.23808.13743-.65424.12001-.93103-.0387l-2.19498-1.26784c-.27485-.15872-.30582-.39873-.0658-.53616l2.32853-1.34525c.23808-.13743.65617-.12001.93103.0387l2.19498 1.26783c.27485.15872.30582.39873.0677.53616"/><path d="m396.29141 229.76123-2.32854 1.34525c-.24001.13742-.65617.12-.93103-.0387l-2.19497-1.26782c-.27679-.15872-.30583-.39874-.0677-.5381l2.32853-1.34331c.24002-.13743.65618-.12194.93103.0387l2.19498 1.26589c.27679.16066.30582.40067.0677.5381"/><path d="m401.99951 226.46489-2.32853 1.34525c-.23808.13742-.65424.12-.93103-.0387l-2.19498-1.26782c-.27485-.15872-.30582-.39874-.0658-.5381l2.32853-1.34331c.23808-.13743.65617-.12001.93103.0387l2.19498 1.26783c.27485.15872.30582.39873.0658.53616"/><path d="m407.70956 223.16855-2.32854 1.34525c-.23809.13743-.65617.12001-.93103-.0387l-2.19497-1.26782c-.2768-.15872-.30584-.39873-.0677-.53616l2.32853-1.34525c.24002-.13743.65617-.12001.93103.0387l2.19498 1.26782c.27679.15872.30582.39873.0677.53616"/><path d="m396.00106 236.18551-2.32853 1.34524c-.24002.13743-.65617.12001-.93103-.0387l-2.19498-1.26782c-.27679-.15872-.30582-.39874-.0677-.53617l2.32854-1.34524c.23809-.13743.65617-.12001.93103.0387l2.19497 1.26782c.2768.15872.30584.39874.0677.53617"/><path d="m401.70917 232.88917-2.32854 1.34525c-.23807.13742-.65423.12-.93102-.0387l-2.19498-1.26782c-.27485-.15872-.30582-.39874-.0659-.53616l2.32854-1.34525c.23807-.13743.65423-.12001.93102.0387l2.19498 1.26783c.27486.15872.30583.39873.0658.53616"/><path d="m390.87171 226.58877-2.32854 1.34331c-.23807.13936-.65423.12194-.93102-.0387l-2.19498-1.26589c-.27485-.15872-.30582-.40067-.0659-.5381l2.32854-1.34525c.23807-.13742.65423-.12.93102.0387l2.19498 1.26782c.27486.15872.30583.40067.0659.5381"/><path d="m407.41921 229.59477-2.32853 1.34331c-.23808.13743-.65618.12-.93103-.0387l-2.19498-1.26588c-.27679-.16066-.30582-.40068-.0677-.5381l2.32854-1.34525c.24001-.13743.65617-.12001.93103.0387l2.19497 1.26783c.27679.15872.30583.39873.0677.5381"/><path d="m413.48734 219.95738-2.33047 1.34331c-.23808.13936-.65424.12194-.93103-.0387l-2.19498-1.26589c-.27485-.15872-.30582-.40067-.0659-.5381l2.32854-1.34525c.23808-.13743.65617-.12001.93103.0387l2.19497 1.26782c.27486.15872.30583.40067.0677.5381"/><path d="m413.197 226.38166-2.33047 1.34525c-.23809.13742-.65424.12-.93103-.0387l-2.19497-1.26782c-.27487-.15872-.30584-.40067-.0658-.5381l2.32853-1.34331c.23808-.13937.65617-.12195.93103.0368l2.19498 1.26782c.27485.15872.30582.40067.0677.5381"/><path d="m419.31932 216.60491-2.32853 1.34524c-.24002.13743-.65618.12001-.93297-.0387l-2.19497-1.26782c-.27486-.15872-.30389-.40067-.0658-.5381l2.32853-1.34331c.23808-.13937.65618-.12195.93103.0368l2.19498 1.26782c.27679.15872.30582.40067.0677.5381"/><path d="m425.02743 213.30857-2.32854 1.34525c-.23807.13742-.65617.12-.93102-.0387l-2.19498-1.26782c-.27486-.15872-.30583-.40067-.0677-.5381l2.33047-1.34331c.23808-.13936.65424-.12194.93103.0368l2.19498 1.26782c.27485.16066.30582.40067.0658.5381"/><path d="m430.73747 210.01223-2.32853 1.34525c-.24002.13743-.65618.12-.93103-.0387l-2.19498-1.26782c-.27679-.15872-.30582-.40067-.0677-.5381l2.32854-1.34331c.23807-.13936.65617-.12194.93103.0387l2.19497 1.26589c.27679.16066.30583.40067.0677.5381"/><path d="m419.02898 223.02919-2.32853 1.34524c-.24002.13743-.65617.12001-.93296-.0387l-2.19499-1.26782c-.27485-.15872-.30389-.39874-.0657-.5381l2.32852-1.34331c.23809-.13743.65618-.12001.93103.0387l2.19499 1.26589c.27679.16065.30582.40067.0677.5381"/><path d="m424.73708 219.73285-2.32853 1.34525c-.23808.13742-.65616.12-.93103-.0387l-2.19498-1.26782c-.27485-.15872-.30582-.39874-.0677-.5381l2.33048-1.34331c.23808-.13743.65423-.12001.93102.0387l2.19498 1.26589c.27487.16066.30584.40067.0659.5381"/><path d="m430.44713 216.43651-2.32854 1.34525c-.24001.13742-.65617.12-.93103-.0387l-2.19497-1.26782c-.27679-.15872-.30583-.39874-.0677-.53616l2.32853-1.34525c.23808-.13743.65618-.12001.93103.0387l2.19498 1.26783c.27679.15872.30582.39873.0677.53616"/></g><path d="m442.40143 162.69051-7.79855-4.56997c-.33099-.18968-.62714-.18195-.85168-.0329l-9.47866 5.90553c-.1742.1084-.23033.33679-.12582.51293l9.14768 9.80579c.0348.0581.0523.12581.0523.19356v3.16472c0 .92522 3.70669-1.74205 4.40157-1.34138.0542.0329.10065.0774.1355.13356l-4.67062 2.90922c.10839.18194.34454.24001.52455.12775l9.5077-5.92683s.41228-.50326.41228-.99491v-7.48886c0-.92521-.56132-1.99755-1.25621-2.39822" fill="#fff"/><path d="m425.27712 164.41513 8.77992 9.43803c.11613.1955.18001.42002.18001.6523v2.20853c.27485-.12582.57874-.27679.82069-.39681 1.52913-.75488 2.43113-1.16523 3.13375-.75682.031.0174.0619.0349.091.0561l4.3435-2.70599c.0755-.12194.14131-.26904.14131-.33292v-7.48886c0-.6523-.43551-1.41106-.81102-1.62978l-.004-.002-7.79856-4.56997c-.002 0-.002 0-.004 0zm8.26311 16.0307c-.10066 0-.19937-.0116-.30002-.0368-.32905-.0774-.61746-.29227-.79167-.58261l-.44518-.74908.87296-.54391c-.26712-.19937-.42003-.50906-.42003-.86328v-2.9518l-9.07219-9.75545c-.35228-.58649-.16453-1.36073.41809-1.72464l9.47867-5.90553c.50712-.33679 1.15942-.33486 1.76721.0194l7.80243 4.56998c.9678.56132 1.69752 1.92205 1.69752 3.16665v7.48886c0 .77037-.51293 1.43235-.61552 1.55817l-.21679.19162-9.50963 5.92682c-.20131.12582-.43164.19163-.66585.19163" fill="#1a162c"/><path d="m426.57398 172.92794s-.0252.23227-.0659.6252l6.6372 5.5939c.18194.30583.57874.40067.8807.21292l9.2851-5.78747s.41229-.50326.41229-.9949v-7.02431c0-.20325-.22066-.32519-.39293-.21873l-9.38189 5.8494c-.0368.0213-.0677.0523-.0871.089l-7.28756 1.65495" fill="#1a162c"/><path d="m427.87664 173.54346 5.86877 4.94547 8.9483-5.57842c.0755-.12194.1413-.26904.1413-.33292v-5.88618l-8.27278 5.15646-.10839.20324zm5.8165 6.80365c-.12001 0-.24195-.0155-.36196-.0445-.3426-.0833-.63681-.27679-.8478-.55164l-6.91205-5.82232.18388-1.72656 7.7192-1.77108 9.38771-5.85327c.35614-.21873.80327-.23033 1.16329-.0252.36196.2013.58842.58455.58842 1.00071v7.02431c0 .77037-.511 1.43235-.61358 1.55817l-.21872.19163-9.28512 5.78746c-.24582.15291-.52261.23227-.80327.23227" fill="#1a162c"/><path d="m432.57049 179.65611-7.79856-4.56997c-.69295-.40067-1.25621-1.47493-1.25621-2.39821v-7.48887c0-.92522.56326-1.34912 1.25621-.94845l7.79856 4.56803c.69294.40067 1.25621 1.47494 1.25621 2.39822v7.48886c0 .92523-.56327 1.34912-1.25621.95039" fill="#00afe6"/><path d="m424.41191 165.07131c-.004.0349-.006.0774-.006.12775v7.48887c0 .65229.43551 1.41105.81102 1.62977l7.71339 4.51771c.004-.0368.006-.0793.006-.12969v-7.48886c0-.6523-.43551-1.41299-.80908-1.62785zm8.6599 15.62422c-.31164 0-.63488-.091-.94651-.27099l-.004-.004-7.79856-4.5661c-.96587-.55745-1.69753-1.92012-1.69753-3.16664v-7.48887c0-.81296.32131-1.46332.87877-1.78463.50713-.29421 1.1304-.27099 1.71301.0659l7.80243 4.5719c.96393.55358 1.69559 1.91625 1.69559 3.16472v7.48886c0 .81296-.31937 1.46332-.87876 1.78463-.23421.13743-.49552.20517-.76457.20517" fill="#1a162c"/><path d="m435.01323 175.72489-.70457-1.17298 8.34634-5.02677.70649 1.17298z" fill="#00afe6"/><path d="m425.86942 202.32206c0-.0271.006-61.01032.006-61.73231 0-.0755-.0503-.13356-.12195-.15485l-30.09288 7.79082c-.0154-.004-.0271-.01-.0407-.0155l8.58636-16.89398c-.0523-.029-.11615-.029-.16647 0l-28.53085 16.43137c-.0387.0232-.0851.029-.12968.0174l-3.46668-.96587c-.10645-.031-.21291.0465-.21098.15678.002.88651.006 61.45552.0155 61.55423l.002.031c.0619.58069.36583 1.14008.94263 1.47494l18.27407 10.59938c1.55623.90393 3.47828.9078 5.03645.006l28.93152-16.66364c.62133-.35809.93684-.97555.962-1.60463l.004-.031" fill="#00afe6"/><path d="m372.5899 147.91022c.002 2.30917.002 8.53602.002 16.16425.004 17.51143.007 43.97312.0116 44.41831.0213.15678.1142.52842.5052.75489l18.27406 10.59744c1.27557.74328 2.86277.74521 4.14414.006l28.93345-16.66363c.44519-.25744.511-.69296.51681-.86909h.002l.006-60.76645-29.33026 7.59339-.43357-.1413-.79941-.39874 7.70759-15.1616-26.49846 15.26031-.48584-.0813zm20.86971 74.27311c-1.02781 0-2.05367-.26712-2.97115-.80134l-18.27213-10.59552c-.78392-.4568-1.28525-1.24072-1.38009-2.15433-.0136-.1142-.0154-.14323-.0213-44.55767-.002-9.49221-.004-16.81268-.004-17.11463 0-.33487.14904-.63876.41423-.84006.2613-.19937.60971-.26518.92134-.17808l3.1802.88458 28.2676-16.28039c.32713-.18195.72586-.18582 1.0491-.004l.74135.41809-8.09471 15.92424 28.46696-7.36886.22841.0619c.46648.12776.77811.53423.77811 1.01232l-.0174 61.87555c-.0329.90393-.55745 1.77882-1.39943 2.26273l-28.93164 16.66352c-.91168.52649-1.93368.79167-2.95568.79167" fill="#1a162c"/><path d="m425.75328 140.44265-30.09288 7.79081c-.0154-.004-.0271-.01-.0407-.0174l-2.30531 6.71268-.006 66.36423c.91748.0271 1.84076-.18969 2.66339-.66392l28.93152-16.66364c.62133-.35808.93684-.97748.962-1.60462l.004-.031c0-.029.006-61.01033.006-61.73231 0-.0755-.0503-.13549-.12195-.15484" fill="#1a162c"/><path d="m394.20482 155.07777-.006 65.26479c.46842-.0852.91748-.24582 1.32783-.48196l28.93345-16.66558c.44519-.25743.511-.69488.51681-.87102l.007-60.76451-28.68957 7.42692zm-.74327 67.10749c-.06 0-.11807 0-.17614-.004l-.86521-.0252.0541-67.51591 2.65952-7.7521.65618.39292 29.96706-7.75985.22841.0639c.45873.12388.77811.54004.77811 1.01233l-.0174 61.87749c-.0329.90005-.55745 1.77495-1.3975 2.26078l-28.93344 16.6636c-.89232.51487-1.91044.78585-2.95374.78585" fill="#1a162c"/><path d="m374.51003 149.28257s.27098-.73554.60971-1.68011l-3.20731-.89425c-.10645-.029-.21291.0465-.21098.15872.002.88457.006 61.45552.0155 61.55423l.002.029c.0619.58262.36583 1.14201.94264 1.47687l1.8427 1.07039.006-57.26299v-4.45189" fill="#1a162c"/><path d="m372.5899 147.82118c.002 2.30724.002 8.53409.002 16.16231.004 17.51144.007 43.97313.0116 44.42025.0213.15678.1142.52842.5052.75295l.50712.29615.004-60.32899.0561-.14904s.11226-.30584.28259-.77426zm2.80276 64.72282-3.17826-1.8485c-.78199-.45487-1.28332-1.23879-1.37816-2.15433-.0136-.11227-.0154-.14324-.0213-44.55768-.002-9.49028-.004-16.81074-.004-17.11463 0-.33293.14904-.63875.41229-.83812.2613-.19936.60971-.26711.92328-.18001l4.13059 1.15169-.32132.89812c-.24775.69682-.46067 1.2775-.55745 1.53881l-.006 63.10465" fill="#1a162c"/><path d="m391.02656 158.94705-18.35924-10.64584c-1.29104-.75295-1.28911-2.61887.004-3.36796l29.01668-16.71009c1.5059-.87102 3.36214-.86909 4.86612.006l18.35923 10.64777c1.29105.75102 1.28911 2.61695-.004 3.36603l-29.01669 16.71009c-1.5059.87103-3.36215.86909-4.86611-.006" fill="#fff"/><path d="m404.11514 128.46124c-.68521 0-1.37042.17614-1.98208.53035l-29.01667 16.71204c-.47423.27485-.52649.72971-.52649.91554-.002.18001.0484.63681.52262.9136l18.35922 10.64585c1.22718.71424 2.75051.7123 3.97768.006l29.01668-16.71396c.47423-.27293.52455-.72973.52649-.91168 0-.18388-.0523-.63681-.52649-.91361l-18.3573-10.64583c-.61552-.35809-1.3046-.5381-1.99366-.5381zm-10.64972 32.03042c-.99877 0-1.99561-.25744-2.88599-.77424l-18.35923-10.64778c-.88264-.51487-1.41106-1.43234-1.40912-2.45434 0-1.022.53036-1.93948 1.41686-2.45048l29.01668-16.71397c1.77302-1.02587 3.98155-1.022 5.7565.01l18.3573 10.64583c.88457.51488 1.41106 1.43235 1.41106 2.45435s-.53036 1.93948-1.41494 2.45048l-29.01668 16.71397c-.88651.51099-1.87947.7665-2.87244.7665" fill="#1a162c"/><path d="m425.87716 129.04192c.002-.0271 0-3.74734 0-4.46931 0-.0755-.0503-.13356-.12195-.15485l-30.09288 7.79081c-.0136-.004-.0271-.01-.0387-.0155l8.58443-16.89397c-.0503-.029-.11421-.029-.16647 0l-28.53085 16.43136c-.0387.0232-.0851.029-.12968.0174l-3.46668-.96587c-.10645-.031-.21098.0465-.21098.15679.002.88651.0116 4.19252.0213 4.29124l.004.029c.06.58261.3639 1.142.94071 1.47686l18.27406 10.59939c1.55623.90393 3.47829.90586 5.03645.006l28.93152-16.66364c.62133-.35809.93683-.97555.962-1.60461l.004-.031" fill="#00afe6"/><path d="m372.5957 131.89501c.004 1.26201.01 3.11439.0174 3.2944.0213.18001.11226.55164.50326.77811l18.27406 10.59745c1.27557.74327 2.8647.74521 4.14607.006l28.93152-16.66364c.44519-.25743.511-.69295.5168-.86908h.004v-3.50345l-29.33219 7.59532-.46455-.15872-.75101-.4181 7.68823-15.12677-26.49653 15.26033-.4839-.0813zm20.87166 17.00624c-1.02781 0-2.05562-.26518-2.97116-.7994l-18.27213-10.59552c-.78392-.45681-1.28524-1.24072-1.38009-2.15433-.01-.0968-.0174-.19163-.031-4.41125 0-.33099.15679-.64456.42003-.84199.26324-.19936.60778-.2613.92715-.17227l3.16666.88457 28.27147-16.28232c.31551-.19162.72973-.19162 1.06265.006l.72005.4239-8.08696 15.90875 28.47664-7.37272.23614.0716c.45488.13356.7607.5381.7607 1.00652l-.0116 4.61255c-.0349.90393-.55939 1.77882-1.40138 2.26272l-28.92953 16.6633c-.91361.52648-1.93561.78973-2.95762.78973" fill="#1a162c"/><path d="m425.75521 124.42549-30.09288 7.79082c-.0136-.004-.0271-.01-.0407-.0174l-2.30338 6.71461v9.0993c.91747.0271 1.83883-.18969 2.66146-.66392l28.93152-16.66364c.62133-.35809.93683-.97748.962-1.60462l.004-.031c.002-.029 0-3.74734 0-4.46932 0-.0755-.0503-.13549-.12195-.15485" fill="#1a162c"/><path d="m394.20869 139.06062v8.0018c.46649-.0851.91555-.24582 1.32589-.48196l28.93346-16.66558c.44519-.25743.51099-.69488.5168-.87103l.004-3.50151-28.69149 7.42886zm-.7394 9.84257c-.06 0-.11807 0-.17613-.002l-.86522-.0252.0484-10.25291 2.64985-7.71727.65036.36197 29.98642-7.76179.23034.0639c.46261.12776.77424.53423.77424 1.01039l-.0116 4.61449c-.0349.90006-.55939 1.77495-1.39944 2.26079l-28.93345 16.66364c-.89038.51486-1.90851.78392-2.95374.78392" fill="#1a162c"/><path d="m374.51196 133.26541s.27099-.73553.60972-1.6801l-3.20537-.89232c-.10839-.031-.21292.0445-.21292.15679.002.88651.0116 4.19252.0213 4.29124l.004.029c.06.58261.3639 1.142.94071 1.47686l1.8427 1.0704v-4.45191" fill="#1a162c"/><path d="m372.5957 131.80596c.004 1.26009.01 3.1144.0174 3.29441.0213.17807.1142.55165.50326.77618l.50519.29615.0561-3.21698s.11227-.30389.2826-.77037zm2.80664 7.4579-3.18021-1.84851c-.7781-.45293-1.28136-1.23685-1.37815-2.15045-.01-.0987-.0174-.19356-.031-4.41319 0-.33098.15679-.64455.42003-.84393.26324-.19742.60778-.25936.92715-.17032l4.11898 1.14781-.32131.89812c-.24776.69488-.46068 1.27751-.55552 1.54074v5.83973" fill="#1a162c"/><path d="m391.0285 142.92991-18.35924-10.64585c-1.29105-.75101-1.28911-2.61888.006-3.36601l29.01475-16.71204c1.5059-.87102 3.36215-.86908 4.86805.006l18.3575 10.64796c1.29298.75102 1.28911 2.61695-.004 3.36602l-29.01475 16.71203c-1.50785.86909-3.36409.86715-4.86805-.007" fill="#fff"/><path d="m404.11706 112.44603c-.68519 0-1.3704.17613-1.984.52842l-29.01667 16.71397c-.47229.27292-.52456.72972-.52456.91166 0 .18388.0503.63876.52456.91555l18.35922 10.64583c1.22331.71037 2.74857.71424 3.97574.006l29.01669-16.71203c.47229-.27485.52455-.72972.52648-.9136 0-.18195-.0503-.63876-.52648-.91555l-18.3573-10.64428c-.61359-.3581-1.30266-.53617-1.99368-.53617zm-10.64777 32.03042c-.99877 0-1.99755-.25937-2.88792-.77811l-18.3573-10.64584c-.88457-.51487-1.41299-1.43235-1.41106-2.45435.002-1.022.53036-1.93948 1.41687-2.45048l29.01474-16.71203c1.77689-1.0278 3.98349-1.02393 5.76037.007l18.3573 10.64584c.88457.51487 1.41106 1.43429 1.41106 2.45629-.002 1.022-.53036 1.93753-1.41687 2.44854l-29.01669 16.71396c-.8865.511-1.87753.76844-2.8705.76844" fill="#1a162c"/><path d="m395.43974 178.05536-.68327-1.18266 28.19986-16.31716.68327 1.18266z" fill="#00afe6"/><path d="m395.43974 193.88669-.68327-1.18459 28.19986-16.31717.68327 1.18266z" fill="#00afe6"/><path d="m395.43974 209.71608-.68327-1.18459 28.19986-16.31716.68327 1.18458z" fill="#00afe6"/><path d="m407.42115 164.65903h-1.36848v-.59811c0-1.35879.92329-2.95374 2.10013-3.63507l3.65056-2.10788c.68134-.39292 1.38396-.43744 1.92593-.12194.54391.31357.85748.94458.85748 1.73043v.59424h-1.36848v-.59424c0-.32905-.0929-.50132-.17227-.54583-.0793-.0484-.27099-.0426-.55939.12194l-3.65056 2.10787c-.75294.43552-1.41492 1.5814-1.41492 2.45048z" fill="#00afe6"/><path d="m407.42115 180.11291h-1.36848v-.59617c0-1.35879.92329-2.95566 2.10013-3.63507l3.65056-2.1098c.68134-.39487 1.38396-.43939 1.92593-.12196.54584.31357.85748.94458.85748 1.72851v.59809h-1.36848v-.59809c0-.32906-.0929-.49745-.17227-.54391-.0793-.0503-.27099-.0426-.55939.12388l-3.65056 2.10594c-.75294.43551-1.41492 1.58139-1.41492 2.45241z" fill="#00afe6"/><path d="m407.23533 196.28878h-1.36847v-.59811c0-1.35686.92134-2.95373 2.09819-3.63506l3.65056-2.10788c.68134-.39487 1.38396-.43938 1.92786-.12194.54391.31357.85554.94457.85554 1.73043v.59423h-1.36847v-.59423c0-.32906-.0929-.50132-.17228-.54585-.0793-.0483-.27098-.0426-.55745.12195l-3.65055 2.10787c-.75488.43551-1.41493 1.58139-1.41493 2.45048z" fill="#00afe6"/><path d="m373.4106 123.49254 18.15405 10.45614 18.05922-10.18903-17.97985-10.59745z" fill="#fff"/><path d="m375.2049 123.50028 16.36362 9.4264 16.27459-9.18445-16.20877-9.55222zm16.35589 11.47234-19.94256-11.48589 20.03547-11.35234 19.74899 11.64268z" fill="#1a162c"/><path d="m393.32413 123.51964 10.63035 6.12232 10.57422-5.96554-10.52777-6.20749z" fill="#fff"/><path d="m395.1165 123.52545 8.84185 5.09451 8.79152-4.96096-8.75861-5.16226zm8.83411 7.14044-12.42079-7.154 12.47885-7.07077 12.29885 7.25272z" fill="#1a162c"/><path d="m383.15251 186.90108-16.06748-9.27543c-.37551-.21872-.68133-.80134-.68133-1.3046v-17.49594c0-.50326.30582-.7336.68133-.51682l16.06748 9.27543c.37551.21873.68133.80134.68133 1.3046v17.49596c0 .50325-.30582.73359-.68133.5168" fill="#fff"/><path d="m367.29601 159.45611-.002 16.86494c0 .21679.15679.48197.24002.53617l15.40937 8.89798.002-16.86688c0-.21678-.15871-.48002-.24195-.53616zm16.12748 28.41665c-.23807 0-.4839-.0677-.71617-.20324l-16.06747-9.27543c-.65037-.3755-1.12459-1.24846-1.12459-2.07304v-17.49594c0-.59036.24776-1.07233.68133-1.32203.40067-.23614.88844-.22066 1.33364.0368l16.06553 9.27543c.65423.37745 1.12846 1.24847 1.12846 2.07304v17.49789c0 .59036-.24776 1.07232-.68133 1.32201-.19357.11033-.40455.16453-.6194.16453" fill="#1a162c"/><path d="m380.10199 171.34461c0 .59423-.41615.83425-.92909.53809-.51487-.29614-.93103-1.01812-.93103-1.61236 0-.59228.41616-.83231.93103-.53615.51294.29614.92909 1.01813.92909 1.61042" fill="#1a162c"/><path d="m384.17257 227.49076c.002-.0252.006-16.15457.006-16.7972 0-.0677-.0445-.12-.1084-.13742l-17.52692 1.56977c-.0136-.002-.0252-.008-.0348-.0136l-1.60656-9.66835c-.0465-.0271-.10259-.0271-.14905 0l-16.13715 9.258c-.0348.0194-.0774.0252-.11419.0136l-3.08537-.85941c-.0948-.0252-.18969.0426-.18775.1413.002.78779.006 16.55137.0136 16.63847l.002.0271c.0542.51681.32518 1.01426.83812 1.31234l16.25909 9.43028c1.38397.80328 3.0931.80715 4.479.006l16.49331-9.46512c.55358-.31938.83425-.86909.85747-1.42848l.002-.0271" fill="#00afe6"/><path d="m346.11661 211.97494c.002.90392.002 2.34014.002 3.98154.004 4.53706.007 11.39492.0116 11.65429.0194.15678.10452.42583.39873.59617l16.25717 9.42834c1.10716.64262 2.48338.64649 3.58861.006l16.49718-9.46512c.35228-.20518.40454-.55358.40842-.69295h.004l.006-15.96295-16.85333 1.50977-.73165-.32324-1.48461-8.93476-15.48486 8.88443-.47229-.0832zm18.46956 27.92306c-.93103 0-1.86206-.24195-2.69243-.72392l-16.25717-9.42834c-.72198-.42002-1.18653-1.14394-1.2775-1.9898-.01-.11227-.0116-.13743-.0174-11.79946-.002-2.60339-.004-4.68223-.004-4.95709l-.002-.44132.41035-.38518c.2555-.1955.59811-.25744.9078-.17227l2.78534.77617 15.87004-9.10509c.32324-.18582.72391-.18389 1.04135.004l.36002.21099 1.54269 9.2851 16.89398-1.51558.15485.0426c.45099.12195.76649.5323.76649.99491l-.0194 16.95011c-.029.81682-.51294 1.62591-1.29105 2.07303l-16.49739 9.46525c-.82456.47616-1.74978.71617-2.675.71617" fill="#1a162c"/><path d="m384.06998 210.56194-17.52691 1.57172c-.0136-.004-.0252-.01-.0348-.0155l-2.05174 5.97328-.004 20.91617c.81489.0252 1.63558-.1684 2.36725-.59036l16.4933-9.46512c.55359-.31938.83425-.86909.85748-1.42654l.002-.029c.002-.0252.006-16.15457.006-16.79719 0-.0658-.0445-.12001-.1084-.13743" fill="#1a162c"/><path d="m365.34686 218.23856-.006 19.80513c.3639-.0774.7123-.21098 1.03361-.3968l16.49718-9.46512c.33873-.19743.40261-.51874.40842-.69294l.01-15.96489-16.13521 1.4459zm-.75488 21.65944c-.0561 0-.11227 0-.16841-.002l-.86134-.0271.0523-22.06592 2.4137-7.03206.72198.451 17.40691-1.5601.16066.0465c.44906.12968.75102.52842.75102.99103l-.0194 16.95204c-.0271.81296-.51294 1.62204-1.28911 2.0711l-16.49914 9.46514c-.80521.46648-1.72462.71037-2.66919.71037" fill="#1a162c"/><path d="m347.7251 213.06662s.24195-.65424.5439-1.49429l-2.85309-.79554c-.0948-.0252-.18969.0407-.18775.1413.002.7878.006 16.55138.0136 16.63848l.002.0271c.0542.51681.32518 1.01426.83812 1.31234l1.63946.95232.004-12.82146v-3.96025" fill="#1a162c"/><path d="m346.11661 211.89558c.002.90392.002 2.33821.002 3.9796.004 4.539.007 11.39686.0116 11.65623.0194.15485.10452.42583.39873.59423l.30389.17808.06-15.54486c0-.002.0851-.23034.21485-.58649zm2.49305 19.49736-2.97309-1.72849c-.72198-.41809-1.18653-1.14201-1.2775-1.98787-.01-.11033-.0116-.13743-.0174-11.79946-.002-2.60146-.004-4.68417-.004-4.95709l-.002-.43938.40648-.38325c.2555-.19937.59617-.26325.90393-.18001l3.78024 1.0549-.31938.89812c-.21679.60585-.40261 1.11298-.49164 1.35493l-.006 18.1676" fill="#1a162c"/><path d="m362.42023 221.66458-16.33266-9.47092c-1.14975-.66972-1.14781-2.33047.004-2.99632l16.5688-9.50577c1.33944-.77618 2.99244-.77231 4.32995.006l16.33265 9.47093c1.14975.66778 1.14781 2.33047-.004 2.99438l-16.56881 9.5079c-1.33944.77424-2.99245.77231-4.32994-.006" fill="#fff"/><path d="m364.82037 200.0032c-.59423 0-1.18653.15098-1.71688.45681l-16.57073 9.5077c-.37551.21873-.41809.58262-.41809.72779s.0407.50906.42002.72972l16.33265 9.47093c1.05878.61552 2.37694.61552 3.43764.006l16.57074-9.50964c.37744-.21679.41808-.58068.41808-.72585 0-.14711-.0387-.50907-.41808-.72973l-16.33072-9.47113c-.53229-.30969-1.12846-.46261-1.72463-.46261zm-.22839 23.13438c-.90587 0-1.81174-.23421-2.61695-.70262l-16.33458-9.47286c-.81683-.47616-1.3046-1.32396-1.30267-2.27047 0-.94458.48971-1.79044 1.30847-2.26273l16.57073-9.5077c1.61043-.93103 3.61378-.92909 5.22034.006l16.33071 9.47093c.81877.47809 1.30654 1.32589 1.3046 2.27046-.002.94652-.48971 1.79238-1.30847 2.26467l-16.57266 9.50983c-.80134.46261-1.7014.69488-2.59952.69488" fill="#1a162c"/><path d="m373.34285 212.32334-7.76952-4.38221 11.32136-6.53848 7.77146 4.38222z" fill="#fff"/><path d="m367.3657 207.93145 5.97134 3.36796 9.53481-5.50487-5.97136-3.36795zm5.98296 5.4139-9.57158-5.39648 13.11374-7.56822 9.5677 5.39647z" fill="#1a162c"/></g><g fill="#fff"><path d="m347.72555 99.00008c.39402 0 .71496-.32003.71496-.71404 0-.39494-.32094-.71496-.71496-.71496s-.71496.32002-.71496.71496c0 .39401.32094.71404.71496.71404zm0-2.07737c.75103 0 1.3624.61137 1.3624 1.36333 0 .75104-.61137 1.3624-1.3624 1.3624-.75104 0-1.36333-.61136-1.36333-1.3624 0-.75196.61229-1.36333 1.36333-1.36333"/><g transform="matrix(-.75000002 0 0 .75000002 457.407 73.092)"><path d="m97.185666 75.172103c-.52536 0-.95329.4267-.95329.95205 0 .52658.42793.95328.95329.95328.52535 0 .95328-.4267.95328-.95328 0-.52535-.42793-.95205-.95328-.95205zm0 2.76982c-1.00138 0-1.81654-.81516-1.81654-1.81777 0-1.00139.81516-1.81654 1.81654-1.81654s1.81777.81515 1.81777 1.81654c0 1.00261-.81639 1.81777-1.81777 1.81777"/><path d="m102.27147 82.670093h-.86448v-4.39027h.86448z"/><path d="m99.643476 80.907833h4.391514v-.8645h-4.391514z"/></g><g transform="matrix(.75000002 0 0 -.75000002 340.35095 164.81143)"><path d="m8.78988 135.5694h.86448v-4.39027h-.86448z"/><path d="m11.417874 133.80714h-4.391514v-.8645h4.391514z"/></g><g transform="matrix(.75000002 0 0 -.75000002 397.37156 197.65396)"><path d="m8.78988 135.5694h.86448v-4.39027h-.86448z"/><path d="m11.417874 133.80714h-4.391514v-.8645h4.391514z"/></g></g></g></svg>