<svg height="200" viewBox="0 0 63.000001 200" width="63" xmlns="http://www.w3.org/2000/svg"><g transform="matrix(1.3333333 0 0 -1.3333333 -382.72949 272.10963)"><g transform="matrix(.97237928 0 0 .97237928 5.523392 19.579473)"><g fill="#1a162c" transform="translate(-28.214482)"><path d="m329.04013 46.064721-1.70376-.983863c-.1735-.09955-.47928-.08676-.6798.0283l-1.60564.927117c-.20196.116761-.22329.293396-.0498.393943l1.70377.982725c.17493.101117.47928.08832.68122-.0283l1.60564-.92726c.20053-.114912.22328-.291547.0483-.392663"/><path d="m328.82823 41.365988-1.70377-.982867c-.17493-.101116-.47927-.08832-.68122.02844l-1.60563.92598c-.20053.116761-.22329.292826-.0483.393943l1.70377.982724c.17351.101118.47928.08832.68122-.0283l1.60423-.926122c.20194-.116619.22328-.292826.0498-.393801"/><path d="m333.00375 43.776437-1.70377-.982725c-.17493-.100548-.47928-.08788-.68122.02887l-1.60564.925553c-.20053.116619-.22329.292684-.0483.393801l1.70234.982726c.17493.101116.4807.08832.68123-.0283l1.60564-.926122c.20194-.11605.22328-.292685.0498-.393801"/><path d="m337.17784 46.187455-1.70235-.982725c-.17493-.101117-.47928-.08832-.68122.0283l-1.60564.925566c-.20195.116619-.22328.293253-.0483.393801l1.70234.982725c.17492.101117.4807.08846.68122-.0283l1.60564-.925554c.20195-.116618.22328-.293252.0483-.393801"/><path d="m333.02081 38.945442-1.70235-.983862c-.17493-.101117-.47927-.08832-.68122.0283l-1.60563.927273c-.20053.116618-.22329.291689-.0483.392237l1.70235.984289c.17492.09955.48069.08846.68122-.0283l1.60564-.927117c.20194-.116761.22328-.293396.0483-.392806"/><path d="m328.84672 36.534994-1.70377-.984432c-.17493-.100548-.47927-.08775-.68122.02887l-1.60564.92726c-.20052.114912-.22328.290977-.0483.392095l1.70376.984431c.17351.09941.47928.08775.67981-.0283l1.60563-.927686c.20195-.116761.22329-.292827.0498-.392237"/><path d="m337.19632 41.355891-1.70234-.983863c-.17493-.101116-.47928-.08832-.68122.0283l-1.60564.927274c-.20196.116618-.22329.291674-.0483.392791l1.70235.983862c.17492.101118.47927.08832.68122-.02844l1.60564-.927118c.20194-.116618.22328-.293395.0483-.392805"/><path d="m341.37184 43.766339-1.70235-.983862c-.17493-.100974-.47928-.08832-.68122.02844l-1.60564.927117c-.20195.116761-.22328.291689-.0483.392806l1.70234.983862c.17493.101117.47927.08832.68122-.0283l1.60564-.92726c.20196-.116618.22329-.292685.0483-.392806"/><path d="m345.54735 46.1775-1.70235-.984432c-.17493-.101117-.48069-.08832-.68122.0283l-1.60564.927118c-.20195.11676-.22328.291689-.0498.392805l1.70378.984431c.17493.100548.47927.08775.68122-.02887l1.60563-.927259c.20196-.116619.22329-.291546.0483-.392094"/><path d="m336.98442 36.657158-1.70235-.98443c-.17493-.100549-.48069-.08775-.68122.02887l-1.60564.927259c-.20195.116619-.22328.292827-.0498.392237l1.70378.984431c.17492.101117.47927.08832.68122-.02844l1.60563-.927117c.20053-.116619.22329-.291689.0483-.392806"/><path d="m341.15993 39.067607-1.70376-.983863c-.17352-.101116-.47928-.08832-.68123.02844l-1.60421.927117c-.20196.116618-.22329.292826-.0498.392806l1.70378.983862c.17493.101117.47927.08832.68122-.0283l1.60564-.92726c.20052-.116618.22328-.291688.0483-.392805"/><path d="m345.33544 41.478198-1.70376-.983863c-.1735-.09955-.47928-.08832-.68123.0283l-1.60421.927117c-.20196.116761-.2247.29341-.0498.39282l1.70377.983862c.17493.101118.47928.08832.68122-.0283l1.60422-.92726c.20195-.116619.2247-.291547.0498-.392663"/><path d="m349.51095 43.889216-1.70376-.984431c-.17493-.09941-.47927-.08832-.68122.0283l-1.60565.927261c-.20051.116619-.22327.293252-.0483.392663l1.70377.983862c.17351.101117.47928.08832.68122-.0283l1.60422-.927117c.20195-.116761.22329-.291688.0498-.392236"/><path d="m345.12354 36.779465-1.70377-.982866c-.17493-.101117-.47927-.08832-.68122.0273l-1.60563.927117c-.20053.116761-.22329.292827-.0483.393944l1.70235.982724c.17493.101117.4807.08832.68123-.0283l1.60564-.927259c.20194-.115481.22328-.291689.0498-.392664"/><path d="m349.29763 39.189915-1.70234-.982725c-.17493-.100548-.47928-.08789-.68122.02716l-1.60564.92726c-.20196.116619-.22329.293253-.0483.393801l1.70234.982725c.17493.101117.47928.08832.68123-.0283l1.60564-.92726c.20194-.114912.22328-.291547.0483-.392663"/><path d="m339.76762 60.147542-1.70377-.982725c-.1735-.101116-.47928-.08832-.6798.0266l-1.60564.92726c-.20194.116618-.22327.293253-.0498.393801l1.70376.982867c.17493.101116.47928.08832.68123-.02844l1.60564-.927118c.20053-.115053.22327-.291688.0483-.392236"/><path d="m343.94314 62.55799-1.70378-.982724c-.1735-.101117-.47927-.08832-.68122.02674l-1.60422.927117c-.20194.116619-.22327.293396-.0498.394512l1.70376.982725c.17493.100548.47928.08775.68123-.02887l1.60564-.925553c.20053-.116761.22329-.293396.0483-.393944"/><path d="m343.73123 57.85869-1.70377-.982157c-.17493-.101116-.47927-.08832-.68122.0283l-1.60564.925553c-.20053.116619-.22328.293395-.0483.393943l1.70376.982725c.17351.101116.47927.08832.6798-.0283l1.60564-.925553c.20195-.11676.22328-.293395.0498-.394511"/><path d="m339.55572 55.448241-1.70377-.982724c-.17493-.100549-.47928-.08775-.68122.02887l-1.60564.925552c-.20053.116618-.22329.292685-.0483.393801l1.70377.982867c.17351.100974.47927.08832.68123-.02844l1.60421-.925979c.20195-.116761.22471-.292813.0498-.393929"/><path d="m347.90532 60.269707-1.70235-.982724c-.17492-.101118-.47927-.08832-.68122.0283l-1.60564.925568c-.20053.116761-.22328.293381-.0483.394498l1.70234.982739c.17493.100548.4807.08775.68122-.02887l1.60564-.925552c.20196-.116619.22329-.293396.0483-.393944"/><path d="m352.08083 62.680297-1.70235-.982866c-.17492-.100975-.47926-.08832-.68122.02844l-1.60564.92598c-.20194.116761-.22328.292827-.0483.393944l1.70235.982724c.17493.100548.47927.08775.68122-.0283l1.60563-.926121c.20196-.116619.22329-.292684.0483-.393802"/><path d="m347.9238 55.438285-1.70234-.983862c-.17492-.101117-.47927-.08832-.68122.0283l-1.60564.927274c-.20194.116619-.22328.291547-.0483.392663l1.70234.983863c.17493.101117.48069.08832.68122-.0283l1.60564-.92726c.20195-.116619.22328-.291547.0483-.392663"/><path d="m343.74972 53.027837-1.70377-.983863c-.17493-.101116-.47927-.08846-.68122.0283l-1.60564.927117c-.20053.116761-.22329.291703-.0483.39282l1.70235.983862c.17493.101118.48069.08832.68122-.0283l1.60564-.92726c.20195-.116619.22328-.291689.0498-.392663"/><path d="m352.09932 57.849303-1.70235-.984431c-.17492-.101117-.47927-.08832-.68122.0283l-1.60564.927274c-.20194.116619-.22328.291689-.0483.392664l1.70234.983862c.17493.101117.47928.08846.68122-.0283l1.60564-.927117c.20196-.116761.22329-.291689.0483-.392236"/><path d="m356.27484 60.259751-1.70235-.984431c-.17493-.101116-.4807-.08775-.68123.0283l-1.60564.927829c-.20194.116049-.22328.292684-.0483.392236l1.70235.984432c.17493.100548.47927.08775.68122-.02902l1.60564-.927118c.20195-.116618.22328-.291119.0483-.392236"/><path d="m360.45035 62.670201-1.70234-.984432c-.17493-.100548-.48071-.08775-.68123.02902l-1.60564.927117c-.20195.116618-.22328.292826-.0498.392236l1.70376.984432c.17493.101116.47928.08832.68123-.0283l1.60564-.927828c.20053-.11605.22327-.29112.0483-.392237"/><path d="m351.88742 53.150002-1.70377-.983862c-.1735-.09941-.47928-.08832-.67981.0283l-1.60563.927274c-.20195.116618-.22329.292684-.0498.392648l1.70376.983863c.17493.101117.47928.08832.68123-.0283l1.60564-.927117c.20052-.115055.22327-.291689.0483-.392806"/><path d="m356.06293 55.56102-1.70377-.984432c-.1735-.09941-.47928-.08832-.68122.0283l-1.60422.927259c-.20194.116619-.2247.293267-.0498.393802l1.70376.982866c.17493.101117.47928.08832.68123-.02844l1.60421-.927118c.20196-.115054.2247-.291689.0498-.392236"/><path d="m360.23845 57.971468-1.70378-.984431c-.17493-.09941-.47927-.08661-.68122.02844l-1.60422.927686c-.20194.116049-.2247.292826-.0498.393943l1.70376.982725c.17352.100548.47928.08775.68123-.02887l1.60422-.92726c.20195-.115054.22471-.291689.0498-.392237"/><path d="m364.41396 60.381917-1.70377-.982725c-.17493-.101116-.47928-.08832-.68122.0273l-1.60564.927117c-.20053.116762-.22329.292827-.0483.393943l1.70377.982725c.17351.101118.47927.08775.68123-.0283l1.60421-.927829c.20195-.114912.22328-.29112.0498-.392236"/><path d="m360.02511 53.272167-1.70234-.982156c-.17493-.101117-.47927-.08832-.68122.02674l-1.60564.927118c-.20195.116618-.22328.293394-.0483.393942l1.70234.982725c.17493.101117.48069.08832.68122-.0283l1.60564-.925554c.20195-.11676.22328-.293394.0483-.394511"/><path d="m364.20063 55.683184-1.70235-.982724c-.17492-.101117-.47927-.08832-.68122.0283l-1.60564.925567c-.20195.116762-.22328.293396-.0483.394513l1.70234.982725c.17493.100548.47928.08775.68122-.02887l1.60564-.92554c.20196-.116619.22329-.293409.0483-.393957"/></g><path d="m314.76592 67.970784s-1.40701-1.845783-.85803-5.578826c1.30737-.795 2.82825-1.252481 4.39995-1.323848l11.16456-.514818c1.0024-.04432 2.00275.132771 2.91161.521121.98613.418645 1.75266 1.172981 2.13085 2.099939.34159.831598-.0549 1.763233-.9231 2.171509l-11.68304 5.506442z" fill="#fff"/><path d="m314.49347 62.781935c1.15692-.646369 2.47852-1.020487 3.84487-1.083315l11.16253-.512175c.90479-.04921 1.81569.119961 2.63508.467037.83974.358055 1.47818.982465 1.79536 1.760793.21349.522545-.0407 1.095921-.60793 1.362886l-11.435 5.385668-6.70158-2.701984c-.25822-.445484-1.01662-2.007018-.69333-4.67891zm15.28596-2.864644c-.11184 0-.22366.0022-.33752.0063l-11.16254.514614c-1.67743.07706-3.302.567074-4.69883 1.414532l-.25416.154933-.0427.292178c-.57948 3.948974.91699 5.97043.98002 6.053793l.10573.138057 7.55759 3.047636 11.93312-5.621728c1.17726-.55345 1.70793-1.833786 1.24029-2.980742-.44529-1.08799-1.32162-1.956188-2.4704-2.44376-.89056-.378998-1.86855-.575817-2.85061-.575817" fill="#1a162c"/><path d="m301.20415 56.088889-.35378-7.789781c-.0671-1.465362.33548-2.917304 1.16099-4.180154l.37004-.567073c.99223-1.517007 2.67169-2.558233 4.58905-2.842481l2.03121-.30336c.6852-.101663 1.38871.04514 1.95802.408885.93936.599809 1.34601 1.683937 1.00646 2.682262l-1.89499 5.542227c-.60795 1.655065-1.06339 3.35486-1.35821 5.079054l-.56322 3.297725z" fill="#fff"/><path d="m301.8121 55.562481-.33143-7.292041c-.061-1.337471.30499-2.652779 1.05933-3.807461l.37005-.565649c.89667-1.370816 2.4094-2.3055 4.15393-2.563723l2.03121-.30336c.53067-.07706 1.08778.03497 1.52493.315356.69334.443045.99426 1.226252.74824 1.945819l-1.89295 5.543041c-.61811 1.67255-1.08373 3.419923-1.38465 5.178277l-.45341 2.66152zm7.62264-15.818874c-.17485 0-.34972.01179-.52661.03802l-2.02918.303361c-2.10034.311494-3.9323 1.449503-5.02415 3.120629l-.37006.567886c-.90073 1.376509-1.33788 2.952277-1.26468 4.554273l.37615 8.287722 8.06794 1.540796.67096-3.929863c.28669-1.683732.73401-3.354859 1.32975-4.969461l1.89905-5.55646c.43715-1.28115-.0712-2.653592-1.26468-3.418501-.55508-.353378-1.20165-.538403-1.86449-.538403" fill="#1a162c"/><path d="m312.20606 93.742204s1.76893-14.570256 2.55986-25.77142c.0325-.451177.32125-.839528.76856-1.040413 1.32772-.595742 4.33895-1.486914 7.80157.5504.65878.38835 1.05729 1.065829 1.039 1.779092-.11386 4.251522-.44528 20.308692.70961 30.480423 1.3399 11.807274-6.15465 11.144444-6.15465 11.144444l-8.85886-9.06829z" fill="#1a162c"/><path d="m310.77262 101.63141 2.05968-7.811333c.0183-.147004 1.77909-14.71482 2.56392-25.803952.0143-.21776.15859-.402786.39648-.510751 1.34195-.602046 4.06447-1.339911 7.22211.518681.46154.272252.74213.740102.7279 1.217509-.122 4.60734-.43715 20.430077.71367 30.570088.47984 4.210858-.12403 7.222098-1.79129 8.946288-1.30128 1.34602-2.88518 1.49647-3.46263 1.50257zm8.12283-36.040949c-1.6449 0-2.93805.45748-3.62122.764094-.66487.300921-1.08982.886293-1.13862 1.5717-.7584 10.757917-2.44397 24.811931-2.54969 25.698427l-2.21624 8.374338 9.27161 9.49364.23383.0203c.10572.0101 2.66152.20941 4.6785-1.8584 1.95598-2.00681 2.68185-5.36574 2.15727-9.985076-1.14268-10.058886-.82956-25.806392-.70553-30.392993.0244-.937327-.49205-1.833989-1.35008-2.338235-1.73233-1.020691-3.37112-1.34784-4.75983-1.34784" fill="#1a162c"/><path d="m301.18789 89.319889s-1.82789-9.842954-.97596-19.57408c.62624-7.14097.21146-12.077086-.0529-14.201628-.0875-.687847.44325-1.303311 1.20165-1.389115 1.4985-.168352 3.9628-.239922 6.03468.685409 1.5656.698827 2.51105 2.191231 2.46226 3.773301-.15656 5.097557 2.33417 21.218978 6.61009 34.465995 5.18885 16.076689-10.89414-.484522-10.89414-.484522l-4.38572-3.27536" fill="#1a162c"/><path d="m301.76533 88.964071c-.26839-1.565398-1.6876-10.467365-.92512-19.163363.62216-7.095833.23178-12.02646-.0549-14.3344-.0244-.185026.0508-.323286.11589-.408276.11997-.150867.31312-.25253.52865-.276319 1.27891-.142937 3.71881-.254155 5.70936.633764 1.30941.586185 2.12881 1.833787 2.08611 3.180203-.16062 5.25371 2.34637 21.375131 6.64059 34.677046 1.6205 5.018057.85803 5.940949.58558 6.106252-1.32162.802932-6.4454-3.125509-10.42446-7.224538l-.0752-.06507zm1.407-35.545244c-.6852 0-1.32567.04514-1.88278.110405-.55914.06018-1.04712.32715-1.37855.748033-.30498.386114-.43918.86413-.37818 1.3454.28059 2.257312.66284 7.088716.0508 14.06845-.8499 9.704693.96375 19.645447.98206 19.744669l.0468.242363 4.54431 3.393695c1.57779 1.620295 9.09472 9.098378 11.94533 7.388828 1.3765-.829977 1.36634-3.234903-.0346-7.573854-4.18848-12.976189-6.73411-29.209642-6.57958-34.2523.0569-1.858593-1.05526-3.574857-2.83436-4.371484-1.45174-.646573-3.06003-.844205-4.48128-.844205" fill="#1a162c"/><path d="m314.88181 167.11217s4.38776 2.50903 9.47697 0c3.56022-1.75673 3.85911-21.82489 3.85911-21.82489s-1.31348-5.91675.89259-20.20439c2.20608-14.28763-1.37244-32.172285-1.37244-32.172285s-5.92081 5.870191-6.93134 24.891225c-1.01256 19.02104-3.61919 44.59524-3.61919 44.59524z" fill="#00afe6"/><path d="m315.72765 166.81531 2.08814-4.35522c.0244-.25619 2.62086-25.80598 3.62122-44.62573.75433-14.21443 4.31048-21.011378 5.93505-23.417118.76856 4.458913 2.92788 18.830118 1.11422 30.570088-2.09221 13.54956-1.05322 19.59035-.8987 20.35891-.11996 7.61656-1.17522 20.04783-3.50939 21.19865-3.7371 1.84416-7.08587.8011-8.35054.27042zm12.39874-75.179348-.83159.825906c-.2501.247852-6.10585 6.261794-7.11841 25.307432-.96579 18.14877-3.41585 42.58435-3.60495 44.45087l-2.51716 5.14615.51238.29279c.19316.1098 4.74154 2.64525 10.07068.0183 3.71881-1.83399 4.16206-18.96613 4.21288-22.38199v-.0732l-.0143-.0712c-.0143-.059-1.25654-6.01435.8987-19.97056 2.19794-14.23477-1.34195-32.212749-1.37651-32.393708l-.2318-1.150819" fill="#1a162c"/><path d="m300.86257 137.00586s-.9902-37.738914-3.9323-51.572931c0 0 16.76209-4.367621 22.22137 13.105707 5.45723 17.473934 2.24877 37.253374 2.24877 37.253374l-2.24877 10.75385-11.05681 20.00716-8.50508-4.95502-3.32639-2.72659z" fill="#00afe6"/><path d="m297.6724 85.914198c2.98481-.585372 16.16839-2.260361 20.87536 12.811904 5.34947 17.125848 2.26097 36.767018 2.22844 36.964238l-2.22437 10.63389-10.69692 19.35857-7.90527-4.60328-2.98887-2.4521 4.53617-21.56463-.002-.0732c-.0102-.37411-.99833-36.87295-3.82251-51.075394zm3.71271-1.571904c-2.68795 0-4.55854.466224-4.61547.480661l-.58355.152493.12607.589235c2.83435 13.329771 3.86724 49.499427 3.91806 51.384247l-4.66223 22.1685 3.70254 3.02751 9.06422 5.27831 11.43296-20.74929 2.24877-10.75385c.0386-.22773 3.17593-20.1556-2.26301-37.568126-3.7554-12.024833-12.81149-14.007249-18.36836-14.00969" fill="#1a162c"/><path d="m304.34349 169.4382s1.40904-1.17318.50628-4.50771l-.50628-1.82586s4.7273-7.68364 12.77083-7.99879c0 0-2.69406 6.80324-1.65507 10.32686 1.04103 3.52362-6.65684 4.0055-6.65684 4.0055z" fill="#fff"/><path d="m305.02869 163.2124c.80517-1.17929 4.85336-6.65279 11.1544-7.40103-.71163 2.03528-2.1898 6.88052-1.32771 9.80026.13216.45138.0793.82347-.16469 1.17318-.99222 1.41921-4.61547 1.94176-5.92692 2.02511l-3.29997-.002c.31923-.81533.51645-2.12068-.004-4.0421zm13.02906-8.7755-.96783.0386c-8.28548.32329-13.08395 7.9744-13.2832 8.29972l-.14437.23382.57948 2.09018c.76653 2.83232-.26839 3.82251-.31313 3.86521l-1.19351 1.09592 6.06722.0102c.58557-.0366 5.40843-.39649 6.92117-2.5619.46358-.66081.58151-1.44157.34159-2.25487-.9658-3.27353 1.61033-9.84906 1.63676-9.91615z" fill="#1a162c"/><path d="m314.22711 158.12114s1.08982 1.98649.46155 6.78901l3.48702-.11386s1.5168-3.09866.28262-7.64704c-1.23621-4.55041.69334-10.60339.69334-10.60339s-3.13934 8.48475-4.92453 11.57528" fill="#1a162c"/><path d="m314.93061 158.15978c.74213-1.35212 1.66727-3.4606 2.507-5.49791-.0772 1.53307.006 3.1617.41071 4.65207.93123 3.4301.22163 5.97979-.10166 6.86628l-2.34637.0753c.34769-3.43619-.19112-5.36574-.46968-6.09568zm3.62732-11.83351c-.0305.0854-3.13731 8.47051-4.87776 11.47972l-.1769.30905.16876.30702c.0285.0549.96986 1.97225.39038 6.40676l-.0956.73807 4.60938-.15249.16672-.34158c.0651-.1342 1.60627-3.36707.32329-8.08826-1.16912-4.31456.6669-10.18861.68723-10.24758l-1.19554-.41071" fill="#1a162c"/><path d="m305.27065 165.21311s-.95766-4.7822 8.95646-7.09197c0 0 4.06039-6.08144 4.92453-11.58138.0224-.1403-.19926-.2013-.26636-.0712-.80517 1.5595-2.94414 5.11159-6.78495 7.58401-.37818.24196-.67707.57948-.8255.98003l-.68113 1.81366c-.0732.19926-.31516.30092-.53069.22773l-2.1959-.74621c-.29279-.0996-.61201-.0935-.8987.0224-1.28908.51644-4.88996 2.18167-5.4918 4.86353-.73603 3.27556.84583 5.4857 3.66594 5.89845z" fill="#1a162c"/><path d="m310.20331 157.72872c.42698 0 .82754-.25415.98206-.6608l.67911-1.81366c.0976-.25822.29685-.49205.57744-.67097 2.38906-1.53917 4.14376-3.49108 5.33524-5.13599-1.24232 3.76558-3.38943 7.2526-3.94247 8.11876-9.48714 2.28944-9.29601 6.91915-9.19841 7.67349l-.0752 1.10404c-.8682-.25008-1.5534-.71773-2.00681-1.3765-.62828-.91496-.78688-2.16541-.46155-3.61512.54084-2.41347 4.04819-3.98923 5.10955-4.41621.14639-.059.31109-.061.46154-.0101l2.19592.7462c.11182.0386.22771.0569.34361.0569zm8.80396-11.96363c-.28262 0-.54897.1525-.68317.41275-.72383 1.40498-2.81198 4.9286-6.56536 7.3441-.51034.32735-.88243.77467-1.07559 1.28908l-.60184 1.60423-2.01088-.6852c-.43715-.14844-.91293-.13421-1.33584.0346-1.54731.62014-5.21731 2.37889-5.87405 5.31084-.40462 1.80145-.17893 3.39552.6547 4.60734.76857 1.11625 1.99055 1.82586 3.53582 2.05358l.67504.0976.17892-2.66152-.0143-.0772c-.0163-.1037-.55711-4.25559 8.47865-6.35797l.24399-.0569.13826-.20739c.16876-.25212 4.14783-6.2624 5.02212-11.83554.059-.36395-.16062-.7157-.51847-.83159-.0814-.0285-.16673-.0407-.24807-.0407" fill="#1a162c"/><path d="m305.83793 168.46224c.68317-1.65913 3.00717-4.50771 10.90837-4.44265.70147.006 1.31348.43512 1.50867 1.0451.7218 2.2386 2.04952 7.86053-.36802 13.71019l-.48594 2.07594-12.0287-2.2935-.87836-5.01399s-2.77741.26229-1.93362-2.45006c.38225-1.22402 1.13048-1.59204 1.78316-1.65507.67097-.063 1.25858-.40258 1.49444-.97596" fill="#fff"/><g fill="#1a162c"><path d="m306.42147 168.70217c.63437-1.53918 2.82012-4.10717 10.31873-4.05024.42495.002.80111.25213.91497.60795.67707 2.0983 1.99665 7.59214-.35176 13.27304l-.0305.0976-.34768 1.48631-11.00597-2.09831-.9048-5.15835-.58151.0549c-.22975.0203-.95765-.006-1.24841-.36802-.24805-.30905-.14842-.85803-.0203-1.26468.23585-.76043.6425-1.15895 1.23825-1.21588.94952-.0894 1.70385-.59777 2.01901-1.36431zm10.06051-5.31491c-8.03133 0-10.4814 3.0214-11.22759 4.83506-.1342.32329-.49612.54491-.96986.5876-.64454.061-1.80146.41479-2.32605 2.09628-.31921 1.02273-.23382 1.84213.24806 2.43787.48596.59981 1.23215.7767 1.7547.82346l.86412 4.9286 13.05347 2.4887.612-2.6168c2.47852-6.05094 1.08372-11.8701.36598-14.09651-.28465-.87836-1.13049-1.4741-2.10644-1.48223-.0894 0-.18096-.002-.26839-.002"/><path d="m303.3472 177.84568c-1.13252.46968-2.03935 1.31958-2.44397 2.38907-.49814 1.32161-.7096 3.1373.89666 4.5809.95766.86007 1.8645 1.30942 2.73676 1.49444 3.47076.73197 6.39253-2.72658 9.88361-1.11829 4.36742 2.01495 1.48831 2.73763-.41487 2.93042 0 0 1.38474 2.41907 4.36751.0279 3.71881-2.98278 1.43141-9.17605-4.16002-9.37531-2.99295-.10776-5.09736-.69741-6.40473-1.22401-1.22199-.49002-2.60866-.47578-3.82454.0285l-.63641.26636"/><path d="m305.54514 185.78145c-.29075 0-.58354-.0264-.87837-.0894-.83363-.17689-1.6327-.61607-2.446-1.346-1.08778-.978-1.33177-2.28538-.72789-3.88758.33141-.87429 1.09388-1.6144 2.09628-2.03121l.63843-.26433c1.06339-.44324 2.28334-.45138 3.34469-.0264 1.28502.51644 3.47686 1.15488 6.6162 1.26875 2.42769.0875 4.44264 1.49241 5.13598 3.58461.57948 1.7486.063 3.53786-1.34601 4.66834-.82346.65878-1.60017.85193-2.27724.80516.0224-.008.0427-.0162.063-.0264.73401-.33142 1.15692-.87836 1.16098-1.50257.002-.84786-.75026-1.62863-2.24063-2.31384-2.14101-.98815-4.036-.29888-5.86999.36803-1.11422.40461-2.18167.79296-3.26946.79296zm.39039-9.21875c-.74825 0-1.49648.14437-2.19388.43512l-.63844.26432c-1.31958.54897-2.33824 1.55137-2.78962 2.74895-.78483 2.08001-.40868 3.95263 1.06543 5.27425.98205.88039 1.97224 1.4192 3.0275 1.64082 1.75469.3721 3.32233-.19925 4.83913-.75229 1.66727-.60591 3.241-1.17726 4.9103-.40868 1.49037.68723 1.50663 1.15894 1.50663 1.16301 0 .0854-.14436.23585-.41681.35785-.59981.26839-1.5473.28669-1.70692 1.11118-.1596.82448 2.49988 2.43277 5.2285.245 1.83196-1.468 2.50496-3.78795 1.7547-6.05095-.86007-2.59645-3.32843-4.34098-6.28681-4.44671-2.95838-.10776-4.99976-.69943-6.19327-1.17928-.66895-.2684-1.38668-.40259-2.10644-.40259"/><path d="m301.16552 173.01672c-.66487.20739-1.21792.65267-1.50663 1.24435-.49408 1.01662-1.06543 2.71031-.49408 4.38774.65674 1.92752 4.37555.87633 6.33966.1647.69334-.2501 1.04916-.95563.8133-1.61033l-1.12031-3.12307c-.20943-.58761-.78891-1.00036-1.46801-1.04713l-1.5168-.12809c-.35379-.0305-.70961.008-1.04713.11183z"/><path d="m301.35258 173.62059c.26229-.0833.53474-.1098.8072-.0875l1.5168.12809c.43308.0305.80314.28466.92717.63234l1.12031 3.12307c.11589.32735-.0691.67301-.43308.80313-2.37687.86007-4.22915 1.11829-5.08515.70758-.22772-.1098-.36802-.26229-.44325-.48392-.49002-1.43547-.0183-2.91568.46358-3.90587.20739-.42495.6181-.76044 1.12642-.917zm.62421-1.35821c-.33752 0-.67301.0508-.99832.15249-.83974.26026-1.52698.83363-1.88686 1.56967-.58558 1.20369-1.15286 3.02548-.52458 4.8676.183.53881.56118.95766 1.09186 1.21181 1.50866.72588 4.12749.0427 6.06111-.65673 1.02069-.36802 1.54527-1.42938 1.19148-2.41551l-1.11828-3.1251c-.29686-.82346-1.0878-1.39887-2.01902-1.46393l-1.50867-.1281c-.0976-.008-.19316-.0122-.28872-.0122"/><path d="m304.71964 49.002816-.26636 1.231742 4.9347 1.072335.26839-1.232759z"/><path d="m305.73016 46.685116-.26839 1.231945 4.93673 1.071522.26636-1.231945z"/><path d="m325.87355 65.002648-1.01255.753726 2.3423 3.138115 1.01255-.754539z"/><path d="m328.35005 64.394301-.94139.841968 1.92548 2.157072.9414-.839528z"/></g><path d="m317.20175 151.41752c-.72994 1.99869-2.71846 5.37794-2.73879 5.41047l.83567.49409c.0833-.1403 2.05561-3.48906 2.81605-5.5711z" fill="#00afe6"/><path d="m305.91112 177.42277c-.612 2.35653-2.3911 2.13491-2.59442 2.10644l-1.95599-.26432-.12809.96173 1.93769.26229c.95968.16875 2.997-.1952 3.68221-2.82215z" fill="#00afe6"/><path d="m303.60339 58.363687-.96783.0675c.006.0795.54898 7.912995.0875 14.262829-.47172 6.469999 1.08575 12.327379 1.15285 12.573606l.93733-.251716c-.0163-.05876-1.58187-5.951317-1.12236-12.250319.46562-6.421405-.0814-14.32403-.0875-14.401904" fill="#00afe6"/><path d="m317.01469 70.821195c-.50425 8.352989-1.76079 19.698717-1.77299 19.810749l.96376.107152c.0122-.113455 1.27281-11.481345 1.77705-19.858327l-.96782-.05957" fill="#00afe6"/><path d="m319.54609 126.96568c0-.67097-.54492-1.21588-1.21589-1.21588s-1.21588.54491-1.21588 1.21588c0 .67301.54491 1.21589 1.21588 1.21589s1.21589-.54288 1.21589-1.21589" fill="#1a162c"/><path d="m319.86938 120.87407c0-.673-.54492-1.21588-1.21589-1.21588-.67098 0-1.21588.54288-1.21588 1.21588 0 .67097.5449 1.21589 1.21588 1.21589.67097 0 1.21589-.54492 1.21589-1.21589" fill="#1a162c"/><path d="m319.54609 114.92072c0-.673-.54492-1.21588-1.21589-1.21588s-1.21588.54288-1.21588 1.21588c0 .67097.54491 1.21588 1.21588 1.21588s1.21589-.54491 1.21589-1.21588" fill="#1a162c"/><path d="m320.83313 150.48426s-.37615 3.70865 1.66523 5.18682l.90683-.56524v-2.18371c0-.55914.69537-.88854 1.19555-.56118 1.25655.82956 3.15356 2.24877 3.88554 3.69441 1.13659 2.24471 2.72659.37209 2.32603-2.78352-.40258-3.15356-6.45353-5.77035-6.45353-5.77035z" fill="#fff"/><path d="m321.44311 150.79535 3.01734-2.55376c1.78518.83567 5.45317 2.97261 5.72562 5.11159.24196 1.91328-.33549 2.97464-.59574 3.05596-.0346.008-.25619-.0732-.54085-.63843-.77466-1.53104-2.65948-2.98481-4.10308-3.93637-.43716-.29075-1.00036-.31312-1.46802-.061-.44121.23585-.70349.66691-.70349 1.14878 0 0 .19319 1.25399 0 1.83399-.0566.16975-.21553.1342-.21553.1342-.91488-.15945-1.16912-3.10071-1.11625-4.09497zm2.80588-4.02786-4.0177 3.39958-.0244.25416c-.0183.16469-.38835 4.08886 1.92345 5.76019 0 0 .21212.19738.34362.25009 1.06076.42519 1.42201-.2231 1.56154-.97596.15388-.83033 0-2.53342 0-2.53342.0569-.0468.14029-.0875.21756-.0325 1.86042 1.22402 3.16373 2.45007 3.67001 3.45246.7523 1.48223 1.6754 1.38667 2.03732 1.27281 1.13658-.34769 1.75875-2.2081 1.47817-4.42231-.44325-3.47076-6.56943-6.15668-6.82968-6.27054l-.35989-.15452" fill="#1a162c"/><path d="m299.58975 161.598-3.21659-2.63713c-.8377-.68723-1.34601-1.63879-1.42734-2.65948-.32939-4.0848-.48188-14.98504 6.01231-23.22986.7218-.917 1.84416-1.51071 3.08037-1.60627 1.86652-.14233 3.70255.44324 5.05466 1.61846 2.91364 2.52936 8.31191 7.27904 13.08599 11.81318.42697.40664.42494 1.04305 0 1.45174l-2.95228 2.84248c-.40259.38632-1.05729.44325-1.53104.13215l-11.30689-9.2838s-.63437 7.46202-3.98721 15.63161z" fill="#00afe6"/><path d="m304.58951 130.81258c-.19926 0-.39852.008-.59778.0224-1.40497.10777-2.68999.78077-3.52971 1.8462-6.59179 8.37087-6.4942 19.34228-6.14652 23.66904.0976 1.20164.68725 2.30163 1.6571 3.09867l3.21661 2.63711.79906-.97392-3.21456-2.63915c-.70351-.57745-1.13049-1.36634-1.19962-2.22234-.33549-4.18036-.43512-14.76952 5.88016-22.78865.62014-.7889 1.57982-1.28705 2.63305-1.36634 1.69166-.13013 3.36909.40462 4.59311 1.46394 2.81604 2.446 8.25702 7.22819 13.06361 11.79487.0814.0772.12403.16876.12403.26636 0 .0996-.0427.19519-.12605.27448l-2.95228 2.84248c-.19113.18503-.51848.20942-.74824.0569l-12.17916-10.00357-.10166 1.19351c-.006.0732-.66894 7.47015-3.94247 15.44659l1.16709.47985c2.57815-6.27868 3.57241-12.2117 3.89774-14.65159l10.41226 8.5498c.78077.51848 1.75469.43105 2.36873-.16266l2.95228-2.84248c.33345-.31922.51441-.7401.51441-1.18741-.002-.44325-.18503-.8621-.51644-1.17725-4.8249-4.58295-10.28214-9.38141-13.10632-11.83351-1.32975-1.15489-3.09664-1.79332-4.91843-1.79332" fill="#1a162c"/><path d="m324.11276 146.92608-1.46801-1.02476-3.49311 3.36299 1.4009 1.10202c.25009.19723.62624.183.86007-.0325l2.76521-2.55375c.26433-.24602.23382-.64454-.0651-.85396" fill="#1a162c"/><path d="m323.75085 147.44456.36191-.51848zm-3.63342 1.76485 2.59036-2.49276.99222.69334-2.71642 2.46023zm2.46226-4.12139-4.38775 4.22509 1.97022 1.54933c.49408.38836 1.21792.36192 1.67946-.0651l2.76522-2.55376c.26635-.24806.40461-.58964.38022-.94343-.0244-.35582-.21146-.68114-.51442-.89057l-1.89295-1.3216" fill="#1a162c"/><path d="m313.19218 179.27912-.26838.93327c2.2996.66283 3.7066 1.65099 4.18238 2.93397.56118 1.51273-.38631 2.98887-.39648 3.0031l.80924.53678c.0508-.0772 1.22808-1.88685.50221-3.86723-.58761-1.59407-2.21014-2.78352-4.82897-3.53989" fill="#00afe6"/></g><g fill="#fff"><g transform="matrix(-.72928448 0 0 -.72928448 400.87223 255.99702)"><path d="m97.185666 75.172103c-.52536 0-.95329.4267-.95329.95205 0 .52658.42793.95328.95329.95328.52535 0 .95328-.4267.95328-.95328 0-.52535-.42793-.95205-.95328-.95205zm0 2.76982c-1.00138 0-1.81654-.81516-1.81654-1.81777 0-1.00139.81516-1.81654 1.81654-1.81654s1.81777.81515 1.81777 1.81654c0 1.00261-.81639 1.81777-1.81777 1.81777"/><path d="m102.27147 82.670093h-.86448v-4.39027h.86448z"/><path d="m99.643476 80.907833h4.391514v-.8645h-4.391514z"/></g><path d="m331.87946 104.87006c.38314 0 .69523-.31118.69523-.69431 0-.38403-.31209-.69521-.69523-.69521-.38312 0-.69521.31118-.69521.69521 0 .38313.31209.69431.69521.69431zm0-2.01998c.73029 0 1.32477.59448 1.32477 1.32567 0 .7303-.59448 1.32477-1.32477 1.32477s-1.32567-.59447-1.32567-1.32477c0-.73119.59538-1.32567 1.32567-1.32567"/><g transform="matrix(.72928448 0 0 -.72928448 281.92291 235.15523)"><path d="m8.78988 135.5694h.86448v-4.39027h-.86448z"/><path d="m11.417874 133.80714h-4.391514v-.8645h4.391514z"/></g></g></g></svg>