<svg height="200" viewBox="0 0 132 200.00001" width="132" xmlns="http://www.w3.org/2000/svg"><g fill="#1a162c" transform="matrix(1.00000000167 0 0 1.00000000167 -131.46019876304 -63.24681308148)"><path d="m181.94122 242.27039-2.2538 1.30207c-.23044.13302-.63511.11615-.90115-.0375l-2.12452-1.22713c-.26792-.15363-.29603-.38594-.0655-.52083l2.25379-1.3002c.23232-.13301.63511-.11615.90303.0375l2.12452 1.22713c.26604.15363.29414.38594.0637.51896"/><path d="m187.49234 245.47592-2.2538 1.30019c-.23232.13489-.63511.11803-.90302-.0374l-2.12453-1.22526c-.26603-.15551-.29601-.38782-.0637-.52083l2.25379-1.30208c.23044-.13301.63511-.11615.90115.0375l2.12453 1.22713c.26791.15362.296.38781.0655.52083"/><path d="m181.96557 248.66646-2.2538 1.3002c-.23043.13301-.63511.11802-.90114-.0375l-2.12453-1.22525c-.26791-.15551-.29602-.38781-.0655-.52083l2.25381-1.30208c.2323-.13302.63511-.11615.90301.0375l2.12453 1.22713c.26603.15363.29413.38593.0637.52083"/><path d="m192.73622 248.50346-2.2538 1.30208c-.23043.13302-.63512.11615-.90114-.0375l-2.12453-1.22713c-.26791-.15362-.29601-.38781-.0655-.52083l2.2538-1.30019c.23231-.13489.63511-.11803.90302.0374l2.12453 1.22527c.26603.15362.296.38781.0638.52082"/><path d="m187.21132 251.69401-2.2538 1.30207c-.23231.13301-.63511.11615-.90302-.0375l-2.12453-1.22713c-.26603-.15362-.296-.38781-.0638-.52083l2.2538-1.30019c.23043-.13489.63511-.11803.90114.0356l2.12453 1.22713c.26791.15362.29602.38781.0655.52083"/><path d="m197.98197 251.53101-2.2538 1.30208c-.23231.13301-.63511.11615-.90302-.0375l-2.12265-1.22715c-.26791-.15363-.29601-.38593-.0655-.51895l2.2538-1.30208c.23043-.13301.63511-.11615.90114.0375l2.12453 1.22713c.26791.15363.29602.38593.0655.51895"/><path d="m192.4552 254.72155-2.25381 1.30208c-.23043.13301-.63511.11615-.90114-.0375l-2.12453-1.22713c-.2679-.15363-.29601-.38593-.0655-.52083l2.25379-1.30019c.23232-.13302.63512-.11616.90303.0375l2.12452 1.22714c.26604.15363.29601.38593.0638.51895"/><path d="m198.00632 257.92708-2.25379 1.30019c-.23232.1349-.63512.11804-.90303-.0375l-2.12452-1.22526c-.26604-.15363-.29414-.38781-.0638-.52083l2.25379-1.30207c.23044-.13302.63512-.11615.90115.0375l2.12453 1.22713c.26791.15363.296.38781.0655.52083"/><path d="m208.77698 257.76408-2.2538 1.30208c-.23231.13302-.63511.11616-.90115-.0375l-2.12452-1.22714c-.26791-.15362-.29602-.38781-.0655-.52082l2.25379-1.3002c.23044-.13489.63511-.11803.90115.0374l2.12453 1.22526c.26791.1555.29601.38781.0655.52082"/><path d="m214.30187 254.57355-2.25379 1.30207c-.23044.13301-.63324.11615-.90115-.0375l-2.12453-1.22713c-.26603-.15363-.296-.38594-.0637-.52083l2.25381-1.3002c.23044-.13302.63324-.11615.90115.0375l2.12452 1.22526c.26603.1555.29601.38781.0637.52083"/><path d="m219.82866 251.38301-2.25381 1.30206c-.23044.13302-.63511.11616-.90114-.0374l-2.12453-1.22713c-.26791-.15363-.29601-.38595-.0655-.52083l2.25379-1.3002c.23231-.13302.63511-.11616.90115.0375l2.12453 1.22526c.26791.15549.296.38781.0655.52083"/><path d="m231.18382 245.00755-2.25379 1.30206c-.23232.13302-.63511.11616-.90115-.0375l-2.12453-1.22712c-.26791-.15363-.29601-.38595-.0655-.51897l2.25381-1.30206c.23044-.13302.63511-.11616.90114.0375l2.12452 1.22713c.26792.15362.29603.38594.0655.51896"/><path d="m236.70873 241.81701-2.25381 1.30207c-.23043.13301-.63323.11615-.90114-.0375l-2.12453-1.22713c-.26603-.15362-.296-.38594-.0638-.51895l2.2538-1.30207c.23043-.13302.63323-.11616.90114.0375l2.12453 1.22713c.26604.15363.29602.38594.0637.51896"/><path d="m242.2355 238.62834-2.25379 1.3002c-.23044.13302-.63512.11615-.90115-.0375l-2.12453-1.22525c-.26791-.1555-.29601-.38782-.0655-.52083l2.2538-1.30207c.23231-.13302.63511-.11616.90115.0374l2.12452 1.22714c.26791.15363.29602.38594.0655.52083"/><path d="m247.82785 235.51836-2.25567 1.30207c-.23045.13301-.63325.11615-.90115-.0375l-2.12452-1.22712c-.26605-.15363-.29603-.38781-.0637-.52083l2.25379-1.3002c.23044-.1349.63511-.11804.90115.0356l2.12453 1.22713c.26603.15362.29601.38781.0655.52083"/><path d="m253.47265 232.27349-2.2538 1.30206c-.23231.13302-.63511.11616-.90301-.0375l-2.12454-1.22712c-.26603-.15363-.29414-.38595-.0636-.52083l2.25378-1.3002c.23045-.13302.63512-.11616.90115.0375l2.12454 1.22526c.2679.15549.296.38781.0655.52083"/><path d="m258.99754 229.08295-2.25379 1.30207c-.23044.13301-.6351.11615-.90115-.0375l-2.12453-1.22713c-.26603-.15362-.29601-.38594-.0655-.52083l2.25568-1.30019c.23044-.13302.63324-.11616.90114.0375l2.12453 1.22526c.26605.1555.29603.38781.0638.52083"/><g transform="translate(68.746294 -103.24197)"><path d="m69.862878 319.86406-2.253804 1.30207c-.230439.13301-.63511.11615-.901148-.0375l-2.124521-1.22713c-.267916-.15363-.296024-.38594-.06553-.52083l2.253794-1.3002c.232317-.13301.63511-.11615.903026.0375l2.124521 1.22713c.266038.15363.294137.38594.06369.51896"/><path d="m75.414003 323.06959-2.253803 1.30019c-.232317.13489-.63511.11803-.903017-.0374l-2.12453-1.22527c-.266039-.1555-.296015-.38781-.06369-.52082l2.253795-1.30208c.230439-.13301.63511-.11615.901148.0375l2.124531 1.22713c.267906.15362.296004.38781.06553.52083"/><path d="m69.887231 326.26013-2.253804 1.3002c-.230429.13301-.63511.11802-.901139-.0375l-2.124531-1.22525c-.267906-.15551-.296014-.38781-.06553-.52083l2.253804-1.30208c.232307-.13302.63511-.11615.903016.0375l2.124531 1.22713c.266029.15363.294127.38593.06369.52083"/></g><g transform="translate(63.829083 -103.75043)"><path d="m74.814548 333.94521-2.253804 1.30206c-.230439.13302-.63511.11616-.901148-.0375l-2.124522-1.22713c-.267916-.15363-.296024-.38594-.06553-.52083l2.253795-1.3002c.232316-.13302.63511-.11616.903026.0375l2.124521 1.22713c.266038.15363.294136.38594.06369.51896"/><path d="m80.365673 337.15074-2.253804 1.30019c-.232316.13489-.63511.11803-.903016-.0375l-2.124531-1.22526c-.266038-.1555-.296014-.38781-.06369-.52083l2.253795-1.30207c.230438-.13301.635109-.11615.901148.0375l2.124531 1.22713c.267906.15362.296004.38781.06553.52083"/><path d="m74.8389 340.34128-2.253804 1.30019c-.230429.13302-.63511.11803-.901138-.0375l-2.124531-1.22526c-.267906-.1555-.296014-.38781-.06553-.52082l2.253804-1.30208c.232307-.13302.63511-.11616.903016.0375l2.124531 1.22713c.266028.15362.294127.38593.06369.52083"/><path d="m85.609547 340.17828-2.253794 1.30208c-.230439.13302-.63512.11614-.901148-.0375l-2.124531-1.22713c-.267906-.15363-.296005-.38781-.06553-.52083l2.253804-1.3002c.232307-.13488.63511-.11802.903016.0375l2.124531 1.22526c.266028.15363.296004.38781.06378.52083"/><path d="m80.084652 343.36882-2.253804 1.30208c-.232307.13301-.63511.11615-.903016-.0375l-2.124531-1.22713c-.266029-.15362-.296005-.38781-.06379-.52083l2.253804-1.30019c.230429-.13489.63511-.11803.901138.0356l2.124531 1.22712c.267907.15363.296015.38781.06553.52083"/><path d="m90.855299 343.20583-2.253804 1.30207c-.232307.13302-.63511.11616-.903016-.0375l-2.122653-1.22714c-.267907-.15363-.296005-.38594-.06553-.51896l2.253805-1.30207c.230429-.13302.635109-.11616.901138.0375l2.124531 1.22713c.267906.15362.296014.38593.06553.51895"/><path d="m85.328526 346.39637-2.253804 1.30207c-.230429.13301-.63511.11615-.901139-.0375l-2.12453-1.22712c-.267907-.15363-.296015-.38594-.06553-.52083l2.253795-1.3002c.232316-.13302.635119-.11616.903026.0375l2.124521 1.22714c.266038.15362.296014.38593.06379.51895"/><path d="m96.404556 346.41135-2.253804 1.30021c-.230429.13489-.63511.11803-.901148-.0375l-2.124521-1.22526c-.266038-.15363-.296014-.38781-.06553-.52082l2.255672-1.30207c.230439-.13302.633242-.11616.901148.0375l2.124521 1.22713c.266039.15363.296015.38781.06378.52082"/><path d="m90.879651 349.6019-2.253794 1.30019c-.232316.1349-.63512.11804-.903026-.0375l-2.124521-1.22526c-.266038-.15362-.294136-.38781-.06378-.52083l2.253795-1.30206c.230438-.13302.635119-.11616.901148.0375l2.124531 1.22713c.267906.15362.296004.38781.06553.52083"/><path d="m101.65031 349.4389-2.253806 1.30208c-.232307.13301-.63511.11615-.901148-.0375l-2.124521-1.22714c-.267907-.15363-.296015-.38781-.06553-.52082l2.253794-1.30021c.230439-.13489.63511-.11802.901148.0375l2.124533 1.22526c.2679.1555.296.38781.0655.52082"/></g><path d="m171.29369 242.50251-2.2538 1.30207c-.23043.13301-.63511.11615-.90114-.0375l-2.12453-1.22713c-.26604-.15362-.29601-.38781-.0655-.52083l2.25568-1.30019c.23043-.13489.63324-.11803.90114.0356l2.12453 1.22713c.26603.1555.29601.38781.0637.52083"/><path d="m176.82047 239.31197-2.2538 1.30207c-.23231.13302-.63512.11615-.90115-.0375l-2.12453-1.22713c-.2679-.15362-.296-.38781-.0655-.52083l2.2538-1.30019c.23043-.13489.63511-.11803.90115.0375l2.12452 1.22527c.26791.1555.29601.38781.0655.52082"/><path d="m176.53945 245.53005-2.25381 1.30208c-.23231.13301-.63511.11615-.90115-.0375l-2.12452-1.22713c-.2679-.15362-.29601-.38594-.0655-.51895l2.2538-1.30207c.23044-.13302.63512-.11616.90115.0374l2.12453 1.22714c.2679.15363.296.38593.0655.51895"/><path d="m203.53123 254.73654-2.25381 1.3002c-.23043.13489-.63511.11803-.90114-.0375l-2.12453-1.22526c-.26603-.15362-.29601-.38781-.0655-.52082l2.25567-1.30207c.23044-.13302.63324-.11616.90115.0375l2.12452 1.22714c.26604.15362.29601.38781.0638.52082"/><path d="m209.058 251.546-2.2538 1.30207c-.23231.13302-.63511.11616-.90114-.0375l-2.12453-1.22713c-.26791-.15362-.29601-.38781-.0655-.52083l2.2538-1.30207c.23043-.13302.63511-.11616.90114.0375l2.12453 1.22714c.26791.15362.29602.38781.0655.52082"/><path d="m214.58291 248.35546-2.25381 1.30207c-.23045.13302-.63324.11615-.90115-.0375l-2.12452-1.22713c-.26605-.15363-.29602-.38781-.0638-.52083l2.25379-1.3002c.23044-.13489.63323-.11803.90115.0356l2.12453 1.22714c.26603.15363.29601.38781.0637.52083"/><path d="m220.10967 245.16492-2.2538 1.30207c-.23043.13301-.63511.11615-.90113-.0374l-2.12454-1.22713c-.26791-.15363-.29601-.38781-.0655-.52083l2.25379-1.3002c.23232-.13489.63511-.11802.90114.0375l2.12454 1.22526c.26791.1555.29601.38781.0655.52083"/><path d="m225.70202 242.05494-2.25567 1.30207c-.23044.13302-.63325.11616-.90115-.0375l-2.12453-1.22715c-.26603-.15362-.29601-.38593-.0637-.51895l2.25379-1.30207c.23044-.13302.63511-.11616.90115.0375l2.12453 1.22714c.26603.15362.29601.38593.0655.51895"/><path d="m231.46485 238.78946-2.2538 1.30207c-.23231.13301-.63511.11615-.90115-.0375l-2.12452-1.22713c-.26791-.15363-.29601-.38595-.0655-.52083l2.2538-1.3002c.23231-.13302.63512-.11802.90114.0375l2.12454 1.22526c.2679.1555.296.38781.0655.52083"/><path d="m236.98975 235.59892-2.2538 1.30207c-.23044.13301-.63324.11615-.90114-.0375l-2.12454-1.22713c-.26602-.15362-.296-.38594-.0637-.52082l2.25379-1.3002c.23044-.13302.63511-.11616.90115.0375l2.12453 1.22714c.26603.15362.296.38593.0637.51895"/><path d="m242.51653 232.40838-2.2538 1.30207c-.23045.13302-.63511.11616-.90115-.0375l-2.12452-1.22713c-.26792-.15362-.29603-.38593-.0655-.51895l2.25379-1.30207c.23232-.13302.63511-.11616.90115.0375l2.12453 1.22712c.26791.15363.29601.38594.0655.51896"/><path d="m248.10887 229.30027-2.25567 1.3002c-.23044.13488-.63324.11802-.90115-.0375l-2.12453-1.22526c-.26603-.15363-.29601-.38781-.0638-.52083l2.25381-1.30208c.23044-.13301.63511-.11615.90115.0375l2.12452 1.22713c.26604.15363.29601.38781.0655.52083"/><path d="m253.75367 226.0554-2.2538 1.30206c-.23231.13302-.63512.11616-.90302-.0374l-2.12452-1.22713c-.26604-.15363-.29414-.38781-.0637-.52083l2.25379-1.3002c.23044-.1349.63512-.11803.90115.0356l2.12453 1.22713c.26791.15362.29601.38781.0655.52083"/><path d="m259.27857 222.86486-2.2538 1.30207c-.23043.13301-.63511.11615-.90114-.0375l-2.12453-1.22713c-.26604-.15362-.29601-.38781-.0655-.52083l2.25568-1.30019c.23043-.13489.63324-.11803.90114.0356l2.12453 1.22713c.26603.1555.29601.38781.0637.52083"/><path d="m225.35553 248.19259-2.25381 1.30206c-.23044.13302-.63511.11616-.90114-.0374l-2.12453-1.22713c-.26791-.15363-.29601-.38595-.0655-.52083l2.25379-1.3002c.23231-.13302.63511-.11616.90115.0375l2.12453 1.22526c.26791.15549.296.38781.0655.52083"/></g><g transform="matrix(1.00000000167 0 0 1.00000000167 -128.93631882614 -63.22110641545)"><path d="m190.58423 121.72103c-.52536 0-.95329.4267-.95329.95205 0 .52658.42793.95328.95329.95328.52535 0 .95328-.4267.95328-.95328 0-.52535-.42793-.95205-.95328-.95205zm0 2.76982c-1.00138 0-1.81654-.81516-1.81654-1.81777 0-1.00139.81516-1.81654 1.81654-1.81654s1.81777.81515 1.81777 1.81654c0 1.00261-.81639 1.81777-1.81777 1.81777" fill="#fff"/><path d="m195.67003 129.21902h-.86448v-4.39027h.86448z" fill="#fff"/><path d="m197.43355 127.45676h-4.39151v-.8645h4.39151z" fill="#fff"/><g fill="#fff" transform="translate(13.75502 -7.2818)"><path d="m118.02756 203.43943h-.86325v-4.39151h.86325z"/><path d="m119.79108 201.67591h-4.39151v-.86449h4.39151z"/></g><path d="m258.29701 194.65157c-.52659 0-.95329-.4267-.95329-.95328 0-.52535.4267-.95204.95329-.95204.52535 0 .95205.42669.95205.95204 0 .52658-.4267.95328-.95205.95328zm0-2.76981c-1.00261 0-1.81778.81516-1.81778 1.81653 0 1.00261.81517 1.81777 1.81778 1.81777 1.00138 0 1.81654-.81516 1.81654-1.81777 0-1.00137-.81516-1.81653-1.81654-1.81653" fill="#fff"/><g fill="#1a162c"><path d="m151.44289 223.72204-.8765.50587c-.0902.0521-.24643.0451-.3506-.014l-.82541-.47682c-.10418-.0601-.1152-.15125-.0261-.20234l.87651-.50587c.0902-.0521.24642-.0461.3506.014l.82541.47681c.10417.0601.11519.15026.026.20234"/><path d="m149.29421 224.96217-.8765.50587c-.0891.0521-.24642.0461-.3506-.014l-.82541-.47681c-.10418-.0602-.1152-.15027-.0251-.20235l.87651-.50587c.0891-.0521.24642-.0451.3496.014l.82641.47682c.10418.0601.11519.15126.0251.20235"/><path d="m153.48138 224.89906-.87651.50587c-.0891.0521-.24642.0461-.3506-.014l-.8254-.47682c-.10418-.0601-.1152-.15026-.0251-.20235l.87651-.50587c.0891-.0521.24642-.0451.3496.014l.82641.47681c.10317.0601.11519.15126.0251.20235"/><path d="m151.3337 226.13918-.8765.50687c-.0902.0511-.24642.0451-.3506-.0151l-.82642-.47682c-.10317-.06-.11419-.15026-.0251-.20235l.87651-.50586c.0902-.0521.24642-.0451.3506.014l.82541.47682c.10418.0601.1152.15126.0261.20235"/><path d="m155.63907 226.1452-.87649.50586c-.0891.0521-.24643.0451-.3506-.0151l-.82542-.47682c-.10418-.0591-.1152-.15025-.0251-.20234l.87651-.50587c.0891-.0511.24642-.0451.3496.0151l.82641.4768c.10317.0602.11519.15027.0251.20236"/><path d="m153.4914 227.38532-.87651.50586c-.0902.0521-.24742.0451-.3506-.014l-.82641-.47681c-.10317-.0601-.11419-.15127-.0251-.20235l.8765-.50587c.0902-.0521.24642-.0461.3506.014l.82541.47682c.10418.0601.1152.15025.0261.20235"/><path d="m157.67756 227.32221-.8755.50587c-.0902.0521-.24742.0451-.3506-.014l-.82641-.47682c-.10318-.0601-.1142-.15127-.0251-.20235l.87651-.50587c.0902-.0521.24642-.0461.3506.014l.82542.47682c.10417.0601.11519.15026.0251.20235"/><path d="m155.52989 228.56233-.87651.50587c-.0891.0521-.24642.0461-.3506-.014l-.8254-.47682c-.10418-.0601-.1152-.15025-.0251-.20234l.8755-.50586c.0902-.0521.24742-.0461.3506.014l.82641.47682c.10318.0601.1152.15025.0251.20234"/><path d="m159.71706 228.49922-.87651.50587c-.0891.0521-.24642.0461-.3506-.014l-.82541-.47681c-.10418-.0601-.11519-.15026-.0251-.20235l.8755-.50586c.0902-.0521.24742-.0461.3506.014l.82641.47682c.10318.0601.1152.15025.0251.20234"/><path d="m157.56838 229.73935-.8755.50586c-.0902.0521-.24743.0461-.3506-.014l-.82642-.47682c-.10317-.06-.11419-.15025-.0251-.20234l.87651-.50586c.0902-.0521.24642-.0451.3506.014l.8254.47681c.10418.06.1152.15126.0251.20235"/><path d="m161.87475 229.74535-.87651.50587c-.0902.0521-.24642.0451-.3506-.0151l-.8254-.47681c-.10418-.0591-.1152-.15026-.0251-.20235l.8755-.50587c.0902-.0511.24743-.0451.3506.0151l.82642.47682c.10317.0601.11519.15025.0251.20234"/><path d="m159.72607 230.98548-.8755.50587c-.0902.0521-.24742.0451-.3506-.014l-.82641-.47681c-.10318-.0601-.1152-.15127-.0251-.20235l.87651-.50687c.0902-.0511.24642-.0451.3506.0151l.82541.47682c.10418.0601.11519.15026.0251.20235"/><path d="m147.36491 221.36802-.8765.50586c-.0902.0521-.24643.0451-.3506-.0151l-.82542-.47682c-.10418-.0591-.11519-.15026-.026-.20235l.8765-.50586c.0902-.0511.24742-.0451.3506.0151l.82641.47682c.10318.06.1142.15026.0251.20235"/><path d="m145.21623 222.60814-.87651.50586c-.0891.0521-.24642.0451-.34959-.0151l-.82641-.47681c-.10318-.0591-.1152-.15026-.0251-.20235l.87651-.50587c.0891-.0511.24642-.0451.3506.0151l.82541.47682c.10417.06.11519.15025.0251.20234"/><path d="m149.4034 222.54503-.8765.50586c-.0891.0521-.24643.0451-.3496-.014l-.82642-.47781c-.10317-.0591-.11519-.15026-.0251-.20135l.87649-.50687c.0891-.0511.24642-.0451.3506.0151l.82542.47682c.10418.0601.1152.15025.0251.20234"/><path d="m147.25572 223.78515-.8765.50587c-.0902.0521-.24642.0451-.3506-.014l-.82541-.47682c-.10418-.0601-.1152-.15125-.0261-.20234l.87651-.50587c.0902-.0521.24642-.0461.3506.014l.82642.47681c.10317.0602.11418.15026.0251.20235"/><path d="m147.44505 202.51975-8.39839-1.09087-1.42243 2.00042-.8184 4.92944.63709 2.00544 1.60374 2.71164 1.95735 1.09087 5.80495.62907z"/></g><path d="m196.70538 245.17478-57.65872-33.289 57.13282-27.35684 57.65871 27.74951c.89854.51889.78635 1.42544-.25143 2.02447l-53.37538 30.7266c-1.03777.59903-2.60746.66415-3.506.14526" fill="#fff"/><path d="m196.93377 244.7801c.7583.43675 2.15569.37164 3.04922-.14625l53.37638-30.7266c.39368-.2274.62908-.50788.62908-.74929 0-.2314-.23741-.40269-.37864-.48483l-57.43133-27.63832-56.15414 26.88804zm1.29822 1.20106c-.65111 0-1.27718-.13524-1.755-.41071l-58.408-33.72273 58.11049-27.82564 57.85705 27.84567c.56797.32656.86448.77833.86448 1.29021 0 .58-.39567 1.14095-1.08586 1.53964l-53.37638 30.7276c-.63809.36863-1.44047.55596-2.20678.55596" fill="#1a162c"/><path d="m249.9285 211.69145.0421-7.17729-18.14807 1.95334-36.83706-21.28143-29.56963 16.94101-23.41309 2.27989c-2.00042 5.45535-.37664 5.8971-.37664 5.8971l54.37809 31.41578c.89855.51889 2.46824.45378 3.50601-.14524l49.60192-28.48878c.68818-.39667.8164-1.39438.8164-1.39438" fill="#00afe6"/><path d="m142.3333 204.83371c-1.55467 4.37649-.55996 5.03763-.54895 5.04263l.0691.0321 54.3791 31.41579c.7583.43774 2.15369.37163 3.04922-.14525l49.60292-28.48877c.38266-.22138.54894-.79737.58701-1.03377l.0391-6.63436-17.78746 1.91528-36.73889-21.22534-29.42738 16.85987zm55.19749 37.69253c-.65111 0-1.27618-.13523-1.755-.4117l-54.34805-31.39876c-.13623-.0581-.40168-.21437-.60404-.60604-.54192-1.0508-.28949-3.02217.75029-5.85903l.0992-.26946 23.60041-2.29894 29.71287-17.02314 36.93623 21.33953 18.50668-1.99341-.0491 7.74426c-.006.0491-.16629 1.2271-1.03978 1.73197l-49.60293 28.48877c-.63809.36863-1.44047.55595-2.20678.55595" fill="#1a162c"/><path d="m198.15686 242.02238c.48484-.0702.95764-.21938 1.35332-.44777l49.60192-28.48878c.68818-.39667.8164-1.39438.8164-1.39438l.0421-7.17729-18.14807 1.95334-12.00855-6.93788-22.34025 9.46021.68316 33.03255" fill="#1a162c"/><path d="m253.58676 214.30292-53.37438 30.7266c-1.03777.59903-2.60746.66415-3.506.14526l-56.0199-32.34137c-.79536-.4598-1.37636-1.21809-1.58973-2.11162-.51087-2.14467-.48182-4.00887.26044-6.38293.19634-.62707.89253-.94261 1.46151-.61405l55.97984 32.31933c.89854.51889 2.46822.45378 3.506-.14524l53.37538-30.72762c1.03778-.59902 1.53964-3.98782.64009-4.50671l-.023-.013c.45579.52289.24042 1.22509-.61705 1.72094l-53.37538 30.72661c-1.03778.59902-2.60746.66414-3.506.14525l-52.97169-30.58336-4.56281-2.70564s-3.36677-2.26487-3.36677 5.64667c0 7.91054 1.99041 7.79435 3.14939 9.08255l57.65971 33.28999c.89855.51889 2.46824.45378 3.50601-.14524l53.37438-30.72761c.72123-.41571 1.44948-3.67328.74528-4.35546-.10919.29952.11319.91758-.74528 1.55667" fill="#00afe6"/><path d="m139.33516 214.32496 57.59861 33.25393c.7583.43775 2.15569.37164 3.05022-.14525l53.37538-30.72661c.19333-.1212.62207-1.06482.76431-2.26087-.0781.0742-.16529.14926-.26445.22238l-.0451.03-53.37438 30.7266c-1.18001.68117-2.92.74628-3.96278.14525l-56.01891-32.34237c-.90855-.5239-1.56667-1.39939-1.80509-2.40111-.55294-2.32498-.47581-4.24427.26846-6.62434.14025-.44877.4658-.80137.89354-.96766.40569-.15727.85446-.12321 1.2311.0942l55.98084 32.31933c.7593.43774 2.1567.37163 3.04922-.14526l53.37639-30.7266c.36061-.20936.77532-1.20506.86147-2.28991-.1202.10016-.25644.19433-.40569.28047l-53.37638 30.72761c-1.18103.68116-2.92101.74527-3.96179.14525l-52.97169-30.58336-4.56782-2.70964c-.0461-.03-.67816-.43475-1.27418-.11319-.5239.28448-1.4024 1.35832-1.4024 5.36819 0 6.29077 1.27418 7.30551 2.29893 8.1209.2294.18332.4648.37063.68217.60203zm58.89683 34.45599c-.65111 0-1.27718-.13524-1.755-.41171l-57.72082-33.32505-.0491-.0541c-.1793-.20035-.39467-.37164-.62306-.55296-1.17801-.9376-2.64352-2.1046-2.64352-8.83512 0-3.42987.63709-5.50743 1.89324-6.17658 1.08185-.57598 2.13965.12122 2.18474.15027l4.54177 2.6926 52.96668 30.58136c.7573.43775 2.15469.37164 3.04922-.14525l53.37639-30.7276c.3536-.20436.57798-.45178.61605-.67816.02-.12122-.018-.2344-.1162-.3476l-1.66485-1.91228 2.22782 1.21208c.60703.3496.72724 1.18703.72724 1.83114 0 1.12593-.41271 2.95306-1.33428 3.48497l-53.37638 30.7276c-1.18103.68116-2.919.74527-3.96179.14424l-55.98085-32.31933c-.13722-.0791-.29449-.0921-.44275-.034-.16729.0651-.29751.20736-.35461.38967-.69018 2.20979-.7633 3.98883-.25042 6.14152.18031.75729.68116 1.42143 1.37234 1.82111l56.01991 32.34238c.7583.43775 2.15469.37063 3.05022-.14625l53.35135-30.71259c.45778-.34859.47881-.6441.49985-.93059.01-.13122.0191-.26746.0691-.40168l.24342-.65713.50186.48683c.47581.46079.4668 1.43145.37565 2.16571-.10218.82441-.48684 2.49527-1.21008 2.91299l-53.37538 30.7276c-.63909.36763-1.44147.55595-2.20778.55595" fill="#1a162c" stroke="#000" stroke-linecap="square" stroke-width=".4"/><path d="m196.92275 233.24435-58.46309-33.71473 55.2526-31.81045c1.16299-.67215 2.59744-.67215 3.76144 0l56.58187 32.62886c.89853.51889.78635 1.42544-.25143 2.02447l-53.37438 30.7266c-1.03778.59902-2.60847.66414-3.50701.14525" fill="#fff"/><path d="m139.37323 199.53063 57.77791 33.31905c.7583.43774 2.15569.37163 3.05022-.14526l53.37538-30.7276c.39368-.22739.63009-.50787.63009-.74929 0-.23139-.23742-.40269-.37966-.48483l-56.58187-32.62786c-1.01774-.588-2.28591-.589-3.30566 0zm59.07614 34.5201c-.65112 0-1.27719-.13523-1.75501-.4107l-59.14826-34.11041 55.93776-32.20613c1.30124-.75029 2.917-.74929 4.21822.00094l56.58087 32.62786c.53893.31153.83544.7643.83544 1.27518 0 .57999-.39569 1.14096-1.08587 1.53963l-53.37538 30.72761c-.63909.36863-1.44146.55596-2.20777.55596" fill="#1a162c" stroke="#000" stroke-width=".8"/><path d="m204.2523 224.27399c-3.09831-1.71794-8.01773-1.70191-11.07496.0561l-36.71686-21.1993c3.0943-1.78706 3.0943-4.68402 0-6.47008l34.21558-19.67468c3.09529 1.78706 8.11289 1.78706 11.20719 0l36.60366 21.13218c-3.0953 1.78706-3.0953 4.68402 0 6.47108l-34.23461 19.68468" fill="#00afe6"/><path d="m193.17734 224.85599-37.62943-21.7252.68418-.39467c1.34931-.77933 2.09258-1.78806 2.09258-2.84086 0-1.0518-.74327-2.06053-2.09258-2.83987l-.68618-.39568 35.13215-20.20058.22739.13122c2.96307 1.71193 7.78733 1.71193 10.7494 0l.2284-.13122 37.51622 21.65908-.68416.39568c-1.35032.77933-2.09359 1.78806-2.09359 2.83986s.74327 2.06053 2.09359 2.83986l-.45679.79036c-1.64381-.94863-2.54936-2.23784-2.54936-3.63022 0-1.19705.67015-2.31897 1.90326-3.2125l-35.73319-20.63032c-3.15139 1.68288-8.04577 1.68388-11.19817-.00093l-33.34508 19.17382c1.23211.89353 1.90126 2.01445 1.90126 3.2115 0 1.19805-.66915 2.31897-1.90326 3.2135l35.84837 20.69643c3.21049-1.71293 8.10888-1.6949 11.29133.0702l-.44276.79737c-2.95606-1.63881-7.72322-1.61677-10.62519.0521l-.22839.13122" fill="#1a162c" stroke="#000" stroke-linecap="square" stroke-width=".6"/><path d="m198.15686 236.39074c.67617-.007 1.38137-.16929 1.93732-.48984l53.37438-30.7266c1.03778-.60004 1.53963-3.98884.6411-4.50773l-.024-.013c.45578.52289.24142 1.22509-.61705 1.72095l-53.37438 30.7266c-.55595.32055-1.26116.48283-1.93732.48984v2.79979" fill="#1a162c"/><path d="m200.00103 247.83132 53.37437-30.7266c.72123-.41672 1.49656-2.95507.79336-3.63723-.11019.29851-.37064.59301-.79336.83743l-53.37437 30.72661c-.52991.30552-1.19706.47081-1.84417.49184v2.79879c.64711-.021 1.31426-.18532 1.84417-.49084" fill="#1a162c"/><path d="m199.14856 236.62714-.21035-.66915c.81338-.25443 1.59873-.59902 2.33499-1.02375l47.8339-27.52812.34959.60903-47.83289 27.52713c-.78134.45077-1.61377.8164-2.47524 1.08486" fill="#00afe6" stroke="#00afe6" stroke-linecap="square" stroke-width=".4"/><path d="m199.10649 239.77252-.12621-.40169c.8224-.25643 1.61777-.60503 2.36304-1.03577l47.83389-27.52812.20936.36562-47.83289 27.52713c-.77132.44576-1.59573.80738-2.44719 1.07283" fill="#00afe6" stroke="#00afe6" stroke-linecap="square" stroke-width=".4"/><path d="m198.45938 239.83463c-.80037 0-1.58872-.21136-2.2809-.61104l-54.91001-31.73634.26345-.45578 54.91001 31.73634c.61204.3536 1.31024.54092 2.01745.54092z" fill="#1a162c" stroke="#000" stroke-width=".4"/><path d="m162.91853 241.96528 6.67544-3.62821c2.42415-1.37837 4.27131-3.57212 5.24898-6.18359 1.32427-3.53505 3.85961-6.48711 7.15625-8.33026l17.04418-9.87992-27.58522-15.83711-16.50125 9.33799c-3.48297 1.87321-6.14653 4.97351-7.4738 8.69989l-.16728.4688c-.98569 2.77075-2.96909 5.07369-5.56253 6.46106l-5.90911 3.11434z" fill="#fff"/><path d="m136.78379 226.2083 26.14176 15.23308 6.45004-3.506c2.30295-1.30924 4.09602-3.42086 5.04063-5.94217 1.36032-3.63222 3.9738-6.67543 7.3606-8.56767l16.35299-9.48023-26.67265-15.31422-16.27487 9.21077c-3.39882 1.82713-5.97724 4.82826-7.26944 8.45548l-.16629.4678c-1.02776 2.88493-3.07927 5.26801-5.77789 6.71148zm26.12673 16.27988-28.00795-16.31894 6.63837-3.499c2.49527-1.33528 4.39452-3.54106 5.34515-6.21063l.16729-.4688c1.36734-3.84058 4.09801-7.01802 7.68816-8.94832l16.71762-9.4622 28.49778 16.36101-17.72834 10.27759c-3.20449 1.79107-5.67372 4.66399-6.95792 8.09486-1.01974 2.72066-2.95505 5.00057-5.45133 6.41999z" fill="#1a162c"/><path d="m166.93942 236.28155-20.80963-11.86431z" fill="#00afe6"/><path d="m173.17209 216.04791 6.60731 3.81453c.54193.31254 1.48855.27347 2.11362-.0881l7.51887-4.34044c.62608-.36162.69319-.90755.15226-1.22009l-6.60731-3.81553c-.54193-.31253-1.48855-.27346-2.11362.0881l-7.51887 4.34043c-.62607.36161-.69419.90756-.15226 1.22109" fill="#00afe6"/><path d="m173.04788 227.38632-19.98321-11.39351.34859-.61005 19.98321 11.39251z" fill="#1a162c" stroke="#000" stroke-linecap="square" stroke-width=".3"/><path d="m175.06734 224.66666-19.98321-11.3925.34758-.61104 19.98423 11.3935z" fill="#1a162c" stroke="#000" stroke-linecap="square" stroke-width=".3"/><path d="m177.1489 208.9758-8.62176-4.91641.34759-.61005 8.62276 4.91642z" fill="#1a162c"/><path d="m173.69799 210.92314-8.62276-4.91642.3486-.61004 8.62176 4.91641z" fill="#1a162c" stroke="#000" stroke-linecap="square" stroke-width=".3"/><path d="m170.24708 212.9496-8.62276-4.91541.3486-.61005 8.62176 4.91542z" fill="#1a162c" stroke="#000" stroke-linecap="square" stroke-width=".3"/><path d="m163.38533 237.89531-19.98321-11.39351.3486-.61004 19.98321 11.39351z" fill="#1a162c" stroke="#000" stroke-linecap="square" stroke-width=".3"/><path d="m144.92372 173.75851-8.39937-1.09087-1.42144 2.00042-.8184 4.92944.63609 2.00544 1.60375 2.71064 1.95735 1.09187 5.80493.62907z" fill="#1a162c"/><path d="m194.18306 216.41354-57.65871-33.29 61.07957-29.66479 57.65971 27.74951c.89854.51889.78535 1.42544-.25243 2.02446l-57.32214 33.03457c-1.03677.60002-2.60746.66513-3.506.14625" fill="#fff"/><path d="m194.41145 216.01785c.7583.43775 2.15569.37064 3.04922-.14524l57.32314-33.03456c.39468-.22839.63008-.50887.63008-.75028 0-.2314-.23741-.40269-.37865-.48383l-57.43032-27.63831-60.10791 29.19197zm1.29923 1.20206c-.65212 0-1.27719-.13522-1.755-.4117l-58.404-33.71973 62.05224-30.1366 57.85805 27.84568c.56797.32656.86448.77933.86448 1.2892 0 .581-.39568 1.14196-1.08586 1.54165l-57.32314 33.03455c-.63909.36863-1.44046.55695-2.20677.55695" fill="#1a162c"/><path d="m251.35294 180.62126.0431-7.17729-22.09583 4.26229-32.8893-23.59038-33.51739 19.24896-23.41308 2.2809c-2.00043 5.45434-.37665 5.89609-.37665 5.89609l54.3781 31.41578c.89854.51889 2.46922.45378 3.506-.14524l53.54967-30.79572c.68819-.39769.8154-1.39539.8154-1.39539" fill="#00afe6"/><path d="m139.81197 176.07146c-1.55565 4.3765-.56096 5.03763-.54993 5.04364l.0701.0311 54.37809 31.41678c.75831.43775 2.1547.37164 3.04923-.14525l53.55068-30.79672c.38666-.22338.55195-.81039.587-1.03277l.0391-6.59129-21.74122 4.19419-32.81218-23.53329-33.34709 19.15178zm55.19651 37.69354c-.65112 0-1.27619-.13624-1.75501-.41171l-54.34804-31.39875c-.13624-.0581-.40069-.21437-.60304-.60704-.54293-1.0498-.29049-3.02117.74929-5.85904l.0992-.26945 23.60041-2.29793 33.68667-19.34713 32.96944 23.64648 22.44743-4.33041-.0491 7.78934c-.006.0501-.16629 1.2271-1.03978 1.73196l-53.55066 30.79673c-.63809.36862-1.43946.55695-2.20677.55695" fill="#1a162c"/><path d="m195.63555 213.26114c.48382-.0702.95664-.22038 1.35331-.44877l53.54868-30.79572c.68818-.39769.8154-1.39539.8154-1.39539l.0431-7.17729-18.14807 1.95434-12.00856-6.93787-26.28801 11.76815.68418 33.03255" fill="#1a162c"/><path d="m255.01221 183.23272-57.32215 33.03457c-1.03777.60002-2.60746.66513-3.506.14625l-56.01991-32.34238c-.79536-.45878-1.37635-1.21808-1.58871-2.11161-.51087-2.14467-.48283-4.00887.25944-6.38293.19634-.62607.89253-.94161 1.46151-.61405l55.97983 32.31933c.89854.51889 2.46923.45378 3.50701-.14525l57.32113-33.03455c1.03778-.59903 1.53963-3.98884.6411-4.50772l-.024-.013c.45578.5229.24142 1.2261-.61705 1.72095l-57.32113 33.03456c-1.03778.60002-2.60847.66513-3.50701.14625l-52.97169-30.58336-4.56281-2.70664s-3.36677-2.26487-3.36677 5.64667 1.99042 7.79434 3.1494 9.08356l57.65971 33.28898c.89854.51889 2.46822.45378 3.506-.14525l57.32215-33.03455c.72122-.41671 1.44847-3.67429.74527-4.35546-.11019.29851.11319.91757-.74527 1.55566" fill="#00afe6"/><path d="m136.81284 185.56272 57.59861 33.25493c.7583.43775 2.15569.37064 3.05023-.14525l57.32213-33.03555c.19333-.12122.62307-1.06382.76531-2.25988-.0781.0742-.16629.14826-.26545.22239l-.0441.0291-57.32214 33.03455c-1.18002.68216-2.91999.74627-3.96178.14525l-56.0199-32.34137c-.90856-.5249-1.56669-1.3994-1.80509-2.40111-.55295-2.32598-.47582-4.24527.26845-6.62535.14024-.44776.4658-.80036.89353-.96765.40569-.15627.85447-.12222 1.23111.0952l55.98084 32.31933c.7583.43775 2.15469.37164 3.05022-.14525l57.32314-33.03555c.36062-.20836.77533-1.20507.86148-2.28893-.12121.10018-.25644.19333-.4057.28049l-57.32314 33.03455c-1.18102.68217-2.922.74628-3.96178.14525l-52.97269-30.58336-4.56782-2.70864c-.0461-.03-.67817-.43474-1.27419-.11319-.52389.28349-1.4024 1.35832-1.4024 5.36719 0 6.29077 1.27419 7.30651 2.29895 8.1219.22938.18231.46479.37064.68216.60104zm58.89784 34.45599c-.65212.00093-1.27719-.13524-1.755-.41071l-57.72183-33.32606-.0491-.0541c-.17931-.19933-.39467-.37064-.62207-.55195-1.17802-.9376-2.64453-2.1056-2.64453-8.83612 0-3.42887.63709-5.50743 1.89325-6.17658 1.08185-.57598 2.14066.12122 2.18474.15126l4.54178 2.69262 52.96667 30.58035c.75831.43775 2.15469.37063 3.05022-.14525l57.32315-33.03456c.3536-.20435.57698-.45177.61505-.67816.021-.1212-.017-.2354-.1162-.34759l-1.61376-1.85118 2.17171 1.14797c.61305.35161.73326 1.19005.73326 1.83414 0 1.12593-.41371 2.95206-1.33428 3.48397l-57.32315 33.03556c-1.18102.68117-2.92.74528-3.96178.14524l-55.98084-32.31933c-.13924-.0791-.29551-.0921-.44376-.0351-.16728.0661-.29751.20735-.3536.38967-.69119 2.20978-.76431 3.98882-.25144 6.14151.18031.75829.68118 1.42243 1.37236 1.82111l56.0199 32.34237c.7583.43775 2.15569.37064 3.05023-.14524l57.29909-33.02154c.45779-.34859.47882-.6441.49986-.93059.01-.13123.0191-.26745.0691-.40169l.24342-.65813.50187.48784c.4748.46079.4668 1.43145.37564 2.16471-.10218.82541-.48684 2.49627-1.21008 2.91399l-57.32314 33.03556c-.63809.36862-1.44046.55595-2.20677.55595" fill="#1a162c" stroke="#000" stroke-width=".4"/><path d="m194.40043 204.48311-58.46308-33.71472 59.19935-34.11841c1.16398-.67216 2.59844-.67216 3.76244 0l56.58187 32.62786c.89853.51889.78634 1.42544-.25144 2.02446l-57.32213 33.03456c-1.03778.60002-2.60747.66513-3.50701.14625" fill="#00afe6"/><path d="m136.85091 170.76839 57.77792 33.31904c.75929.43775 2.15569.37063 3.05022-.14524l57.32214-33.03457c.39467-.22838.63007-.50887.63007-.75027 0-.2314-.23741-.4027-.37865-.48384l-56.58187-32.62886c-1.01874-.588-2.28591-.58901-3.30566 0zm59.07614 34.52109c-.65112 0-1.27719-.13622-1.75501-.41169l-59.14826-34.1094 59.88552-34.5141c1.30023-.75128 2.917-.75128 4.21722 0l56.58287 32.62887c.53793.31053.83444.76331.83444 1.27419 0 .57998-.39569 1.14195-1.08586 1.54063l-57.32314 33.03455c-.63809.36864-1.44047.55695-2.20778.55695" fill="#1a162c" stroke="#000" stroke-width=".8"/><path d="m190.1782 198.19835c3.39682-1.95235 8.86218-1.97138 12.30507-.0621l41.98588-24.1804c-3.43888-1.9854-3.43888-5.20391 0-7.18931l-40.41519-23.33294c-.15827-.0921-.3496-.0921-.51187-.006-3.45392 1.84215-8.84114 1.79507-12.19588-.14125l-41.96485 24.16838c3.43789 1.9854 3.43789 5.20391 0 7.18931l40.79684 23.55432" fill="#fff"/><path d="m202.48728 198.66013-.22539-.1252c-3.29864-1.83014-8.61875-1.80309-11.8563.0591l-.45477-.79135c3.47094-1.99542 8.91426-2.06253 12.52544-.18832l41.11439-23.67854c-1.39739-.9917-2.15669-2.24084-2.15669-3.57412 0-1.33429.7593-2.58342 2.15769-3.57512l-39.76608-22.95831c-3.59516 1.88523-8.98538 1.8632-12.47536-.0181l-41.09034 23.66551c1.39638.99069 2.15669 2.23984 2.15669 3.57312 0 1.52861-.99671 2.94504-2.80681 3.99083l-.45679-.79035c1.5166-.8755 2.35104-2.01245 2.35104-3.20048 0-1.18703-.83444-2.32398-2.35104-3.19848l-.68516-.39568 42.87841-24.69527.22838.13122c3.17945 1.83514 8.45248 1.89625 11.75313.13423.30351-.16127.66013-.15727.95564.014l41.09835 23.72762-.68416.39569c-1.5166.87449-2.35104 2.01144-2.35104 3.19947 0 1.18804.83444 2.32398 2.35104 3.19948l.68416.39567-42.89443 24.70329" fill="#1a162c" stroke="#000" stroke-linecap="square" stroke-width=".7"/><path d="m195.63555 207.6295c.67515-.008 1.38137-.17029 1.93631-.49084l57.32214-33.03456c1.03778-.59902 1.53963-3.98883.6401-4.50772l-.023-.012c.45477.52189.2404 1.22509-.61707 1.71995l-57.32213 33.03555c-.55495.32055-1.26116.48283-1.93631.48984v2.79979" fill="#1a162c"/><path d="m197.4787 219.06908 57.32214-33.03456c.72124-.41671 1.49657-2.95505.79336-3.63722-.11019.29851-.37064.59402-.79336.83743l-57.32214 33.03556c-.52891.30552-1.19704.4698-1.84315.49084v2.79979c.64611-.021 1.31424-.18632 1.84315-.49184" fill="#1a162c"/><path d="m196.62624 207.8659-.21036-.67015c.8134-.25343 1.59874-.59802 2.335-1.02375l51.78065-29.83508.3516.60805-51.78065 29.83507c-.78134.45077-1.61476.8164-2.47624 1.08586" fill="#00afe6" stroke="#00afe6" stroke-width=".4"/><path d="m196.58417 211.01128-.12621-.40169c.82241-.25743 1.61776-.60603 2.36305-1.03676l51.78165-29.83509.20935.36463-51.78065 29.83508c-.77132.44676-1.59573.80738-2.44719 1.07383" fill="#00afe6" stroke="#00afe6" stroke-width=".4"/><path d="m195.93706 211.07339c-.80036 0-1.58871-.21136-2.2809-.61205l-54.91001-31.73633.26346-.45578 54.91 31.73633c.61205.35461 1.31025.54093 2.01745.54093z" fill="#1a162c" stroke="#000" stroke-width=".4"/><path d="m176.23133 181.09206 8.19603 4.72108 8.15196-4.59987-8.1169-4.78419z" fill="#fff"/><path d="m180.49362 185.2592 4.79922 2.76473 4.77317-2.69361-4.75314-2.8018z" fill="#fff"/><path d="m216.80078 179.72672-6.17758 2.30595c-.22438.0842-.20434.4077.03.45979 1.96436.43675 7.005 1.50057 7.98868 1.18202 8.95933-2.90598 13.48308-4.69203 14.24338-4.99856.0221-.008.01-.0391-.013-.0381l-16.07151 1.08887" fill="#fff"/><g transform="matrix(1.8271417 0 0 1.8271417 -163.63387 -160.11089)"><g fill="#1a162c"><path d="m177.1519 181.09507 7.27746 4.19218 7.23639-4.083-7.20833-4.24826zm7.27346 5.24298-9.1136-5.24899 9.15566-5.18689 9.02546 5.31911z"/><path d="m188.29799 179.8269h-1.71293c-.52691 0-.95364-.42673-.95364-.95364v-3.31367c0-.5269.42673-.95364.95364-.95364h1.71293c.5269 0 .95363.42674.95363.95364v3.31367c0 .52691-.42673.95364-.95363.95364"/><path d="m186.58506 175.06174c-.27448 0-.49686.22338-.49686.49685v3.31467c0 .27447.22238.49786.49686.49786h1.71293c.27447 0 .49685-.22339.49685-.49786v-3.31467c0-.27347-.22238-.49685-.49685-.49685zm1.71293 5.22194h-1.71293c-.77733 0-1.41042-.63309-1.41042-1.41042v-3.31467c0-.77633.63309-1.40942 1.41042-1.40942h1.71293c.77732 0 1.41041.63309 1.41041 1.40942v3.31467c0 .77733-.63309 1.41042-1.41041 1.41042"/></g><path d="m180.83621 170.45284c-.16728 0-.29851.14425-.28248.31154l.83743 8.42443c0 .50486.49284 1.00972 1.47953 1.25414.54393.13423 1.12093.13423 1.66486 0 .98669-.24442 1.47953-.74928 1.47953-1.25414l.83643-8.42443c.017-.16729-.1142-.31154-.28149-.31154z" fill="#00afe6"/><path d="m181.02754 170.90862.8174 8.2351c.003.30954.3526.66214 1.13494.85647.47381.1162.97267.1162 1.44648 0 .78233-.19333 1.13193-.54693 1.13193-.81138l.82041-8.28019zm2.67558 10.09128c-.31754 0-.63408-.0381-.94161-.1142-1.14396-.28247-1.82713-.91756-1.82713-1.69689l-.83443-8.37935c-.02-.20836.0481-.41571.18832-.56998.13924-.15426.33958-.24342.54794-.24342h5.73381c.20836 0 .40871.0891.54795.24342.14023.15427.20836.36162.18832.56998l-.83743 8.42442c.003.73526-.68117 1.36935-1.82413 1.65182-.30853.0761-.62507.1142-.94161.1142" fill="#1a162c"/><path d="m185.95197 169.15462c1.24112.71724 1.24112 1.87922 0 2.59645-1.24213.71723-3.25557.71723-4.4977 0-1.24113-.71723-1.24113-1.87921 0-2.59645 1.24213-.71722 3.25557-.71722 4.4977 0" fill="#00afe6"/><path d="m183.70312 169.07549c-.73626 0-1.47252.15827-2.02046.47481-.44677.25745-.70321.58701-.70321.90254 0 .31555.25644.64511.70321.90255 1.09487.63309 2.94505.63309 4.03992 0 .44777-.25744.7042-.587.7042-.90255 0-.31553-.25643-.64509-.7042-.90254-.54694-.31654-1.2832-.47481-2.01946-.47481zm0 3.67228c-.89052 0-1.78205-.20033-2.47624-.60202-.74828-.43174-1.15999-1.03277-1.15999-1.69291 0-.66013.41171-1.26115 1.15999-1.69389 1.38838-.80238 3.5641-.80137 4.95248 0 .74828.43274 1.15999 1.03376 1.15999 1.69389 0 .66014-.41171 1.26117-1.15999 1.69291-.69419.40169-1.58572.60202-2.47624.60202" fill="#1a162c"/><path d="m183.42064 172.43724-2.24886-6.3128.85948-.30653 2.24985 6.31381z" fill="#1a162c"/><path d="m181.4132 185.2622 3.88164 2.23683 3.85861-2.17773-3.84558-2.26587zm3.87764 3.28663-5.71679-3.29264 5.74384-3.25458 5.66168 3.33673z" fill="#1a162c"/></g><path d="m210.00615 176.40203-6.39094-4.12406c-.017-.011-.01-.0391.011-.04l6.38693-.26245c.005 0 .011.002.0151.006l.77233.70621c.003.003.005.007.006.011l.55294 2.19575c.002.007 0 .014-.005.0191l-1.32026 1.48555c-.007.007-.0191.009-.0281.003" fill="#1a162c"/><path d="m205.01461 172.63759 4.92543 3.17944.92158-1.03477-.4658-1.84616-.54293-.49686zm5.09872 4.35846-.3546-.21036-6.66942-4.30437.16127-.66714.35361-.0321 6.57726-.27047 1.04279.94562.0321.16629.60403 2.39109-.16227.20035-1.58472 1.78104" fill="#1a162c"/><path d="m199.24573 140.31525 19.92511-11.50269c1.13595-.65713 2.16671-.73927 2.93703-.35461l6.51416 4.01187c.031.0191.0451.0531.029.0861-.29049.60704-2.99413 6.26473-3.23954 7.30752-.10317.43975-.95063 4.76516-1.9313 9.80078 0 .005-.00094.009-.00094.014v2.52533c0 1.41542-.51489 2.98711-1.33729 4.36747-.004.007-.006.014-.008.0221-1.01874 5.25299-1.88623 9.73766-1.90927 9.85486-.002.005-.002.005-.003.009l-9.15767 3.08328-.64511-.0121c-.03-.0181-.0431-.0541-.0311-.0861l.50086-1.42244c.00094-.003.002-.007.003-.011.13022-.67917.2334-1.43946.27547-2.19977l-8.59873 9.56638c-.024.026-.0621.0321-.0911.014l-6.28075-3.88164c-.0341-.0181-.0651-.04-.0972-.0601h-.00093c-.74026-.4658-1.19705-1.41042-1.19705-2.7447v-20.86272c0-2.75872 1.95535-6.14451 4.34444-7.52488" fill="#00afe6"/><path d="m221.09814 128.67832c-.50586 0-1.08886.17631-1.69891.52891l-19.92511 11.5037c-2.23182 1.2882-4.11604 4.55279-4.11604 7.1302v20.86172c0 1.12092.34859 1.95935.98368 2.35904l.0952.0581 6.00628 3.71236 9.24984-10.29062-.0701 1.29221c-.0391.71923-.13724 1.50157-.28349 2.26188l-.0191.0691-.32255.91657 8.82811-2.97208c.0521-.27147.14524-.75029.26946-1.3944l1.6388-8.34728c.82442-1.38738 1.28822-2.89496 1.28822-4.16413l.007-2.60346c1.19605-6.14953 1.84717-9.45218 1.93833-9.84085.23139-.98468 2.39109-5.55552 3.12033-7.08212l-6.21964-3.82956c-.22539-.11319-.48584-.1693-.77033-.1693zm-18.58282 47.17778c-.0972 0-.19433-.026-.28147-.0812l-6.27775-3.87864c-.0151-.008-.0491-.03-.0842-.0521-.92559-.58299-1.42744-1.6949-1.42744-3.14137v-20.86172c0-2.91199 2.05151-6.46506 4.57282-7.92056l19.92511-11.50369c1.22911-.71022 2.42616-.83944 3.36978-.36664l6.5492 4.03091c.2304.14024.31755.42973.20135.67215-1.10089 2.29893-3.01617 6.40497-3.20649 7.21435-.0611.25844-.44376 2.1607-1.92029 9.74768v2.48827c0 1.43245-.48583 3.04421-1.36934 4.54578l-1.5747 8.13894c-.19433 1.00171-.31153 1.60675-.31955 1.64882l-.0321.10017-.0802.18732-9.42514 3.17344-.84545-.016-.10418-.0621c-.21737-.12922-.31253-.39467-.22738-.63307l.49084-1.39339c.047-.24543.0891-.49385.12421-.74127l-7.66613 8.5286c-.10217.11519-.24642.1753-.39167.1753" fill="#1a162c" stroke="#000" stroke-width=".4"/><path d="m199.26576 140.31525 18.91439-10.93572 9.39208 5.89409-20.23265 10.71635-4.20019.66513-6.46406-3.84057c.72424-1.04479 1.61977-1.93831 2.59043-2.49928" fill="#fff"/><path d="m197.33846 142.6783 5.89209 3.50099 3.96279-.62807 19.46732-10.31166-8.48953-5.32711-18.67697 10.79848c-.76431.44075-1.50258 1.11591-2.1557 1.96737zm5.70977 4.45362-7.02702-4.17515.27847-.40168c.79737-1.14998 1.74399-2.06053 2.73769-2.63451l19.1528-11.07397 10.29362 6.46006-21.07208 11.13407z" fill="#1a162c" stroke="#000" stroke-width=".4"/><path d="m201.04581 152.68643-6.46406-3.89567.4718-.78134 6.46407 3.89568z" fill="#1a162c" stroke="#000" stroke-width=".4"/><path d="m201.23012 167.70414-6.46406-3.89567.4718-.78234 6.46408 3.89567z" fill="#1a162c" stroke="#000" stroke-width=".4"/><path d="m225.57581 132.76733-19.96118 11.52473c-2.37907 1.37435-4.30838 4.71507-4.30838 7.46277v20.90379c0 2.74771 1.92931 3.86162 4.30838 2.48726l2.27289-1.31224c.41071-.23641.76131-.10819.84244.30953.24642 1.25314 1.14096 3.53004 4.3785 2.19876.62908-.25845 1.13294-1.24112.94662-1.83514-.22539-.72124-.45477-1.752-.46179-2.9761-.003-.54594.39067-1.21708.86448-1.49055l11.11804-6.41799c2.37907-1.37435 4.30837-4.71607 4.30837-7.46277v-20.9038c0-2.74769-1.9293-3.8616-4.30837-2.48825" fill="#00afe6"/><path d="m208.27318 173.25966c.13123 0 .25744.026.37565.0791.27547.12521.46279.37865.5289.71522.13724.69519.45879 1.60876 1.21909 2.01745.62207.33558 1.47653.28449 2.53835-.15125.43574-.17931.79135-.9366.68517-1.27719-.21637-.69018-.47581-1.78907-.48383-3.10932-.004-.70321.47682-1.53263 1.09387-1.88824l11.11703-6.41899c2.24986-1.29922 4.08099-4.46964 4.08099-7.06709v-20.9038c0-1.15898-.36763-2.00943-1.03377-2.39509-.66513-.38366-1.58571-.27647-2.59044.30251l-19.96117 11.52473c-2.24985 1.29823-4.07999 4.46866-4.07999 7.0671v20.90379c0 1.15899.36664 2.00844 1.03378 2.3941.66714.38567 1.58571.27848 2.58943-.30151l2.2739-1.31225c.20635-.11921.41471-.1793.61304-.1793zm3.06124 3.94275c-.50586 0-.96364-.1092-1.37034-.32757-1.07384-.57698-1.50759-1.757-1.68088-2.64453-.009-.0431-.0221-.0651-.0251-.0691.008.009-.0501.014-.14225.0681l-2.27289 1.31224c-1.29822.74928-2.54235.85547-3.50299.30152-.96065-.55495-1.48955-1.68589-1.48955-3.18445v-20.9038c0-2.88893 2.03548-6.41397 4.53576-7.85844l19.96117-11.52374c1.29823-.74927 2.54336-.85647 3.503-.30151.96166.55495 1.49055 1.68488 1.49055 3.18445v20.90379c0 2.88794-2.03548 6.41298-4.53676 7.85745l-11.11803 6.41899c-.33558.19333-.6391.71422-.63609 1.09187.006 1.20806.24341 2.21279.44075 2.84286.25544.8164-.36563 2.04651-1.20907 2.3931-.71121.2925-1.36133.43876-1.94734.43876" fill="#1a162c" stroke="#000" stroke-width=".4"/><path d="m194.9013 166.454 6.38091 3.92873v2.81382l.41171 1.70892-5.59558-3.45792-1.09588-1.38337-.18431-1.59272.0831-2.01746" fill="#1a162c"/><path d="m166.113 235.81075-19.98321-11.39351.3486-.61004 19.98321 11.39351z" fill="#1a162c" stroke="#000" stroke-linecap="square" stroke-width=".3"/></g></svg>