<svg height="89.23069" viewBox="0 0 696 89.23069" width="696" xmlns="http://www.w3.org/2000/svg"><g fill="#fff" transform="translate(-164 -335.04931)"><path d="m183.52 357.32v50.73h31.88v15.43h-51.4v-66.16z"/><path d="m259.55 424.28c-11.01 0-20.13-3.36-27.09-9.98-7-6.65-10.55-14.68-10.55-23.88 0-9.04 3.52-17.03 10.46-23.77 6.92-6.72 16.07-10.13 27.17-10.13 11.08 0 20.2 3.42 27.11 10.16 6.93 6.76 10.44 14.74 10.44 23.75 0 9.13-3.56 17.15-10.59 23.83-6.99 6.64-16.06 10.02-26.95 10.02m0-50.78c-5.4 0-9.61 1.52-12.85 4.64-3.22 3.1-4.78 7.11-4.78 12.28 0 5.14 1.57 9.15 4.79 12.26 3.24 3.13 7.44 4.66 12.84 4.66 5.37 0 9.55-1.52 12.77-4.65 3.21-3.12 4.77-7.13 4.77-12.27 0-5.17-1.56-9.18-4.76-12.28-3.23-3.12-7.41-4.64-12.78-4.64"/><path d="m355.63 357.32v15.43h-27.3v9.82h27.3v15.43h-27.3v25.48h-19.52v-66.16z"/><path d="m415.18 357.32v15.43h-27.3v9.82h27.3v15.43h-27.3v25.48h-19.52v-66.16z"/><path d="m477.31 357.32v15.43h-29.7v8.98h28.32v15.43h-28.32v10.89h30.32v15.43h-49.84v-66.16z"/><path d="m509.79 357.32v50.73h31.88v15.43h-51.4v-66.16z"/><path d="m588.37 404.18h-4.18l-13.83-16.05v35.35h-19.52v-66.16h16.38l19.06 21.96 19.04-21.96h16.4v66.16h-19.52v-35.35z"/><path d="m683.93 423.48-5.12-12.27h-25.07l-4.64 12.27h-20.79l26.73-66.16h20.61l29.39 66.16zm-11.33-27.17-6.94-16.64-6.29 16.64z"/><path d="m731.22 423.48h-19.52v-66.16h17.13l30.22 34.6v-34.6h19.52v66.16h-16.02l-31.33-36.37z"/><path d="m812.64 423.48h-19.51v-66.16h17.13l30.22 34.6v-34.6h19.52v66.16h-16.02l-31.34-36.37z"/><path clip-rule="evenodd" d="m232.45 347.91s.09-.02.15-.04c2.06 2.88 3.83 6.73 4.58 10.23 6.23-4.01 13.72-6.04 22.37-6.04 8.6 0 16.05 2.02 22.25 6.01.74-2.93 2.86-7.52 4.42-9.86 3.55 1.38 4.66-4.72.87-4.66-1.79.04-2.96 2-2.11 3.53-1.6 1.91-5.36 2.53-7.53 1.38-1.89-1.02-4.32-4.17-3.38-6.49 3.23 0 3.15-4.87.02-4.81-2.21.04-3.15 2.83-1.53 4.23-.98 2.28-4.25 4.27-6.74 3.96-2.66-.34-5.36-3.19-5.57-5.62 2.57-.89 1.94-4.74-.77-4.68-2.68.08-3.23 3.83-.74 4.68 0 2.3-2.17 5.23-4.89 5.62-3.1.42-6.23-1.77-7.32-3.96.59-.64 1.06-1.13 1.06-2.04 0-3.08-4.81-3.06-4.81.08 0 1.28 1 2.3 2.25 2.34.72 2.43-.59 5.51-2.64 6.64-2.87 1.59-6.68.49-8.51-1.49 1.28-1.27-.09-3.83-2-3.79-3.56.08-2.79 5.57.57 4.78" fill-rule="evenodd"/></g></svg>